<svg xmlns="http://www.w3.org/2000/svg" width="68" height="69" viewBox="0 0 68 69">
  <g id="Сгруппировать_13485" data-name="Сгруппировать 13485" transform="translate(-1368 -315)">
    <g id="Сгруппировать_15422" data-name="Сгруппировать 15422">
      <g id="Сгруппировать_15428" data-name="Сгруппировать 15428" transform="translate(2)">
        <g id="Сгруппировать_15427" data-name="Сгруппировать 15427">
          <g id="Сгруппировать_15426" data-name="Сгруппировать 15426">
            <g id="Сгруппировать_15425" data-name="Сгруппировать 15425">
              <g id="Сгруппировать_15424" data-name="Сгруппировать 15424">
                <rect id="Прямоугольник_4123" data-name="Прямоугольник 4123" width="68" height="69" rx="16" transform="translate(1366 315)" fill="#f3f3f3"/>
              </g>
            </g>
          </g>
        </g>
      </g>
    </g>
    <g id="Сгруппировать_15423" data-name="Сгруппировать 15423" transform="translate(0)">
      <g id="Layer_2" data-name="Layer 2" transform="translate(1527.007 305.759)">
        <g id="Layer_1" data-name="Layer 1" transform="translate(-142 30)">
          <path id="Контур_14373" data-name="Контур 14373" d="M29.668,14.2l-2.5-3.188a1.292,1.292,0,0,0-1.966,0l-2.5,3.188a1.247,1.247,0,0,0,1.966,1.536l.089-.117a11.236,11.236,0,1,1-3.038-9.766,1.25,1.25,0,0,0,1.784-1.746,13.741,13.741,0,1,0,3.83,11.171l.36.468a1.247,1.247,0,0,0,1.966-1.536Z" transform="translate(0.053 0.026)" fill="#19a49c"/>
          <path id="Контур_14374" data-name="Контур 14374" d="M27.915,10.67a1.25,1.25,0,0,0-1.245,1.245v7.491a1.03,1.03,0,0,0,.037.29.889.889,0,0,0,.1.262.777.777,0,0,0,.136.225s.028.037.037.047a.988.988,0,0,0,.178.164h0l.051.037,1.957,1.475,3,2.247a1.213,1.213,0,0,0,.749.248,1.25,1.25,0,0,0,.749-2.247l-.4-.3-1.6-1.2L30,19.406l-.838-.623V11.915a1.25,1.25,0,0,0-1.25-1.245Z" transform="translate(-14.159 -5.663)" fill="#19a49c"/>
        </g>
      </g>
    </g>
  </g>
</svg>
