<svg xmlns="http://www.w3.org/2000/svg" width="24.123" height="24.1" viewBox="0 0 24.123 24.1">
  <g id="Сгруппировать_14956" data-name="Сгруппировать 14956" transform="translate(0.05 0.05)">
    <path id="Контур_11538" data-name="Контур 11538" d="M23.34,9.129H8.419v.8H23.34Z" transform="translate(-4.88 -0.008)" fill="#989cae" stroke="#989cae" stroke-width="0.1"/>
    <path id="Контур_11539" data-name="Контур 11539" d="M7.1,10.451a.8.8,0,1,0-.8-.8A.8.8,0,0,0,7.1,10.451Z" transform="translate(-3.121 -0.108)" fill="#989cae" stroke="#989cae" stroke-width="0.1"/>
    <path id="Контур_11540" data-name="Контур 11540" d="M23.34,11.839H8.419v.8H23.34Z" transform="translate(-4.88 0.219)" fill="#989cae" stroke="#989cae" stroke-width="0.1"/>
    <path id="Контур_11541" data-name="Контур 11541" d="M7.1,13.161a.8.8,0,1,0-.8-.8A.8.8,0,0,0,7.1,13.161Z" transform="translate(-3.121 0.092)" fill="#989cae" stroke="#989cae" stroke-width="0.1"/>
    <path id="Контур_11542" data-name="Контур 11542" d="M7.1,15.87a.8.8,0,1,0-.8-.8A.8.8,0,0,0,7.1,15.87Z" transform="translate(-1.527 0.292)" fill="#989cae" stroke="#989cae" stroke-width="0.1"/>
    <path id="Контур_11543" data-name="Контур 11543" d="M14.792,17.258H8.419v.8h6.372Z" transform="translate(-1.578 0.674)" fill="#989cae" stroke="#989cae" stroke-width="0.1"/>
    <path id="Контур_11544" data-name="Контур 11544" d="M7.1,18.58a.8.8,0,1,0-.8-.8A.8.8,0,0,0,7.1,18.58Z" transform="translate(-1.527 0.493)" fill="#989cae" stroke="#989cae" stroke-width="0.1"/>
    <path id="Контур_11545" data-name="Контур 11545" d="M27,8.44,26.128,7.6l-.545.524-.218-.209-.85.785-3,2.855V6.63a3.58,3.58,0,0,0-3.639-3.556H17.5v-.3a.555.555,0,0,0-.554-.593H13.552a1.235,1.235,0,0,0-2.468,0H7.69a.666.666,0,0,0-.68.593v.3H6.765A3.691,3.691,0,0,0,3,6.63V21.444A3.691,3.691,0,0,0,6.765,25H17.871a3.58,3.58,0,0,0,3.639-3.556V14.071l4.041-3.886h.016l1.1-1.03-.214-.2ZM12.318,1.593a.605.605,0,0,1,.617.593.618.618,0,0,1-1.234,0A.605.605,0,0,1,12.318,1.593Zm7.958,19.852a2.369,2.369,0,0,1-2.405,2.37H6.765a2.48,2.48,0,0,1-2.531-2.37V6.63a2.48,2.48,0,0,1,2.531-2.37h.308L6.765,5.444a.607.607,0,0,0,.617.593h9.872a.607.607,0,0,0,.617-.593l-.309-1.185h.309a2.369,2.369,0,0,1,2.405,2.37v6.113L17.14,15.815H9.17v.593h7.353l-.7.675-.545,1.152-.546,1.153L17.1,18.339l3.178-3.083Zm-3.63-3.15-.9.393-.289-.277.409-.864.717.688Zm8.991-8.546-.872-.838.554-.531-.062.06.872.838.109-.1Z" transform="translate(-3 -1)" fill="#989cae" stroke="#989cae" stroke-width="0.1"/>
  </g>
</svg>
