<svg id="Сгруппировать_13218" data-name="Сгруппировать 13218" xmlns="http://www.w3.org/2000/svg" width="53.807" height="53.807" viewBox="0 0 53.807 53.807">
  <circle id="Эллипс_240" data-name="Эллипс 240" cx="26.903" cy="26.903" r="26.903" fill="#f3f3f3"/>
  <g id="Сгруппировать_12563" data-name="Сгруппировать 12563" transform="translate(14.826 15.057)">
    <path id="Контур_13111" data-name="Контур 13111" d="M135.322,191.067l-.381,1.191,2.284,1.67a.2.2,0,0,1,.1.171v4.273a.218.218,0,0,1-.123.2l-2.984,1.719a.209.209,0,0,1-.209,0l-3.708-2.136a.2.2,0,0,1-.1-.172c-.086-.933-.2-1.879-.295-2.812l-1.24-.27a.213.213,0,0,1-.172-.258.377.377,0,0,1,.049-.1,11.934,11.934,0,0,1,2.959-2.419,11.62,11.62,0,0,1,3.573-1.351.223.223,0,0,1,.258.172.214.214,0,0,1-.012.123Zm-.847,1.2.319-.982a10.764,10.764,0,0,0-3.069,1.215,11.294,11.294,0,0,0-2.591,2.05l1.019.221a.209.209,0,0,1,.172.184l.295,2.861,3.5,2.026,2.762-1.6V194.21l-2.32-1.695a.2.2,0,0,1-.086-.245Z" transform="translate(-125.586 -190.527)" fill="none" stroke="#19a49c" stroke-width="0.4"/>
    <path id="Контур_13112" data-name="Контур 13112" d="M160.106,194.9l-1.228.27-.295,2.812a.254.254,0,0,1-.123.172l-3.7,2.136a.209.209,0,0,1-.209,0l-2.983-1.731a.2.2,0,0,1-.111-.184v-4.273a.217.217,0,0,1,.1-.184l2.284-1.657-.393-1.2a.215.215,0,0,1,.135-.27.34.34,0,0,1,.11-.012,11.848,11.848,0,0,1,6.532,3.769.215.215,0,0,1-.025.307.111.111,0,0,1-.1.049Zm-1.473-.123,1.019-.221a11.106,11.106,0,0,0-2.6-2.05,10.762,10.762,0,0,0-3.069-1.215l.331.982a.234.234,0,0,1-.086.245l-2.333,1.695v4.039l2.775,1.6,3.487-2.013.307-2.861a.2.2,0,0,1,.172-.2Z" transform="translate(-139.565 -190.533)" fill="none" stroke="#19a49c" stroke-width="0.4"/>
    <path id="Контур_13113" data-name="Контур 13113" d="M167.277,217.826l-.847-.933-2.579,1.142a.185.185,0,0,1-.2-.012l-3.708-2.124a.271.271,0,0,1-.11-.2v-3.45a.218.218,0,0,1,.123-.2l3.683-2.124a.211.211,0,0,1,.209,0l2.579,1.142.847-.945a.227.227,0,0,1,.307-.013.126.126,0,0,1,.061.1,11.7,11.7,0,0,1,.467,1.854,11.564,11.564,0,0,1,0,3.831,11.713,11.713,0,0,1-.467,1.854.215.215,0,0,1-.27.135.265.265,0,0,1-.1-.061Zm-.626-1.351.7.774a12.618,12.618,0,0,0,.332-1.424,11.4,11.4,0,0,0,.148-1.842,11.187,11.187,0,0,0-.148-1.841,13.515,13.515,0,0,0-.332-1.437l-.7.773a.211.211,0,0,1-.246.061l-2.64-1.179-3.487,2.026v3.192l3.487,2.014,2.628-1.167a.225.225,0,0,1,.258.049Z" transform="translate(-144.661 -202.171)" fill="none" stroke="#19a49c" stroke-width="0.4"/>
    <path id="Контур_13114" data-name="Контур 13114" d="M153.451,234.74l.393-1.191-2.3-1.67a.2.2,0,0,1-.086-.172v-4.273a.219.219,0,0,1,.123-.2l2.971-1.719a.233.233,0,0,1,.221,0l3.7,2.136a.238.238,0,0,1,.11.172c.086.933.2,1.879.295,2.812l1.228.258a.219.219,0,0,1,.172.258.242.242,0,0,1-.049.1,12.04,12.04,0,0,1-2.959,2.431,11.6,11.6,0,0,1-3.573,1.338.222.222,0,0,1-.258-.159.382.382,0,0,1,.012-.123Zm.86-1.215-.331.994a11.114,11.114,0,0,0,3.069-1.215,11.419,11.419,0,0,0,2.6-2.05l-1.019-.221a.222.222,0,0,1-.172-.2l-.307-2.861-3.487-2.014-2.775,1.6V231.6l2.333,1.682a.243.243,0,0,1,.086.246Z" transform="translate(-139.565 -211.658)" fill="none" stroke="#19a49c" stroke-width="0.4"/>
    <path id="Контур_13115" data-name="Контур 13115" d="M128.676,230.9l1.24-.258.295-2.812a.179.179,0,0,1,.11-.172l3.7-2.136a.233.233,0,0,1,.221,0l2.983,1.719a.27.27,0,0,1,.111.2v4.273a.247.247,0,0,1-.111.184l-2.271,1.657.38,1.2a.215.215,0,0,1-.135.27.168.168,0,0,1-.111,0,11.6,11.6,0,0,1-3.573-1.338,12.277,12.277,0,0,1-2.959-2.431.228.228,0,0,1,.025-.307.245.245,0,0,1,.1-.049Zm1.486.135-1.019.221a11.343,11.343,0,0,0,2.591,2.05,11.116,11.116,0,0,0,3.069,1.215l-.319-.994a.236.236,0,0,1,.074-.246l2.333-1.682v-4.039l-2.763-1.6-3.5,2.014-.295,2.861a.221.221,0,0,1-.172.2Z" transform="translate(-125.594 -211.658)" fill="none" stroke="#19a49c" stroke-width="0.4"/>
    <path id="Контур_13116" data-name="Контур 13116" d="M125.54,218.032l-2.578-1.142-.848.933a.229.229,0,0,1-.307.025.429.429,0,0,1-.061-.1,13.2,13.2,0,0,1-.467-1.854,12.5,12.5,0,0,1,0-3.831,12.77,12.77,0,0,1,.467-1.854.2.2,0,0,1,.27-.135.248.248,0,0,1,.1.049l.848.945,2.59-1.154a.223.223,0,0,1,.2.013l3.7,2.137a.2.2,0,0,1,.111.184v3.45a.22.22,0,0,1-.123.2l-3.684,2.136a.211.211,0,0,1-.209,0Zm-1.007-.921,1.093.479,3.487-2.014v-3.192l-3.487-2.026-2.615,1.167a.212.212,0,0,1-.27-.049l-.7-.773a13.614,13.614,0,0,0-.332,1.437,12.746,12.746,0,0,0-.147,1.841,13.026,13.026,0,0,0,.147,1.842,12.708,12.708,0,0,0,.332,1.424l.7-.773a.246.246,0,0,1,.258-.049Z" transform="translate(-121.107 -202.169)" fill="none" stroke="#19a49c" stroke-width="0.4"/>
    <path id="Контур_13117" data-name="Контур 13117" d="M132.881,190.151a11.8,11.8,0,1,1-8.349,3.45,11.783,11.783,0,0,1,8.349-3.45Zm8.042,3.769a11.354,11.354,0,1,0,3.339,8.042,11.309,11.309,0,0,0-3.339-8.042Z" transform="translate(-121.069 -190.151)" fill="none" stroke="#19a49c" stroke-width="0.6"/>
    <path id="Контур_13118" data-name="Контур 13118" d="M150.3,249.811a.221.221,0,0,1,0-.442h7.613a.221.221,0,1,1,0,.442Z" transform="translate(-138.725 -226.188)" fill="none" stroke="#19a49c" stroke-width="0.4"/>
    <path id="Контур_13119" data-name="Контур 13119" d="M173.482,249.4a.21.21,0,0,1,.221.209.221.221,0,0,1-.442,0,.21.21,0,0,1,.221-.209Z" transform="translate(-152.83 -226.207)" fill="none" stroke="#19a49c" stroke-width="0.4" fill-rule="evenodd"/>
  </g>
</svg>
