<svg xmlns="http://www.w3.org/2000/svg" width="20.455" height="21.1" viewBox="0 0 20.455 21.1">
  <g id="Page-1" transform="translate(-0.45 -0.45)">
    <g id="icon-115-lock-open" transform="translate(1 1)">
      <path id="lock-open" d="M13.258,15.784v1.674a.323.323,0,0,0,.645,0V15.784a.968.968,0,1,0-.645,0ZM8.742,5.839a2.9,2.9,0,0,0-5.806,0v2.58A.968.968,0,1,1,1,8.419V5.838a4.839,4.839,0,0,1,9.677,0v4.839h7.736a1.941,1.941,0,0,1,1.941,1.942v6.439A1.937,1.937,0,0,1,18.414,21H8.748a1.941,1.941,0,0,1-1.941-1.942V12.619a1.937,1.937,0,0,1,1.935-1.942V5.839Z" transform="translate(-1 -1)" fill="none" stroke="#19a49c" stroke-width="1.1" fill-rule="evenodd"/>
      <path id="Контур_14559" data-name="Контур 14559" d="M10.293,9.031h0c-6.235.057-2.262.024-2.262.024" transform="translate(0.454 0.605)" fill="none" stroke="#19a49c" stroke-width="1"/>
    </g>
  </g>
</svg>
