<svg xmlns="http://www.w3.org/2000/svg" xmlns:xlink="http://www.w3.org/1999/xlink" width="1035.646" height="1035.646" viewBox="0 0 1035.646 1035.646"><defs><linearGradient id="a" x1="0.5" x2="0.5" y2="1" gradientUnits="objectBoundingBox"><stop offset="0" stop-color="#fff"/><stop offset="1" stop-color="#19a49c"/></linearGradient></defs><path d="M9552,1585a391.238,391.238,0,0,1-39.364-1.988,384.422,384.422,0,0,1-343.647-343.648,390.847,390.847,0,0,1,0-78.728,384.424,384.424,0,0,1,343.647-343.648,390.783,390.783,0,0,1,78.729,0,384.435,384.435,0,0,1,343.648,343.648,390.847,390.847,0,0,1,0,78.728,384.427,384.427,0,0,1-343.648,343.648A391.267,391.267,0,0,1,9552,1585Zm-5.5-664c-150.808,0-273.5,122.692-273.5,273.5S9395.691,1468,9546.5,1468,9820,1345.309,9820,1194.5,9697.308,921,9546.5,921Z" transform="matrix(0.454, 0.891, -0.891, 0.454, -2749.487, -8537.86)" opacity="0.36" fill="url(#a)"/></svg>