<svg xmlns="http://www.w3.org/2000/svg" xmlns:xlink="http://www.w3.org/1999/xlink" width="193.589" height="143.852" viewBox="0 0 193.589 143.852">
  <defs>
    <clipPath id="clip-path">
      <circle id="Эллипс_429" data-name="Эллипс 429" cx="42.392" cy="42.392" r="42.392" fill="none"/>
    </clipPath>
    <clipPath id="clip-path-2">
      <circle id="Эллипс_431" data-name="Эллипс 431" cx="33.396" cy="33.396" r="33.396" fill="none"/>
    </clipPath>
  </defs>
  <g id="Сгруппировать_14869" data-name="Сгруппировать 14869" transform="translate(-48.849 -53.569)">
    <g id="Сгруппировать_14839" data-name="Сгруппировать 14839" transform="translate(58.128 196.921)">
      <line id="Линия_335" data-name="Линия 335" x2="162.054" transform="translate(22.256)" fill="none" stroke="#000" stroke-miterlimit="10" stroke-width="1"/>
      <line id="Линия_337" data-name="Линия 337" x1="19.173" fill="none" stroke="#000" stroke-miterlimit="10" stroke-width="1"/>
    </g>
    <g id="Сгруппировать_14844" data-name="Сгруппировать 14844" transform="translate(48.849 83.144)">
      <g id="Сгруппировать_14843" data-name="Сгруппировать 14843" transform="translate(0 2.266)">
        <g id="Сгруппировать_14841" data-name="Сгруппировать 14841" transform="translate(0 43.642)">
          <path id="Контур_16735" data-name="Контур 16735" d="M85.441,379.208a12.382,12.382,0,0,1-4.3,3.182s1.828,4.175,5.237,1.856c0,0-1.114-1.13,3.148-3.253S85.441,379.208,85.441,379.208Z" transform="translate(-70.166 -328.333)" fill="#c46019"/>
          <path id="Контур_16736" data-name="Контур 16736" d="M52.672,387.6s.092-1.044.425-1.267,7.381.021,8.849-1.154,1.616-2.043,1.961-1.942,2.019.966,2.234,1.511-.644,2.381,2.739,1.98c0,0,1.257,1.921-.36,5.247C68.519,391.978,52.715,387.455,52.672,387.6Z" transform="translate(-52.672 -330.817)" fill="#1f323a"/>
          <path id="Контур_16737" data-name="Контур 16737" d="M57.86,393.467l11.049,3.047a9.46,9.46,0,0,1,2.267.84" transform="translate(-55.861 -337.109)" fill="none" stroke="#fd3365" stroke-miterlimit="10" stroke-width="2.143"/>
          <g id="Сгруппировать_14840" data-name="Сгруппировать 14840" transform="translate(52.133 55.534)">
            <path id="Контур_16738" data-name="Контур 16738" d="M195.759,393.627q-.05.977-.04,1.958a3.368,3.368,0,0,0,.477,1.857c.477.8.711.665-.1,1.391-1.241,1.115-4.9,1.577-4.806-.859l.228-5.729a1.17,1.17,0,0,1,.179-.7c.609-.761,3.387.689,4.137.93Q195.788,393.051,195.759,393.627Z" transform="translate(-190.003 -391.326)" fill="#c66017"/>
            <path id="Контур_16739" data-name="Контур 16739" d="M204.531,412.121s.2-1.029-.062-1.335-7.106-2-8.2-3.529-1-2.406-1.355-2.4a5.58,5.58,0,0,0-2.562.843c-.356.465-.031,2.466-3.176,1.156,0,0-1.734,1.5-1.088,5.146C188.091,412,204.529,411.967,204.531,412.121Z" transform="translate(-187.947 -399.641)" fill="#1f323a"/>
            <path id="Контур_16740" data-name="Контур 16740" d="M204.168,421.084,192.707,421a9.445,9.445,0,0,0-2.411.188" transform="translate(-189.391 -409.56)" fill="none" stroke="#fd3365" stroke-miterlimit="10" stroke-width="2.143"/>
          </g>
          <path id="Контур_16741" data-name="Контур 16741" d="M93.731,374.377a17.405,17.405,0,0,0,5.238,1.692" transform="translate(-77.908 -325.375)" fill="none" stroke="#fdfbf2" stroke-miterlimit="10" stroke-width="2.143"/>
          <path id="Контур_16742" data-name="Контур 16742" d="M138.768,249.5s-2.394,29.319-2.747,39-.674,17.824-.674,17.824l-8.039-1.54s-.689-.64-.376-4.2-5.651,5.931-2.244-27.953l.255-5.477c-19.5,31.669-24.036,27.711-25.694,30.876s-2.582,3.332-2.582,3.332l-7.816-2.728s4.342-7.343,9.268-15.684,21.738-35.728,21.738-35.728" transform="translate(-74.907 -247.227)" fill="#1f323a"/>
          <path id="Контур_16743" data-name="Контур 16743" d="M196.413,385.747a17.422,17.422,0,0,1-5.323-1.4" transform="translate(-137.746 -331.501)" fill="none" stroke="#7966ff" stroke-linecap="round" stroke-miterlimit="10" stroke-width="2"/>
          <path id="Контур_16744" data-name="Контур 16744" d="M102.87,374.477a17.417,17.417,0,0,1-5.208-1.782" transform="translate(-80.324 -324.342)" fill="none" stroke="#7966ff" stroke-linecap="round" stroke-miterlimit="10" stroke-width="2"/>
          <path id="Контур_16745" data-name="Контур 16745" d="M166.932,256.3a8.953,8.953,0,0,1-2.268,3.365,5.044,5.044,0,0,1-2.943.9" transform="translate(-119.695 -252.805)" fill="none" stroke="#7966ff" stroke-linecap="round" stroke-miterlimit="10" stroke-width="2"/>
          <path id="Контур_16746" data-name="Контур 16746" d="M207.111,270.66a8.167,8.167,0,0,0,3.436,6.424" transform="translate(-147.593 -261.629)" fill="none" stroke="#7966ff" stroke-linecap="round" stroke-miterlimit="10" stroke-width="2"/>
        </g>
        <g id="Сгруппировать_14842" data-name="Сгруппировать 14842" transform="translate(33.526)">
          <path id="Контур_16747" data-name="Контур 16747" d="M148.2,186.046l-8.537.035s1.085-7.777,2.974-9.981,15.577-6.87,16.585-6.933,3.9.126,6.109.189,5.195,33.01,5.195,33.01-1.552-.528-7.708-.1a24.784,24.784,0,0,1-12.135-2.443Z" transform="translate(-139.667 -155.6)" fill="#ffa539"/>
          <path id="Контур_16748" data-name="Контур 16748" d="M214.969,147.039a10.42,10.42,0,0,1-.752-2.555,2.158,2.158,0,0,1,.027-.791.634.634,0,0,1,.182-.328.557.557,0,0,1,.624-.014,1.631,1.631,0,0,1,.463.47,19.3,19.3,0,0,1,1.212,1.794l.508,1.643-2.133.346Z" transform="translate(-185.472 -139.687)" fill="#913d05"/>
          <path id="Контур_16749" data-name="Контур 16749" d="M164.667,137.607c.543,3.4-1.832,9.009-5.12,9.009a6.1,6.1,0,0,1-5.953-6.231c0-3.441,2.721-5.63,5.953-6.231C162.547,133.6,164.141,134.322,164.667,137.607Z" transform="translate(-148.227 -133.984)" fill="#171f39"/>
          <path id="Контур_16750" data-name="Контур 16750" d="M167.555,143.386s1.111,5.794.516,6.985a2.072,2.072,0,0,1-1.826,1.151l.675,3.532s1.587,1.389.238,2.421-5.874-.318-5.874-.318l-.516-6.906s-2.7-.159-2.461-2.381,2.54-.992,2.54-.992a4.251,4.251,0,0,0,.873-2.976s1.9.913,2.421-.437A3.061,3.061,0,0,0,167.555,143.386Z" transform="translate(-151.114 -139.763)" fill="#c46019"/>
          <path id="Контур_16751" data-name="Контур 16751" d="M176.621,163.818a6.434,6.434,0,0,1-1.446-.425s.851,1.256,1.64,1.438Z" transform="translate(-161.491 -152.059)" fill="#913d05"/>
        </g>
      </g>
      <path id="Контур_16752" data-name="Контур 16752" d="M162.714,133.972c1.358.405,2.9.772,3.833-.291a3.469,3.469,0,0,0,.71-1.7,5.488,5.488,0,0,0-.543-3.878,2.106,2.106,0,0,1-2.548,1.687,9.51,9.51,0,0,1-.928-.385,4.591,4.591,0,0,0-4.456.9,10.24,10.24,0,0,0-2.694,3.88" transform="translate(-116.233 -128.103)" fill="#171f39"/>
    </g>
    <g id="Сгруппировать_14847" data-name="Сгруппировать 14847" transform="translate(91.758 72.032)">
      <path id="Контур_16753" data-name="Контур 16753" d="M199.978,147.277l85.859-1.443a1.814,1.814,0,0,1,1.847,1.8c.073,11.955.487,78.561.7,85.289.23,7.4,2.343,17.073-8.677,18.613-10.02,1.4-69.622-3.92-80.365-4.9a1.814,1.814,0,0,1-1.649-1.818l.5-95.739A1.816,1.816,0,0,1,199.978,147.277Z" transform="translate(-184.71 -127.888)" fill="#fefefe"/>
      <path id="Контур_16754" data-name="Контур 16754" d="M164.014,400.691s-.23,6.987,6.145,7.908,91.339-.033,91.339-.033-7.323-1.576-9.29-8.866Z" transform="translate(-164.013 -283.918)" fill="#1f323a"/>
      <g id="Сгруппировать_14845" data-name="Сгруппировать 14845" transform="translate(22.783 36.164)">
        <circle id="Эллипс_426" data-name="Эллипс 426" cx="6.078" cy="6.078" r="6.078" transform="translate(0.334 1.055)" fill="#d8e0f7"/>
        <line id="Линия_338" data-name="Линия 338" x2="51.805" transform="translate(16.847 3.139)" fill="none" stroke="#d8e0f7" stroke-linecap="round" stroke-miterlimit="10" stroke-width="2"/>
        <line id="Линия_339" data-name="Линия 339" x2="33.716" transform="translate(16.847 6.577)" fill="none" stroke="#d8e0f7" stroke-linecap="round" stroke-miterlimit="10" stroke-width="2"/>
        <path id="Контур_16755" data-name="Контур 16755" d="M223.132,198.432l5.325,3.672,8.63-9" transform="translate(-223.132 -193.107)" fill="none" stroke="#7966ff" stroke-linecap="round" stroke-miterlimit="10" stroke-width="5"/>
      </g>
      <rect id="Прямоугольник_4329" data-name="Прямоугольник 4329" width="13.503" height="13.503" rx="5.505" transform="translate(22.733 54.36)" fill="#d8e0f7"/>
      <rect id="Прямоугольник_4330" data-name="Прямоугольник 4330" width="13.503" height="13.503" rx="5.505" transform="translate(46.426 54.36)" fill="none" stroke="#d8e0f7" stroke-linecap="round" stroke-miterlimit="10" stroke-width="1"/>
      <rect id="Прямоугольник_4331" data-name="Прямоугольник 4331" width="13.503" height="13.503" rx="5.505" transform="translate(22.733 75.681)" fill="#d8e0f7"/>
      <rect id="Прямоугольник_4332" data-name="Прямоугольник 4332" width="13.503" height="13.503" rx="5.505" transform="translate(46.426 75.681)" fill="none" stroke="#d8e0f7" stroke-linecap="round" stroke-miterlimit="10" stroke-width="1"/>
      <rect id="Прямоугольник_4333" data-name="Прямоугольник 4333" width="13.503" height="13.503" rx="5.505" transform="translate(22.733 97.003)" fill="#d8e0f7"/>
      <rect id="Прямоугольник_4334" data-name="Прямоугольник 4334" width="13.503" height="13.503" rx="5.505" transform="translate(46.426 97.003)" fill="none" stroke="#d8e0f7" stroke-linecap="round" stroke-miterlimit="10" stroke-width="1"/>
      <g id="Сгруппировать_14846" data-name="Сгруппировать 14846" transform="translate(39.31 0)">
        <path id="Прямоугольник_4335" data-name="Прямоугольник 4335" d="M7.847,0H27.2A7.847,7.847,0,0,1,35.05,7.847v5.6a0,0,0,0,1,0,0H0a0,0,0,0,1,0,0v-5.6A7.847,7.847,0,0,1,7.847,0Z" transform="translate(0 9.233) rotate(-1.124)" fill="#ffa539"/>
        <circle id="Эллипс_427" data-name="Эллипс 427" cx="7.54" cy="7.54" r="7.54" transform="translate(8.739 14.83) rotate(-79.568)" fill="#ffa539"/>
        <path id="Контур_16756" data-name="Контур 16756" d="M291.912,118.138c0,.027,0,.053.005.079l15.069-.3c0-.027,0-.053,0-.08a7.527,7.527,0,0,0-.447-2.4l-14.278.28A7.512,7.512,0,0,0,291.912,118.138Z" transform="translate(-281.931 -109.209)" fill="#d87512"/>
      </g>
    </g>
    <g id="Сгруппировать_14858" data-name="Сгруппировать 14858" transform="translate(148.794 111.992)">
      <g id="Сгруппировать_14848" data-name="Сгруппировать 14848" transform="translate(19.501 78.145)">
        <path id="Контур_16757" data-name="Контур 16757" d="M474,410.376l-4.646-4.646" transform="translate(-428.217 -405.73)" fill="none" stroke="#ffa539" stroke-miterlimit="10" stroke-width="2"/>
        <path id="Контур_16758" data-name="Контур 16758" d="M362.611,410.766l4.4-4.4" transform="translate(-362.611 -406.12)" fill="none" stroke="#ffa539" stroke-miterlimit="10" stroke-width="2"/>
      </g>
      <g id="Сгруппировать_14857" data-name="Сгруппировать 14857">
        <circle id="Эллипс_428" data-name="Эллипс 428" cx="42.392" cy="42.392" r="42.392" fill="#ffa539"/>
        <g id="Сгруппировать_14850" data-name="Сгруппировать 14850">
          <g id="Сгруппировать_14849" data-name="Сгруппировать 14849" clip-path="url(#clip-path)">
            <path id="Контур_16759" data-name="Контур 16759" d="M407.372,207c2.262,1.838,8.529,5.227,10.791,7.065,4.013,3.262,6.677,7.516,9.424,11.9a34.522,34.522,0,0,1,3.1,6.625c2.876,7.942,4.148,16.669,2.192,24.886a61.908,61.908,0,0,1-3.3,9.408,27.2,27.2,0,0,1-3.126,6,27.989,27.989,0,0,1-5.279,4.947,49.268,49.268,0,0,1-9.279,6.221,48.658,48.658,0,0,1-11.463,3.245,50.132,50.132,0,0,1-12.085,1.344c-4.059-.206-10.422-2.119-13.342-4.945" transform="translate(-350.725 -205.442)" fill="none" stroke="#9b702a" stroke-miterlimit="10" stroke-width="0.846" opacity="0.26" style="mix-blend-mode: multiply;isolation: isolate"/>
            <path id="Контур_16760" data-name="Контур 16760" d="M317.864,267.587c-4.262-7.293-5.783-18.661-5.342-27.1a61.921,61.921,0,0,1,1.551-9.849,27.194,27.194,0,0,1,1.992-6.463,28.01,28.01,0,0,1,4.3-5.819,49.278,49.278,0,0,1,8-7.794c3.24-2.315,6.537-4.79,10.243-6.246,3.783-1.486,8.062-1.987,12.091-2.517" transform="translate(-312.28 -202.248)" fill="none" stroke="#ef920c" stroke-miterlimit="10" stroke-width="0.846" opacity="0.26" style="mix-blend-mode: screen;isolation: isolate"/>
          </g>
        </g>
        <circle id="Эллипс_430" data-name="Эллипс 430" cx="33.396" cy="33.396" r="33.396" transform="translate(8.996 8.996)" fill="#f6f6f6"/>
        <g id="Сгруппировать_14852" data-name="Сгруппировать 14852" transform="translate(8.996 8.996)">
          <g id="Сгруппировать_14851" data-name="Сгруппировать 14851" clip-path="url(#clip-path-2)">
            <line id="Линия_340" data-name="Линия 340" y1="67.891" x2="67.891" transform="translate(-4.537 -14.268)" fill="none" stroke="#fbfbfb" stroke-miterlimit="10" stroke-width="14.809"/>
            <line id="Линия_341" data-name="Линия 341" y1="67.891" x2="67.891" transform="translate(6.58 6.004)" fill="none" stroke="#fbfbfb" stroke-miterlimit="10" stroke-width="74.045"/>
          </g>
        </g>
        <path id="Контур_16761" data-name="Контур 16761" d="M422.011,259.623v20.436" transform="translate(-379.619 -237.785)" fill="none" stroke="#7966ff" stroke-linecap="round" stroke-miterlimit="10" stroke-width="1.851"/>
        <path id="Контур_16762" data-name="Контур 16762" d="M401.863,313.512,389.274,326.1" transform="translate(-359.498 -270.906)" fill="none" stroke="#7966ff" stroke-linecap="round" stroke-miterlimit="10" stroke-width="1.851"/>
        <g id="Сгруппировать_14853" data-name="Сгруппировать 14853" transform="translate(20.969 20.969)">
          <path id="Контур_16763" data-name="Контур 16763" d="M474.03,257.369l-2.238,2.238" transform="translate(-431.184 -257.369)" fill="none" stroke="#7966ff" stroke-linecap="round" stroke-miterlimit="10" stroke-width="0.463"/>
          <path id="Контур_16764" data-name="Контур 16764" d="M368.66,362.739l-2.239,2.239" transform="translate(-366.421 -322.131)" fill="none" stroke="#7966ff" stroke-linecap="round" stroke-miterlimit="10" stroke-width="0.463"/>
        </g>
        <g id="Сгруппировать_14854" data-name="Сгруппировать 14854" transform="translate(20.969 20.969)">
          <path id="Контур_16765" data-name="Контур 16765" d="M474.03,364.978l-2.238-2.239" transform="translate(-431.184 -322.131)" fill="none" stroke="#7966ff" stroke-linecap="round" stroke-miterlimit="10" stroke-width="0.463"/>
          <path id="Контур_16766" data-name="Контур 16766" d="M368.66,259.607l-2.239-2.238" transform="translate(-366.421 -257.369)" fill="none" stroke="#7966ff" stroke-linecap="round" stroke-miterlimit="10" stroke-width="0.463"/>
        </g>
        <g id="Сгруппировать_14855" data-name="Сгруппировать 14855" transform="translate(42.392 12.095)">
          <path id="Контур_16767" data-name="Контур 16767" d="M422.011,391.574" transform="translate(-422.011 -330.98)" fill="none" stroke="#7966ff" stroke-linecap="round" stroke-miterlimit="10" stroke-width="1.851"/>
          <path id="Контур_16768" data-name="Контур 16768" d="M422.011,234.343" transform="translate(-422.011 -234.343)" fill="none" stroke="#7966ff" stroke-linecap="round" stroke-miterlimit="10" stroke-width="1.851"/>
        </g>
        <g id="Сгруппировать_14856" data-name="Сгруппировать 14856" transform="translate(12.095 42.392)">
          <path id="Контур_16769" data-name="Контур 16769" d="M343.395,312.958" transform="translate(-343.395 -312.958)" fill="none" stroke="#7966ff" stroke-linecap="round" stroke-miterlimit="10" stroke-width="1.851"/>
          <path id="Контур_16770" data-name="Контур 16770" d="M500.626,312.958" transform="translate(-440.032 -312.958)" fill="none" stroke="#7966ff" stroke-linecap="round" stroke-miterlimit="10" stroke-width="1.851"/>
        </g>
        <circle id="Эллипс_432" data-name="Эллипс 432" cx="4.574" cy="4.574" r="4.574" transform="translate(37.818 37.818)" fill="#193f87"/>
      </g>
    </g>
    <g id="Сгруппировать_14859" data-name="Сгруппировать 14859" transform="translate(82.488 88.947)">
      <path id="Контур_16771" data-name="Контур 16771" d="M207.626,216.854l2.023,1.219-.577-2.376Z" transform="translate(-181.548 -187.742)" fill="#1f323a"/>
      <path id="Контур_16772" data-name="Контур 16772" d="M191.736,190.74l6.124,10.082s1.374-.072,1.446-1.157l-5.967-10.052Z" transform="translate(-171.782 -171.711)" fill="#596fef"/>
      <path id="Контур_16773" data-name="Контур 16773" d="M191.715,188.741a.976.976,0,0,0-.253,1.358l1.611-1.1A.976.976,0,0,0,191.715,188.741Z" transform="translate(-171.509 -171.069)" fill="#fd3365"/>
      <path id="Контур_16774" data-name="Контур 16774" d="M140.574,204.573s-1.384,9.127,0,11.331,4.157,2.267,9.2-2.834,6.612-8.246,7.683-8.056,2.834,2.141,5.92.315c0,0-.693,1.071-.378,1.511s3.212-.693,3.779-2.519a4.186,4.186,0,0,0-2.456-4.661,14.155,14.155,0,0,0-6.865.126c-2.268.693-9.07,4.787-9.07,4.787Z" transform="translate(-139.959 -177.664)" fill="#c46019"/>
      <path id="Контур_16775" data-name="Контур 16775" d="M153.609,213.224a17.454,17.454,0,0,0-5.014,5.959" transform="translate(-145.267 -186.223)" fill="none" stroke="#913d05" stroke-miterlimit="10" stroke-width="0.841"/>
      <path id="Контур_16776" data-name="Контур 16776" d="M200.509,213.5a5.468,5.468,0,0,0,.689-.746" transform="translate(-177.174 -185.931)" fill="none" stroke="#913d05" stroke-miterlimit="10" stroke-width="0.841"/>
      <path id="Контур_16777" data-name="Контур 16777" d="M204.505,207.794a4.436,4.436,0,0,1,1.366,1.873" transform="translate(-179.63 -182.885)" fill="none" stroke="#913d05" stroke-miterlimit="10" stroke-width="0.841"/>
      <path id="Контур_16778" data-name="Контур 16778" d="M206.057,205.168a5.59,5.59,0,0,1,.883,1.3" transform="translate(-180.584 -181.271)" fill="none" stroke="#913d05" stroke-miterlimit="10" stroke-width="0.841"/>
      <path id="Контур_16779" data-name="Контур 16779" d="M219.693,144.306a1.513,1.513,0,0,1,.8-.909.923.923,0,0,1,1.108.3.831.831,0,0,1,.449-.429,1.493,1.493,0,0,1,.63-.105,1.409,1.409,0,0,1,.652.152.771.771,0,0,1,.4.519,1.076,1.076,0,0,1,.868-.544,1.475,1.475,0,0,1,.732.028,1.2,1.2,0,0,1,.7.77.965.965,0,0,1,1.179-.156,1.251,1.251,0,0,1,.543.823,3.178,3.178,0,0,1,.014,1.01,7.291,7.291,0,0,1-1.567,4.145,1.162,1.162,0,0,1-.579.406.476.476,0,0,1-.572-.3.984.984,0,0,1-1.821-.049,1.347,1.347,0,0,1-.931.595,1.25,1.25,0,0,1-.989-.39.761.761,0,0,1-.935.23,1.188,1.188,0,0,1-.656-.752,3.507,3.507,0,0,1-.134-1.019q-.036-1.073-.071-2.146a10.467,10.467,0,0,1,0-1.143A3.865,3.865,0,0,1,219.693,144.306Z" transform="translate(-188.844 -143.16)" fill="#c46019"/>
      <path id="Контур_16780" data-name="Контур 16780" d="M223.813,153.587q.218-2.091.5-4.176" transform="translate(-191.497 -147.002)" fill="none" stroke="#913d05" stroke-miterlimit="10" stroke-width="0.8"/>
      <path id="Контур_16781" data-name="Контур 16781" d="M228.834,153.889q.347-2.083.824-4.142" transform="translate(-194.583 -147.209)" fill="none" stroke="#913d05" stroke-miterlimit="10" stroke-width="0.8"/>
      <path id="Контур_16782" data-name="Контур 16782" d="M233.647,153.859l1.084-4.053" transform="translate(-197.541 -147.245)" fill="none" stroke="#913d05" stroke-miterlimit="10" stroke-width="0.8"/>
    </g>
    <g id="Сгруппировать_14861" data-name="Сгруппировать 14861" transform="translate(183.753 65.249)">
      <path id="Контур_16783" data-name="Контур 16783" d="M453.634,106.6c6.135-.646,16.415,3.81,12.71,11.63a9.707,9.707,0,0,1-5.849,5.123c-2.068.643-5.049.773-5.831-2.315-1.44-5.683,14.31-8.85,17.35,2.642,3.258,12.314-15.962,12.678-15.962,12.678" transform="translate(-434.013 -96.95)" fill="none" stroke="#fff" stroke-linecap="round" stroke-miterlimit="10" stroke-width="1.393" stroke-dasharray="3.715 2.786" opacity="0.7"/>
      <g id="Сгруппировать_14860" data-name="Сгруппировать 14860" transform="translate(0 0)">
        <path id="Контур_16784" data-name="Контур 16784" d="M414.06,91.911c-.07-.042,4.522-.395,4.522-.395l3.071,5.923-4.462-2.848L412.54,96.8l-9.818-1.217Z" transform="translate(-402.722 -87.72)" fill="#6b82f7"/>
        <path id="Контур_16785" data-name="Контур 16785" d="M402.722,100.485l18.931,1.858L417.192,99.5Z" transform="translate(-402.722 -92.624)" fill="#4868ef"/>
        <path id="Контур_16786" data-name="Контур 16786" d="M402.722,89.528l17.5-7.861-1.639,3.8-15.86,4.065,14.47-.99-2.683,6.6Z" transform="translate(-402.722 -81.667)" fill="#bbc6ff"/>
      </g>
    </g>
    <g id="Сгруппировать_14868" data-name="Сгруппировать 14868" transform="translate(51.843 54.954)">
      <g id="Сгруппировать_14862" data-name="Сгруппировать 14862" transform="translate(0 91.31)" opacity="0.4">
        <line id="Линия_342" data-name="Линия 342" x2="2.914" transform="translate(0 1.457)" fill="none" stroke="#fff" stroke-linecap="round" stroke-linejoin="round" stroke-width="2.326"/>
        <line id="Линия_343" data-name="Линия 343" y1="2.914" transform="translate(1.457)" fill="none" stroke="#fff" stroke-linecap="round" stroke-linejoin="round" stroke-width="2.326"/>
      </g>
      <g id="Сгруппировать_14863" data-name="Сгруппировать 14863" transform="translate(174.242 37.913)" opacity="0.3">
        <line id="Линия_344" data-name="Линия 344" x2="3.469" transform="translate(0 1.735)" fill="none" stroke="#fff" stroke-linecap="round" stroke-linejoin="round" stroke-width="2.77"/>
        <line id="Линия_345" data-name="Линия 345" y1="3.469" transform="translate(1.735)" fill="none" stroke="#fff" stroke-linecap="round" stroke-linejoin="round" stroke-width="2.77"/>
      </g>
      <g id="Сгруппировать_14864" data-name="Сгруппировать 14864" transform="translate(34.381 16.287)" opacity="0.4">
        <line id="Линия_346" data-name="Линия 346" x2="4.112" transform="translate(0 2.056)" fill="none" stroke="#fff" stroke-linecap="round" stroke-linejoin="round" stroke-width="1.918"/>
        <line id="Линия_347" data-name="Линия 347" y1="4.112" transform="translate(2.056)" fill="none" stroke="#fff" stroke-linecap="round" stroke-linejoin="round" stroke-width="1.918"/>
      </g>
      <g id="Сгруппировать_14865" data-name="Сгруппировать 14865" transform="translate(103.369 0)" opacity="0.3">
        <line id="Линия_348" data-name="Линия 348" x2="3.469" transform="translate(0 1.735)" fill="none" stroke="#fff" stroke-linecap="round" stroke-linejoin="round" stroke-width="2.77"/>
        <line id="Линия_349" data-name="Линия 349" y1="3.469" transform="translate(1.735)" fill="none" stroke="#fff" stroke-linecap="round" stroke-linejoin="round" stroke-width="2.77"/>
      </g>
      <g id="Сгруппировать_14866" data-name="Сгруппировать 14866" transform="translate(23.592 56.603)">
        <line id="Линия_350" data-name="Линия 350" x2="2.444" transform="translate(0 1.222)" fill="none" stroke="#fff" stroke-linecap="round" stroke-linejoin="round" stroke-width="1.952"/>
        <line id="Линия_351" data-name="Линия 351" y1="2.444" transform="translate(1.222)" fill="none" stroke="#fff" stroke-linecap="round" stroke-linejoin="round" stroke-width="1.952"/>
      </g>
      <g id="Сгруппировать_14867" data-name="Сгруппировать 14867" transform="translate(154.331 16.621)" opacity="0.3">
        <line id="Линия_352" data-name="Линия 352" x2="1.735" transform="translate(0 0.867)" fill="none" stroke="#fff" stroke-linecap="round" stroke-linejoin="round" stroke-width="1.385"/>
        <line id="Линия_353" data-name="Линия 353" y1="1.735" transform="translate(0.867)" fill="none" stroke="#fff" stroke-linecap="round" stroke-linejoin="round" stroke-width="1.385"/>
      </g>
      <path id="Контур_16787" data-name="Контур 16787" d="M268.519,82.7a1.369,1.369,0,1,1-1.37-1.37A1.37,1.37,0,0,1,268.519,82.7Z" transform="translate(-194.419 -71.167)" fill="none" stroke="#fff" stroke-linecap="round" stroke-linejoin="round" stroke-width="1.609" opacity="0.7"/>
      <path id="Контур_16788" data-name="Контур 16788" d="M579.4,301.453a1.006,1.006,0,1,1-1.006-1.006A1.006,1.006,0,0,1,579.4,301.453Z" transform="translate(-397.666 -205.838)" fill="none" stroke="#fff" stroke-linecap="round" stroke-linejoin="round" stroke-width="1.182"/>
      <path id="Контур_16789" data-name="Контур 16789" d="M388.578,121.988a2.012,2.012,0,1,1-2.012-2.012A2.012,2.012,0,0,1,388.578,121.988Z" transform="translate(-271.997 -94.918)" fill="none" stroke="#fff" stroke-linecap="round" stroke-linejoin="round" stroke-width="2.364" opacity="0.7"/>
      <path id="Контур_16790" data-name="Контур 16790" d="M558.388,213a1.59,1.59,0,1,1-1.591-1.59A1.591,1.591,0,0,1,558.388,213Z" transform="translate(-384.032 -151.117)" fill="none" stroke="#fff" stroke-linecap="round" stroke-linejoin="round" stroke-width="0.693"/>
      <path id="Контур_16791" data-name="Контур 16791" d="M64.387,157.131a1.59,1.59,0,1,1-1.59-1.59A1.59,1.59,0,0,1,64.387,157.131Z" transform="translate(-60.911 -116.776)" fill="none" stroke="#fff" stroke-linecap="round" stroke-linejoin="round" stroke-width="0.693"/>
    </g>
  </g>
</svg>
