<svg xmlns="http://www.w3.org/2000/svg" width="40.003" height="40.003" viewBox="0 0 40.003 40.003">
  <g id="Сгруппировать_12588" data-name="Сгруппировать 12588" transform="translate(-42 -640)">
    <circle id="Эллипс_239" data-name="Эллипс 239" cx="20.001" cy="20.001" r="20.001" transform="translate(42 640)" fill="#f8fafb"/>
    <g id="Сгруппировать_12562" data-name="Сгруппировать 12562" transform="translate(52.986 650.036)">
      <path id="Прямоугольник_3465" data-name="Прямоугольник 3465" d="M0,0H.219a.8.8,0,0,1,.8.8v0a.875.875,0,0,1-.875.875H0a0,0,0,0,1,0,0V0A0,0,0,0,1,0,0Z" transform="translate(2.754 17.622) rotate(132.366)" fill="none" stroke="#19a49c" stroke-miterlimit="10" stroke-width="0.7"/>
      <rect id="Прямоугольник_3466" data-name="Прямоугольник 3466" width="6.802" height="1.492" transform="translate(6.448 11.623) rotate(-47.633)" fill="none" stroke="#19a49c" stroke-miterlimit="10" stroke-width="0.7"/>
      <rect id="Прямоугольник_3467" data-name="Прямоугольник 3467" width="2.924" height="11.397" rx="1.462" transform="matrix(0.674, -0.739, 0.739, 0.674, 7.373, 3.26)" fill="none" stroke="#19a49c" stroke-miterlimit="10" stroke-width="0.7"/>
      <rect id="Прямоугольник_3468" data-name="Прямоугольник 3468" width="2.267" height="9.069" rx="1.134" transform="translate(10.092 1.784) rotate(-47.633)" fill="none" stroke="#19a49c" stroke-miterlimit="10" stroke-width="0.7"/>
      <rect id="Прямоугольник_3469" data-name="Прямоугольник 3469" width="1.671" height="5.907" rx="0.835" transform="translate(12.855 1.234) rotate(-47.636)" fill="none" stroke="#19a49c" stroke-miterlimit="10" stroke-width="0.7"/>
      <path id="Прямоугольник_3470" data-name="Прямоугольник 3470" d="M0,0H.139a.875.875,0,0,1,.875.875v0a.8.8,0,0,1-.8.8H0a0,0,0,0,1,0,0V0A0,0,0,0,1,0,0Z" transform="translate(15.391 1.287) rotate(-47.632)" fill="none" stroke="#19a49c" stroke-miterlimit="10" stroke-width="0.7"/>
      <rect id="Прямоугольник_3471" data-name="Прямоугольник 3471" width="2.924" height="11.396" rx="1.462" transform="matrix(-0.674, 0.739, -0.739, -0.674, 11.169, 16.01)" fill="none" stroke="#19a49c" stroke-miterlimit="10" stroke-width="0.7"/>
      <rect id="Прямоугольник_3472" data-name="Прямоугольник 3472" width="2.267" height="9.069" rx="1.134" transform="translate(8.229 17.285) rotate(132.367)" fill="none" stroke="#19a49c" stroke-miterlimit="10" stroke-width="0.7"/>
      <rect id="Прямоугольник_3473" data-name="Прямоугольник 3473" width="1.671" height="5.907" rx="0.835" transform="translate(5.599 17.955) rotate(132.364)" fill="none" stroke="#19a49c" stroke-miterlimit="10" stroke-width="0.7"/>
    </g>
  </g>
</svg>
