<svg id="Icons" xmlns="http://www.w3.org/2000/svg" width="39.401" height="39.401" viewBox="0 0 39.401 39.401">
  <g id="Outlined" transform="translate(0 0)">
    <g id="Communication">
      <g id="Outlined-_-Communication-_-alternate_email" data-name="Outlined-/-Communication-/-alternate_email">
        <g id="Сгруппировать_12183" data-name="Сгруппировать 12183">
          <path id="Path" d="M0,0H39.4V39.4H0Z" fill="none" fill-rule="evenodd"/>
          <path id="_-Icon-Color" data-name="🔹-Icon-Color" d="M18.417,1.95a16.417,16.417,0,1,0,0,32.834h8.209V31.5H18.417A13.3,13.3,0,0,1,5.283,18.367,13.3,13.3,0,0,1,18.417,5.233,13.3,13.3,0,0,1,31.551,18.367v2.348a2.654,2.654,0,0,1-2.463,2.577,2.654,2.654,0,0,1-2.463-2.577V18.367a8.212,8.212,0,1,0-2.4,5.8,6.079,6.079,0,0,0,4.859,2.413,5.767,5.767,0,0,0,5.746-5.861V18.367A16.423,16.423,0,0,0,18.417,1.95Zm0,21.342a4.925,4.925,0,1,1,4.925-4.925A4.919,4.919,0,0,1,18.417,23.292Z" transform="translate(1.283 1.251)" fill="#fff" fill-rule="evenodd"/>
        </g>
      </g>
    </g>
  </g>
</svg>
