<svg xmlns="http://www.w3.org/2000/svg" xmlns:xlink="http://www.w3.org/1999/xlink" width="168.796" height="172.375" viewBox="0 0 168.796 172.375">
  <defs>
    <clipPath id="clip-path">
      <path id="Контур_10419" data-name="Контур 10419" d="M345.74,279.28v54.771c8,.162,15.22-.712,20.844-3.82,11.752-6.475,17.537-17.768,19.151-30.958a78.021,78.021,0,0,0-.361-19.993Z" transform="translate(-345.74 -279.28)" fill="none"/>
    </clipPath>
  </defs>
  <g id="Grand_slam-bro" data-name="Grand slam-bro" transform="translate(-68.285 -56.53)">
    <g id="freepik--background-simple--inject-213" transform="translate(68.285 71.801)">
      <path id="Контур_10346" data-name="Контур 10346" d="M236.6,197.289c3.658-29.848-14.05-69.52-32.411-85.9-33.141-29.6-60.677-23.855-82.09-13.264S97.622,144.086,82.832,160.1s-23.2,37.512-.763,58.934,40.536,10.54,63.993,9.18,54.572,9.337,71.384.037C229.2,221.754,234.983,210.465,236.6,197.289Z" transform="translate(-68.285 -89.55)" fill="#b0bec5"/>
      <path id="Контур_10347" data-name="Контур 10347" d="M236.6,197.289c3.658-29.848-14.05-69.52-32.411-85.9-33.141-29.6-60.677-23.855-82.09-13.264S97.622,144.086,82.832,160.1s-23.2,37.512-.763,58.934,40.536,10.54,63.993,9.18,54.572,9.337,71.384.037C229.2,221.754,234.983,210.465,236.6,197.289Z" transform="translate(-68.285 -89.55)" fill="#fff" opacity="0.7"/>
    </g>
    <g id="freepik--Cup--inject-213" transform="translate(98.177 56.53)">
      <g id="Сгруппировать_11017" data-name="Сгруппировать 11017" opacity="0.26">
        <path id="Контур_10348" data-name="Контур 10348" d="M183.565,179.892a2.215,2.215,0,0,1-.782-.139c-1.54-.569-9.365-3.58-11.9-7.131-2.826-3.954.032-11.876.634-13.412a2.262,2.262,0,0,1,4.213,1.633c-1.309,3.385-2.1,7.862-1.17,9.166,1.276,1.794,6.475,4.306,9.786,5.522a2.257,2.257,0,0,1-.782,4.375Z" transform="translate(-152.667 -110.997)" fill="#b0bec5"/>
        <path id="Контур_10349" data-name="Контур 10349" d="M183.055,179.679a2.659,2.659,0,0,1-.925-.171c-1.563-.573-9.5-3.635-12.117-7.3-2.965-4.162-.037-12.274.583-13.874a2.729,2.729,0,1,1,5.087,1.975c-1.387,3.543-1.961,7.7-1.23,8.727,1.1,1.531,5.823,3.973,9.573,5.351a2.724,2.724,0,0,1-.925,5.281Zm-9.939-22.139a1.79,1.79,0,0,0-1.674,1.142c-.587,1.508-3.376,9.25-.694,12.991,2.456,3.436,10.175,6.405,11.687,6.965a1.772,1.772,0,0,0,.62.111,1.8,1.8,0,0,0,.62-3.487c-3.117-1.152-8.593-3.7-10-5.684-1.165-1.633-.046-6.6,1.115-9.606a1.794,1.794,0,0,0-1.022-2.312,1.762,1.762,0,0,0-.647-.12Z" transform="translate(-152.157 -110.316)" fill="#fff"/>
        <path id="Контур_10350" data-name="Контур 10350" d="M155.939,222.6a2.407,2.407,0,0,1-.462-.042c-.888-.176-3.871-1.258-4.949-7.719-.615-3.7,1.952-5.55,3.829-6.937,2.28-1.674,3.658-2.682,2.562-6.341-2.382-7.936-6.243-14.5-12.644-25.381l-2.053-3.492c-7.9-13.477-7.992-21.154-7.992-21.473a2.262,2.262,0,0,1,4.518,0c0,.143.227,7.011,7.372,19.207l2.049,3.487c6.572,11.169,10.535,17.912,13.074,26.361,2.016,6.711-1.887,9.569-4.218,11.28-1.85,1.387-2.174,1.753-2.04,2.553.523,3.14,1.461,3.968,1.642,4.1a2.257,2.257,0,0,1-.708,4.4ZM156.4,218.132Zm0,0Zm0,0ZM138.748,151.22Z" transform="translate(-133.624 -106.267)" fill="#b0bec5"/>
        <path id="Контур_10351" data-name="Контур 10351" d="M155.417,222.477a2.606,2.606,0,0,1-.541-.042c-.962-.19-4.19-1.341-5.314-8.093-.661-3.963,2.151-6.012,4.01-7.4,2.261-1.656,3.395-2.488,2.4-5.832-2.368-7.89-6.22-14.434-12.6-25.279l-2.053-3.492c-7.964-13.588-8.056-21.385-8.056-21.709a2.724,2.724,0,0,1,5.443-.1.36.36,0,0,1,0,.1v.065c.046.814.661,7.557,7.3,18.888l2.049,3.487c6.586,11.2,10.563,17.958,13.116,26.477,2.109,7.025-2.114,10.124-4.384,11.789-1.878,1.387-1.942,1.609-1.85,2.1.462,2.733,1.221,3.589,1.415,3.765a2.724,2.724,0,0,1-.925,5.281Zm-19.424-73.65a1.8,1.8,0,0,0-1.794,1.8c0,.314.088,7.862,7.927,21.237l2.053,3.5c6.415,10.9,10.286,17.486,12.686,25.483,1.189,3.968-.462,5.175-2.733,6.845-1.878,1.387-4.213,3.085-3.644,6.475,1.027,6.165,3.765,7.173,4.583,7.335a1.773,1.773,0,0,0,.351.037,1.794,1.794,0,0,0,.564-3.5.626.626,0,0,1-.1-.046h-.171l-.06-.023a.462.462,0,0,1-.259-.416v-.032a9.263,9.263,0,0,1-1.387-3.922c-.19-1.124.425-1.683,2.225-3,2.377-1.743,5.966-4.375,4.047-10.776-2.52-8.408-6.475-15.132-13.028-26.269l-2.049-3.487c-7.187-12.256-7.432-19.142-7.437-19.424a1.8,1.8,0,0,0-1.781-1.813Z" transform="translate(-133.103 -105.674)" fill="#fff"/>
        <circle id="Эллипс_61" data-name="Эллипс 61" cx="12.2" cy="12.2" r="12.2" transform="translate(0.472 32.753)" fill="#b0bec5"/>
        <path id="Контур_10352" data-name="Контур 10352" d="M145.592,151.665A12.667,12.667,0,1,1,158.255,139,12.667,12.667,0,0,1,145.592,151.665Zm0-24.4A11.738,11.738,0,1,0,157.33,139,11.738,11.738,0,0,0,145.592,127.264Z" transform="translate(-132.92 -94.049)" fill="#fff"/>
        <circle id="Эллипс_62" data-name="Эллипс 62" cx="8.584" cy="8.584" r="8.584" transform="translate(1.387 49.418) rotate(-66.58)" fill="#b0bec5"/>
        <path id="Контур_10353" data-name="Контур 10353" d="M149.8,152.251a9.051,9.051,0,1,1,9.051-9.046A9.051,9.051,0,0,1,149.8,152.251Zm0-17.167a8.121,8.121,0,1,0,8.121,8.121A8.121,8.121,0,0,0,149.8,135.084Z" transform="translate(-137.129 -98.252)" fill="#fff"/>
        <circle id="Эллипс_63" data-name="Эллипс 63" cx="2.974" cy="2.974" r="2.974" transform="translate(9.698 41.979)" fill="#b0bec5"/>
        <path id="Контур_10354" data-name="Контур 10354" d="M156.321,153.162a3.441,3.441,0,1,1,3.441-3.436A3.441,3.441,0,0,1,156.321,153.162Zm0-5.947a2.511,2.511,0,1,0,2.511,2.511A2.511,2.511,0,0,0,156.321,147.214Z" transform="translate(-143.649 -104.773)" fill="#fff"/>
        <path id="Контур_10355" data-name="Контур 10355" d="M315.964,179.787a2.215,2.215,0,0,0,.782-.139c1.54-.569,9.365-3.58,11.9-7.131,2.826-3.954-.032-11.876-.638-13.412a2.257,2.257,0,0,0-4.209,1.633c1.309,3.385,2.1,7.862,1.17,9.166-1.281,1.794-6.475,4.306-9.786,5.522a2.257,2.257,0,0,0,.782,4.375Z" transform="translate(-230.095 -110.891)" fill="#b0bec5"/>
        <path id="Контур_10356" data-name="Контур 10356" d="M315.438,179.69a2.724,2.724,0,0,1-.925-5.281c3.751-1.387,8.477-3.82,9.569-5.351.735-1.022.148-5.184-1.226-8.727a2.729,2.729,0,1,1,5.087-1.975c.615,1.591,3.543,9.712.583,13.874-2.613,3.663-10.554,6.724-12.122,7.3A2.612,2.612,0,0,1,315.438,179.69Zm9.939-22.139a1.762,1.762,0,0,0-.648.12,1.8,1.8,0,0,0-1.027,2.312c1.165,3.006,2.28,7.973,1.119,9.606-1.415,2-6.882,4.542-10,5.7a1.794,1.794,0,0,0-1.064,2.312,1.822,1.822,0,0,0,2.312,1.064c1.522-.56,9.226-3.529,11.682-6.965,2.687-3.76-.1-11.483-.689-12.991A1.8,1.8,0,0,0,325.377,157.551Z" transform="translate(-229.57 -110.327)" fill="#fff"/>
        <path id="Контур_10357" data-name="Контур 10357" d="M330.331,222.6a2.441,2.441,0,0,0,.463-.042c.888-.176,3.871-1.258,4.948-7.719.615-3.7-1.956-5.55-3.829-6.937-2.28-1.674-3.658-2.682-2.562-6.341,2.382-7.936,6.243-14.5,12.644-25.381l2.053-3.492c7.9-13.477,7.992-21.154,7.992-21.473a2.261,2.261,0,0,0-4.518,0c0,.143-.227,7.011-7.372,19.207l-2.049,3.487c-6.572,11.169-10.54,17.912-13.079,26.361-2.012,6.711,1.892,9.569,4.218,11.28,1.873,1.387,2.178,1.753,2.044,2.553-.523,3.14-1.466,3.968-1.642,4.1a2.257,2.257,0,0,0,.708,4.4Zm-.463-4.472Zm0,0ZM329.869,218.132Zm17.616-66.911Z" transform="translate(-235.879 -106.267)" fill="#b0bec5"/>
        <path id="Контур_10358" data-name="Контур 10358" d="M329.8,222.476a2.724,2.724,0,0,1-.925-5.282c.19-.176.962-1.031,1.415-3.765.083-.49,0-.726-1.85-2.1-2.271-1.665-6.5-4.764-4.389-11.789,2.558-8.519,6.535-15.262,13.121-26.477l2.049-3.487c6.632-11.312,7.252-18.037,7.3-18.892v-.06a.307.307,0,0,1,0-.1,2.724,2.724,0,0,1,5.443.1c0,.324-.092,8.121-8.056,21.709l-2.053,3.492c-6.378,10.845-10.23,17.389-12.6,25.279-1,3.344.134,4.162,2.391,5.832,1.85,1.364,4.676,3.427,4.014,7.4-1.128,6.752-4.352,7.9-5.319,8.093A2.53,2.53,0,0,1,329.8,222.476ZM329.34,218l-.1.046a1.794,1.794,0,0,0,.564,3.5,1.816,1.816,0,0,0,.352-.037c.814-.162,3.557-1.17,4.583-7.335.564-3.4-1.767-5.115-3.644-6.475-2.28-1.67-3.922-2.877-2.733-6.845,2.4-8,6.271-14.582,12.686-25.483l2.053-3.5c7.862-13.37,7.927-20.923,7.927-21.237a1.794,1.794,0,0,0-3.589,0c0,.3-.25,7.182-7.437,19.424l-2.049,3.487c-6.553,11.136-10.508,17.861-13.033,26.269-1.919,6.4,1.674,9.032,4.051,10.776,1.8,1.318,2.414,1.878,2.225,3a8.824,8.824,0,0,1-1.387,3.922.07.07,0,0,1,0,.032.462.462,0,0,1-.259.416h-.116a.387.387,0,0,1-.1,0h0Z" transform="translate(-235.351 -105.672)" fill="#fff"/>
        <circle id="Эллипс_64" data-name="Эллипс 64" cx="12.2" cy="12.2" r="12.2" transform="translate(91.895 32.753)" fill="#b0bec5"/>
        <path id="Контур_10359" data-name="Контур 10359" d="M343.272,151.665A12.667,12.667,0,1,1,355.935,139,12.667,12.667,0,0,1,343.272,151.665Zm0-24.4A11.738,11.738,0,1,0,355.005,139,11.738,11.738,0,0,0,343.272,127.264Z" transform="translate(-239.177 -94.049)" fill="#fff"/>
        <circle id="Эллипс_65" data-name="Эллипс 65" cx="8.584" cy="8.584" r="8.584" transform="translate(91.971 44.311) rotate(-42.02)" fill="#b0bec5"/>
        <path id="Контур_10360" data-name="Контур 10360" d="M347.475,152.251a9.051,9.051,0,1,1,9.046-9.048A9.051,9.051,0,0,1,347.475,152.251Zm0-17.167a8.121,8.121,0,1,0,8.121,8.121,8.121,8.121,0,0,0-8.121-8.121Z" transform="translate(-243.381 -98.252)" fill="#fff"/>
        <path id="Контур_10361" data-name="Контур 10361" d="M351.56,150.263a2.978,2.978,0,1,1,2.978,2.974A2.978,2.978,0,0,1,351.56,150.263Z" transform="translate(-250.444 -105.31)" fill="#b0bec5"/>
        <path id="Контур_10362" data-name="Контур 10362" d="M354,153.162a3.441,3.441,0,1,1,3.436-3.436A3.441,3.441,0,0,1,354,153.162Zm0-5.947a2.511,2.511,0,1,0,2.511,2.511A2.511,2.511,0,0,0,354,147.214Z" transform="translate(-249.901 -104.773)" fill="#fff"/>
        <rect id="Прямоугольник_3115" data-name="Прямоугольник 3115" width="12.024" height="54.11" transform="translate(52.801 107.411)" fill="#b0bec5"/>
        <path id="Контур_10363" data-name="Контур 10363" d="M258.577,342.815H246.552a.462.462,0,0,1-.462-.462v-54.11a.462.462,0,0,1,.462-.463h12.024a.463.463,0,0,1,.463.463v54.11A.462.462,0,0,1,258.577,342.815Zm-11.562-.925h11.1V288.7h-11.1Z" transform="translate(-193.751 -180.832)" fill="#fff"/>
        <path id="Контур_10364" data-name="Контур 10364" d="M240.147,104.27H256.5a1.942,1.942,0,0,1,1.942,1.942v56.94H238.2v-56.94a1.942,1.942,0,0,1,1.947-1.942Z" transform="translate(-189.51 -82.191)" fill="#b0bec5"/>
        <path id="Контур_10365" data-name="Контур 10365" d="M257.919,163.115H237.662a.462.462,0,0,1-.462-.462V106.23a2.9,2.9,0,0,1,2.9-2.9h15.368a2.9,2.9,0,0,1,2.9,2.9v56.418A.462.462,0,0,1,257.919,163.115Zm-19.776-.925h19.313V106.23a1.975,1.975,0,0,0-1.975-1.97H240.1a1.97,1.97,0,0,0-1.97,1.97Z" transform="translate(-188.973 -81.686)" fill="#fff"/>
        <rect id="Прямоугольник_3116" data-name="Прямоугольник 3116" width="30.926" height="4.713" transform="translate(43.348 25.506)" fill="#b0bec5"/>
        <path id="Контур_10366" data-name="Контур 10366" d="M257.043,116.318H226.112a.462.462,0,0,1-.462-.462v-4.713a.462.462,0,0,1,.462-.462h30.931a.462.462,0,0,1,.462.462v4.713A.462.462,0,0,1,257.043,116.318Zm-30.468-.925h30V111.61h-30Z" transform="translate(-182.764 -85.637)" fill="#fff"/>
        <path id="Контур_10367" data-name="Контур 10367" d="M197.475,168.34H248.44a6.475,6.475,0,0,1,6.475,6.475v54.526a20.728,20.728,0,0,1-20.728,20.728H211.719A20.728,20.728,0,0,1,191,229.341V174.81A6.475,6.475,0,0,1,197.475,168.34Z" transform="translate(-164.139 -116.63)" fill="#b0bec5"/>
        <path id="Контур_10368" data-name="Контур 10368" d="M228.386,249.989H216.458A26.5,26.5,0,0,1,190,223.517v-47.6a8.6,8.6,0,0,1,8.584-8.588h47.668a8.6,8.6,0,0,1,8.588,8.588v47.6A26.5,26.5,0,0,1,228.386,249.989ZM198.574,168.26a7.663,7.663,0,0,0-7.649,7.659v47.6a25.57,25.57,0,0,0,25.538,25.543h11.923a25.57,25.57,0,0,0,25.543-25.543v-47.6a7.668,7.668,0,0,0-7.659-7.659Z" transform="translate(-163.602 -116.087)" fill="#fff"/>
        <path id="Контур_10369" data-name="Контур 10369" d="M254.642,296.58A27.49,27.49,0,0,1,234.547,317.7c6.308-3.385,11.076-11.368,12.394-21.121h-.971c-1.545,11.28-7.788,20.067-15.576,21.69,3.237-2.978,5.7-11.335,6.354-21.69h-1.082c-.74,12.515-3.991,21.968-7.862,21.968s-7.136-9.453-7.862-21.968H218.86c.652,10.355,3.131,18.712,6.354,21.69-7.788-1.623-14.036-10.41-15.576-21.69h-.971c1.318,9.754,6.086,17.736,12.394,21.121a27.485,27.485,0,0,1-20.136-21.121H200a28.3,28.3,0,0,0,55.544,0Z" transform="translate(-168.977 -185.562)" fill="#fff"/>
        <path id="Контур_10370" data-name="Контур 10370" d="M197.825,143.66h53.953a3.385,3.385,0,0,1,3.385,3.385v5.291H194.44v-5.282a3.385,3.385,0,0,1,3.385-3.395Z" transform="translate(-165.988 -103.364)" fill="#b0bec5"/>
        <path id="Контур_10371" data-name="Контур 10371" d="M254.626,152.256H193.9a.462.462,0,0,1-.462-.462v-4.431a4.722,4.722,0,0,1,4.717-4.713h52.218a4.722,4.722,0,0,1,4.713,4.713v4.431A.462.462,0,0,1,254.626,152.256Zm-60.261-.925h59.8v-3.963a3.792,3.792,0,0,0-3.788-3.783H198.153a3.788,3.788,0,0,0-3.788,3.783Z" transform="translate(-165.451 -102.821)" fill="#fff"/>
        <path id="Контур_10372" data-name="Контур 10372" d="M210.3,400.49h42.641a3.168,3.168,0,0,1,3.168,3.168v4.7H207.12v-4.694a3.168,3.168,0,0,1,3.182-3.173Z" transform="translate(-172.804 -241.416)" fill="#b0bec5"/>
        <path id="Контур_10373" data-name="Контур 10373" d="M255.577,408.292H206.582a.462.462,0,0,1-.462-.462v-3.89a4.444,4.444,0,0,1,4.44-4.44H251.6a4.449,4.449,0,0,1,4.44,4.44v3.89A.462.462,0,0,1,255.577,408.292Zm-48.533-.925H255.11V403.94a3.51,3.51,0,0,0-3.51-3.51H210.56a3.515,3.515,0,0,0-3.515,3.51Z" transform="translate(-172.267 -240.884)" fill="#fff"/>
        <rect id="Прямоугольник_3117" data-name="Прямоугольник 3117" width="55.317" height="7.867" transform="translate(31.153 164.046)" fill="#b0bec5"/>
        <path id="Контур_10374" data-name="Контур 10374" d="M255.06,419.037H199.742a.462.462,0,0,1-.462-.462v-7.862a.462.462,0,0,1,.462-.463H255.06a.462.462,0,0,1,.462.463v7.862A.462.462,0,0,1,255.06,419.037Zm-54.85-.925H254.6v-6.937H200.21Z" transform="translate(-168.59 -246.662)" fill="#fff"/>
        <rect id="Прямоугольник_3118" data-name="Прямоугольник 3118" width="69.774" height="16.894" transform="translate(23.924 47.598)" fill="#b0bec5"/>
        <path id="Контур_10375" data-name="Контур 10375" d="M253.891,176.279H184.112a.462.462,0,0,1-.462-.462v-16.9a.462.462,0,0,1,.462-.462h69.779a.463.463,0,0,1,.462.462v16.9A.463.463,0,0,1,253.891,176.279Zm-69.316-.925h68.849V159.38H184.575Z" transform="translate(-160.188 -111.314)" fill="#fff"/>
        <rect id="Прямоугольник_3119" data-name="Прямоугольник 3119" width="69.774" height="11.349" transform="translate(23.924 50.373)" fill="#b0bec5"/>
        <path id="Контур_10376" data-name="Контур 10376" d="M253.891,176.729H184.112a.462.462,0,0,1-.462-.462V164.912a.462.462,0,0,1,.462-.462h69.779a.462.462,0,0,1,.462.462v11.354A.463.463,0,0,1,253.891,176.729Zm-69.316-.925h68.849V165.375H184.575Z" transform="translate(-160.188 -114.539)" fill="#fff"/>
        <ellipse id="Эллипс_66" data-name="Эллипс 66" cx="5.346" cy="10.693" rx="5.346" ry="10.693" transform="translate(53.467 0.462)" fill="#b0bec5"/>
        <path id="Контур_10377" data-name="Контур 10377" d="M253.333,78.84c-3.237,0-5.813-4.9-5.813-11.155s2.534-11.155,5.813-11.155,5.809,4.9,5.809,11.155S256.589,78.84,253.333,78.84Zm0-21.385c-2.645,0-4.884,4.685-4.884,10.23s2.238,10.23,4.884,10.23,4.884-4.685,4.884-10.23S255.979,57.455,253.333,57.455Z" transform="translate(-194.52 -56.53)" fill="#fff"/>
        <path id="Контур_10378" data-name="Контур 10378" d="M258.153,363.49c-.523-5.328-5.661-9.49-11.937-9.49s-11.419,4.162-11.937,9.5Z" transform="translate(-187.403 -216.426)" fill="#b0bec5"/>
        <path id="Контур_10379" data-name="Контур 10379" d="M257.613,363.393H233.74a.468.468,0,0,1-.462-.509c.546-5.55,5.989-9.925,12.4-9.925s11.853,4.361,12.394,9.925a.461.461,0,0,1-.458.509Zm-23.346-.925h22.819c-.772-4.865-5.675-8.565-11.409-8.565s-10.637,3.7-11.409,8.561Z" transform="translate(-186.863 -215.867)" fill="#fff"/>
        <path id="Контур_10380" data-name="Контур 10380" d="M254.178,295.545a28.021,28.021,0,0,0,.754-4.065H191.36a27.412,27.412,0,0,0,.754,4.065Z" transform="translate(-164.333 -182.821)" fill="#b0bec5"/>
        <path id="Контур_10381" data-name="Контур 10381" d="M253.627,295.465h-62.06a.463.463,0,0,1-.462-.347,28.25,28.25,0,0,1-.768-4.13.468.468,0,0,1,.463-.518h63.582a.469.469,0,0,1,.462.518,28.25,28.25,0,0,1-.768,4.13A.462.462,0,0,1,253.627,295.465Zm-61.7-.925h61.343a26.652,26.652,0,0,0,.592-3.14H191.331A26.646,26.646,0,0,0,191.923,294.54Z" transform="translate(-163.781 -182.278)" fill="#fff"/>
      </g>
    </g>
    <g id="freepik--Character--inject-213" transform="translate(83.295 100.22)">
      <ellipse id="Эллипс_67" data-name="Эллипс 67" cx="38.534" cy="2.155" rx="38.534" ry="2.155" transform="translate(26.236 109.729)" fill="#263238"/>
      <path id="Контур_10382" data-name="Контур 10382" d="M172.338,201.89a26.5,26.5,0,0,0-5.036.462c-1.757.462-16.737,5.619-17.112,5.619s-3.982-1.387-4.449-1.387-2.692,1.17-2.46,2.22,2.576,2.7,3.279,3.163,4.565-1.387,4.565-1.387,11.59-.819,14.281-1.387,5.971-.925,5.971-.925Z" transform="translate(-123.598 -178.354)" fill="#ffbe9d"/>
      <path id="Контур_10383" data-name="Контур 10383" d="M126.492,184.39l-8.089-9.86-1.952-6.683a.462.462,0,0,0-.162-.227,10.335,10.335,0,0,0-.2-1.535,22.8,22.8,0,0,0-3.39-7.594c-3.658-5.55-8.362-8.644-10.7-7.094s-1.313,7.094,2.345,12.626A22.814,22.814,0,0,0,110,170.109c.282.194.56.365.832.523l6.632,4.976,7.941,9.675a.7.7,0,0,0,.541.254.717.717,0,0,0,.462-.157A.7.7,0,0,0,126.492,184.39Zm-11.9-15,.624-.125a2.526,2.526,0,0,1-.264.62Zm-12.852-13.93c-.032-.236-.051-.462-.06-.684l.4-.079.5.689-.782.157Zm.1.62c-.032-.176-.06-.342-.083-.509.037.166.037.333.083.513Zm10.332,10-.5-.689.782-.162.5.689Zm1.008.153.5.689-.782.157-.5-.689Zm-1.744-1.156-.5-.666.782-.157.5.689Zm-4.838-7.862.5.689-.782.157-.509-.689Zm-1.013-.153-.5-.689.782-.157.5.689Zm4.394,6.012-.509-.689.782-.162.509.689Zm1.008.153.5.689-.786.157-.5-.689Zm-1.739-1.128-.509-.689.782-.157.509.689Zm-.735-1-.5-.689.782-.157.5.689Zm-.708-1.017-.5-.689.782-.157.5.689Zm-.731-1-.509-.689.791-.157.5.689Zm-.379.074-.782.162-.509-.689.782-.162Zm.227.314.5.689-.782.153-.5-.689Zm.731,1,.5.684-.782.162-.5-.689Zm.731,1,.509.689-.782.162-.509-.689Zm.731,1,.509.689-.786.153-.5-.689Zm.735,1,.5.684-.782.162-.5-.689Zm.731,1,.5.689-.782.162-.5-.689Zm.809-1.309.782-.162.5.689-.782.162Zm-.227-.314-.509-.689.786-.157.5.689Zm-.731-1-.509-.689L110.7,161l.509.689Zm-.777-.994-.462-.689.786-.162.5.689Zm-.731-1-.5-.689L109.2,159l.5.689Zm-.712-.98-.5-.684.786-.162.5.689Zm-.731-1-.5-.689.782-.162.5.689Zm-.735-1-.5-.689.782-.153.5.684Zm-.731-1-.5-.7.782-.162.5.689Zm-.379.079-.782.157-.5-.689.782-.157Zm-1.531-.865-.462-.684.786-.162.5.689Zm.352,1.078-.782.162-.495-.689.782-.162Zm.231.314.5.689-.782.153-.5-.689Zm.726,1,.509.689-.782.157-.509-.689Zm.079,1.924-.782.157-.509-.689.782-.157Zm.227.314.5.684-.782.157-.5-.684Zm.731.994.5.689-.786.162-.5-.689Zm.731,1,.509.689-.791.157-.481-.689Zm.731,1,.5.684-.782.157-.5-.689Zm.735.994.5.689-.782.162-.5-.689Zm.731,1,.5.689-.782.157-.481-.675Zm.74,1,.5.684-.786.157-.5-.689Zm.379-.083.782-.157.5.689-.782.157Zm1.512.846.5.684-.782.162-.5-.689Zm.735,1,.5.689-.782.157-.495-.666Zm.731,1,.5.689-.782.157-.5-.689Zm.379-.074.782-.162.5.689-.782.162Zm-.231-.315-.5-.689.782-.153.5.689Zm-.074-1.919.786-.162.5.689-.786.162Zm-.227-.314-.5-.689.782-.157.509.689Zm-.731-1-.5-.689.782-.153.509.689Zm-.074-1.919.782-.157.5.689-.782.157Zm-.227-.314-.509-.684.786-.162.5.689Zm-.731-1-.509-.689.786-.157.5.689Zm-.735-1-.5-.689.782-.157.5.689Zm-.708-1-.5-.684.782-.162.5.689Zm-.069-1.924.782-.153.5.689-.782.153Zm.12.768-.782.157-.513-.671.782-.157Zm-1.512-.842-.5-.689.782-.157.49.712Zm-.735-1-.5-.684.782-.162.5.689Zm-.745-.98-.5-.689.782-.157.5.684Zm-.731-1-.49-.7.782-.157.5.689Zm-.379.074-.782.162-.5-.689.786-.162Zm-1.5-.856-.5-.689.782-.153.5.689Zm-.379.079-.782.157-.5-.689.782-.157Zm-.43,1.235-.782.157-.5-.689.782-.157Zm-.925.546.5.689-.782.157-.5-.689Zm.726,1,.5.684-.782.162-.5-.689Zm.731.994.509.689-.786.162-.5-.689Zm.079,1.924-.782.162-.509-.689.782-.157Zm-1.161.236h-.083l-.139-.319Zm.028.259-.042-.088Zm.2.055.5.689-.3.06c-.125-.241-.245-.462-.356-.717Zm.375-.074.786-.162.5.689-.786.162Zm1.517.837.5.689-.782.157-.5-.689Zm.731,1,.5.684-.786.162-.518-.684Zm.731,1,.5.689-.782.153-.5-.68Zm.735,1,.5.689-.782.157-.5-.689Zm.069,1.924-.6.12c-.185-.217-.365-.462-.546-.68l.643-.129Zm-.12-.763.782-.157.5.684-.782.162Zm1.512.842.5.689-.786.153-.5-.684Zm.731,1,.5.689-.782.157-.5-.689Zm.379-.074.782-.162.5.689-.782.157Zm1.517.842.5.689-.782.157-.5-.689Zm.731,1,.5.68-.782.162-.5-.689ZM112.1,170.2c-.148-.065-.3-.134-.462-.213l.254-.051Zm.185-.338.782-.162.634.874a1.7,1.7,0,0,0,.393-.06l-.647-.888.782-.157.509.694a1.325,1.325,0,0,1-.19.171,2.2,2.2,0,0,1-1.85.083Zm.259.509-.134-.042Zm2.816-1.771-.324-.462.351-.069q-.023.291-.046.532Zm0,0v0Zm-.079.462v.042Zm.1-1.355-.578.111-.532-.666.782-.153.264.356a3.6,3.6,0,0,1,.046.375Zm-.194-1.457c.023.116.037.222.055.333h0l-.509-.689.356-.074a2.511,2.511,0,0,0,.079.439Zm-.185-.768-.495.1L114,164.9l.782-.162c.06.273.139.523.2.768Zm-1.23-.9-.5-.689.782-.157.509.689Zm.49-1.249h-.06l-.5-.684.254-.055c.213.462.4.925.564,1.387-.1-.19-.18-.4-.273-.624Zm-.791-.985-.5-.689.462-.1q.19.361.361.721Zm-.2-1.11-.532.106-.5-.689.643-.13c.12.259.25.5.375.735Zm-.967-1.67q.2.319.388.638h0c.046.079.093.153.134.231l-.134-.231-.684.139-.513-.661.758-.157Zm-.375-.587c.069.1.134.208.2.31-.065-.1-.13-.208-.2-.31l-.268-.393a4.3,4.3,0,0,0,.25.416Zm.125.2-.782.162-.5-.689.782-.157Zm-1.989-2.641h0l.037.042h0c.1.116.2.24.3.365-.1-.12-.2-.245-.3-.365l.462.647-.782.157-.5-.684.777-.162-.13-.153Zm-.86-.971h0c.19.2.379.412.569.634l.032.032-.745.153-.5-.689.647-.13-.268-.287Zm-.925-.953c.2.19.412.393.62.606l.046.046-.6.116-.523-.694.425-.083ZM107.2,153.7h0l.708.592h.028l-.338.069-.5-.684Zm-1.281-.888h0c.06.037.12.069.185.116h0c.157.1.314.2.462.314-.162-.111-.319-.217-.462-.31l.407.55-.782.157-.5-.684.694-.139c-.157-.093-.305-.18-.462-.254a2.4,2.4,0,0,1,.439.217Zm-.925-.171-.31-.421a6.378,6.378,0,0,1,.749.328Zm-.9-.624.49.666-.786.157-.629-.883a1.647,1.647,0,0,1,.268-.028A2.969,2.969,0,0,1,104.1,152.017Zm-1.6.162a1.263,1.263,0,0,1,.287-.139l.643.879-.786.157-.462-.61a1.387,1.387,0,0,1,.328-.287Zm-.513.592.277.379-.462.093a2.7,2.7,0,0,1,.194-.472Zm-.273.856h0l.777-.153.5.689-.782.157-.5-.684a.358.358,0,0,0,0,.069.591.591,0,0,0,.009-.079Zm-.051.523.176.24-.18.037c.009-.093.009-.19.014-.277Zm.19,2.081.287.388-.19.042c.028.111.051.213.079.328-.06-.264-.116-.513-.166-.758Zm.513.7.5.689-.615.12c-.083-.25-.162-.5-.222-.745Zm0,1.147.731-.143.509.689-.786.153-.393-.536a1.3,1.3,0,0,0-.051-.162Zm.425,1.115v-.06a.231.231,0,0,1,.009.06Zm.814,1.734c0,.046.051.092.074.143Zm.167.314.361-.069.5.684-.462.1c-.139-.241-.264-.476-.389-.712Zm.578,1.031.513-.106.5.689-.583.12c-.139-.236-.282-.467-.421-.7Zm.763,1.23-.217-.342.083.129.615-.12.5.689-.647.13c-.106-.162-.217-.319-.328-.5Zm.55.8.661-.13.5.68-.652.139c-.167-.227-.333-.453-.5-.689Zm1.332,1.716Zm.231.264.564-.111.5.689-.462.093c-.194-.231-.393-.444-.592-.671Zm1.559,1.623c-.227-.208-.462-.425-.671-.652l.407-.088.5.689Zm.319.3.148-.032.305.421Zm.546-.093.786-.157.5.684-.782.162Zm1.545,1.623h0l-.171-.125h0a.37.37,0,0,0-.148-.06l-.291-.176.111.074-.134-.083-.079-.06.079.056h0l-.185-.254.782-.157.5.689-.462.092h0Zm2.423,1.8a2.447,2.447,0,0,0,2.433-1.734l1.054,3.6a.721.721,0,0,0-.412.157.764.764,0,0,0-.157.19l-2.946-2.211Z" transform="translate(-100.741 -150.998)" fill="#263238"/>
      <path id="Контур_10384" data-name="Контур 10384" d="M144.327,215.47a5.565,5.565,0,0,1,2.345.116c.7.352,2.692,2.109,2.1,2.46s-1.17,1.286-1.873,1.17a9.3,9.3,0,0,1-3.043-2.34" transform="translate(-123.919 -185.612)" fill="#fff" stroke="#263238" stroke-linecap="round" stroke-linejoin="round" stroke-width="1"/>
      <path id="Контур_10385" data-name="Контур 10385" d="M148.061,214.8a10.54,10.54,0,0,1-2.7.583c-1.05,0-2.1.925-1.637,1.175a6.49,6.49,0,0,0,2.225,0s1.989,1.637,3.746.116" transform="translate(-123.786 -185.293)" fill="#fff" stroke="#263238" stroke-linecap="round" stroke-linejoin="round" stroke-width="1"/>
      <path id="Контур_10386" data-name="Контур 10386" d="M294.781,210.88a61.292,61.292,0,0,1,5.124,4.417c1.332,2.09-.578,8.838-1.272,11.9-.629,2.775-1.72,6.4-1.563,6.632s2.682,2.132,2.84,3.154.314,2.211,0,2.447-.462-.629-.555-1.105a3.88,3.88,0,0,0-.462-1.1s-.314,2.285-.314,2.6-.712,1.263-.948,1.263-.157-1.1-.157-1.341-.079-2.127-.079-2.127a28.427,28.427,0,0,1-.634,2.84c-.171.315-.865,1.577-1.258,1.027s.079-1.184.157-1.739.2-2.2.2-2.2-.823,1.739-.98,2.132-1.013,1.332-1.276,1.1.032-.962.388-1.762a5.7,5.7,0,0,0,.092-1.688s-.874-2.15-1.346-2.15a16.636,16.636,0,0,0-3.08,1.263c-.712.338-1.577.079-1.1-.236a21.8,21.8,0,0,0,1.97-1.656,6.937,6.937,0,0,1,1.5-1.184c.393-.157,2.359-.842,2.359-.842s0-8.149-.074-10.045c-.046-1.175-.042-2.474-.028-3.293a1.624,1.624,0,0,0-.647-1.309l-1.3-.994S290.36,212.064,294.781,210.88Z" transform="translate(-201.625 -183.186)" fill="#ffbe9d"/>
      <path id="Контур_10387" data-name="Контур 10387" d="M304.382,267.083a3.7,3.7,0,0,0-.092-1.253" transform="translate(-210.153 -212.723)" fill="none"/>
      <path id="Контур_10388" data-name="Контур 10388" d="M307.762,267.157a11.761,11.761,0,0,0-.032-1.327" transform="translate(-212.002 -212.723)" fill="none"/>
      <path id="Контур_10389" data-name="Контур 10389" d="M310.753,266.7a1.651,1.651,0,0,0-.213-.99" transform="translate(-213.513 -212.658)" fill="none"/>
      <path id="Контур_10390" data-name="Контур 10390" d="M197.343,357.442s-3.469-.869-4.653.315.393,3.159,0,4.579-.712,4.1-.319,5.124,1.9,4.259,3,3.63,1.341-3.63,1.341-5.286.393-4.5.865-4.888A2.73,2.73,0,0,0,197.343,357.442Z" transform="translate(-149.898 -261.801)" fill="#b0bec5"/>
      <path id="Контур_10391" data-name="Контур 10391" d="M217.911,310.058s-2.446,7.728-2.6,8.676a5.476,5.476,0,0,1-.393,1.42s-5.286,2.525-6.785,4.338-3.7,4.574-4.814,5.286a12.779,12.779,0,0,0-3.076,2.6c-.629.865-.254,4.851.712,4.162,1.813-1.263,9.781-6.937,14.591-9.467,2.978-1.563,7.654-4.417,8.755-6.012s2.84-8.838,3.473-10.887S219.331,308.874,217.911,310.058Z" transform="translate(-154.058 -235.871)" fill="#ffbe9d"/>
      <path id="Контур_10392" data-name="Контур 10392" d="M205.868,348.49a15.91,15.91,0,0,1-2.553,2.571,12.778,12.778,0,0,0-3.075,2.6c-.629.865-.254,4.851.712,4.162,1.041-.726,4.125-2.918,7.474-5.129C205.73,352.823,205.707,349.947,205.868,348.49Z" transform="translate(-154.058 -257.154)" fill="#263238" stroke="#263238" stroke-linecap="round" stroke-linejoin="round" stroke-width="1"/>
      <path id="Контур_10393" data-name="Контур 10393" d="M226.717,262.391a38.72,38.72,0,0,0-.717,6.627c0,3.154,5.124,11.437,5.439,11.83s-.462,3.866-.462,3.866.462,1.263,3.7,1.734a28.536,28.536,0,0,0,7.571-.314s3.473-6.863,5.05-11.2,2.127-13.333,2.127-13.333a25.949,25.949,0,0,1-8.833,1.42,126.611,126.611,0,0,1-13.093-1.027S226.8,261.836,226.717,262.391Z" transform="translate(-168.071 -210.449)" fill="#989cae"/>
      <path id="Контур_10394" data-name="Контур 10394" d="M218.855,188.671s-5.855-1.175-8.667.116-3.274,1.85-3.977,2.807a30.123,30.123,0,0,1-2.812,2.812,38.478,38.478,0,0,0-.819,4.213,9.342,9.342,0,0,0,.587,3.279l6.438,2.807s4.449,10.3,4.68,12.408.587,2.576-.116,3.043-1.522,1.993-1.054,2.812,5.388,1.17,7.959,1.522,11.007.583,13.111.116,3.279-1.522,3.279-2.692a20.564,20.564,0,0,0-.462-3.163c-.12-.819-.819-14.748-.819-14.748s5.753,2.164,6.937,2.867a26.238,26.238,0,0,0,3.395,1.522s-.583-3.746.587-6.317,1.989-3.048,1.989-3.048-8.51-7.159-9.1-7.275-5.79-2.613-8.482-3.08S218.855,188.671,218.855,188.671Z" transform="translate(-155.482 -170.985)" fill="#19a49c"/>
      <path id="Контур_10395" data-name="Контур 10395" d="M215.62,214.009a73.469,73.469,0,0,1-1.85-8.519" transform="translate(-161.497 -180.289)" fill="none" stroke="#263238" stroke-linecap="round" stroke-linejoin="round" stroke-width="1"/>
      <path id="Контур_10396" data-name="Контур 10396" d="M210,204.29s1.9,6.313,3.473,8.362" transform="translate(-159.47 -179.644)" fill="none" stroke="#263238" stroke-linecap="round" stroke-linejoin="round" stroke-width="1"/>
      <path id="Контур_10397" data-name="Контур 10397" d="M269.495,213.671a14.406,14.406,0,0,1-4.935-7.5" transform="translate(-188.797 -180.654)" fill="none" stroke="#263238" stroke-linecap="round" stroke-linejoin="round" stroke-width="1"/>
      <path id="Контур_10398" data-name="Контур 10398" d="M268.578,218.151s-2.525-.157-5.208-3.311" transform="translate(-188.158 -185.315)" fill="none" stroke="#263238" stroke-linecap="round" stroke-linejoin="round" stroke-width="1"/>
      <path id="Контур_10401" data-name="Контур 10401" d="M230.686,187.327a4.162,4.162,0,0,0-3.159,1.813c-1.073,1.748-1.545,10.147-1.475,10.484s3.894-2.775,6.937-2.687,6.114,4.435,6.114,4.435a14.05,14.05,0,0,0,1.346-8.4C239.76,188,234.65,186.184,230.686,187.327Z" transform="translate(-168.095 -170.348)" fill="#263238" stroke="#263238" stroke-linecap="round" stroke-linejoin="round" stroke-width="1"/>
      <path id="Контур_10402" data-name="Контур 10402" d="M237.715,157.79a2.164,2.164,0,0,0,2.335-1.17c.819-1.522.236-2.34-.819-2.34h-1.85s.4-2.349-1.466-2.349-5.425,1.9-5.425,1.9-5.786.8-5.92,4.856c-.19,5.675,3.334,6.826,3.334,6.826s.925,1.054,1.757.236a4.162,4.162,0,0,0,1.05-1.757s1.637-.463,1.637-1.637-1.85-2.22-1.05-2.923S237.715,157.79,237.715,157.79Z" transform="translate(-167.299 -151.499)" fill="#263238" stroke="#263238" stroke-linecap="round" stroke-linejoin="round" stroke-width="1"/>
      <path id="Контур_10403" data-name="Контур 10403" d="M233.55,156.2s-.268-1.35.675-1.35,1.42,1.707.879,3.057-4.255,1.67-6.415,2.618a6.078,6.078,0,0,0-2.969,3.237" transform="translate(-167.92 -153.069)" fill="none" stroke="#fff" stroke-linecap="round" stroke-linejoin="round" stroke-width="0.5"/>
      <path id="Контур_10404" data-name="Контур 10404" d="M228.34,174.062a4.5,4.5,0,0,1,2.7-2.312" transform="translate(-169.328 -162.153)" fill="none" stroke="#fff" stroke-linecap="round" stroke-linejoin="round" stroke-width="0.5"/>
      <path id="Контур_10405" data-name="Контур 10405" d="M249.11,297.452a46.136,46.136,0,0,1,2.206,7.1c.393,2.525.24,12.149.555,15.858s3.154,12.949,3.154,12.949,4.417-2.289,6.012-3.076,2.682-1.341,2.682-.157-.925,4.259-2.285,5.124-3.945,1.818-4.259,2.525-1.9,2.84-3,3.076-2.049-1.1-2.442-1.97a34.065,34.065,0,0,1-1.027-4.1s-3.788-8.362-5.6-11.992a26.1,26.1,0,0,1-2.84-9.939c0-2.211,1.263-6.072,1.105-6.627s-3.63-5.679-3.63-5.679.462-2.049,3.552-2.918A12.437,12.437,0,0,1,249.11,297.452Z" transform="translate(-175.456 -229.578)" fill="#ffbe9d"/>
      <path id="Контур_10406" data-name="Контур 10406" d="M269.375,361.034c-1.577.786-6.012,3.075-6.012,3.075s-1.683-5.476-2.6-9.689a6.474,6.474,0,0,0-4.338,1.878c-.425.43-.786.823-1.1,1.193,1.767,3.76,3.7,8.038,3.7,8.038a33,33,0,0,0,1.027,4.1c.4.865,1.341,2.211,2.442,1.97s2.682-2.363,3-3.076,2.918-1.656,4.259-2.525,2.285-3.945,2.285-5.124S270.956,360.238,269.375,361.034Z" transform="translate(-183.831 -260.342)" fill="#263238"/>
      <path id="Контур_10407" data-name="Контур 10407" d="M264.53,374.69a11.372,11.372,0,0,0,.49,1.651c.393.869,1.341,2.211,2.442,1.97s2.682-2.363,3-3.075,2.918-1.656,4.259-2.525,2.285-3.945,2.285-5.124-1.1-.634-2.682.157-6.012,3.076-6.012,3.076A8.584,8.584,0,0,0,264.53,374.69Z" transform="translate(-188.781 -267.052)" fill="#b0bec5"/>
      <path id="Контур_10408" data-name="Контур 10408" d="M272.5,375.232c.315-.708,2.918-1.656,4.259-2.525s2.285-3.945,2.285-5.124c0-.6-.277-.754-.758-.661-1.818,1.36-7.233,5.527-8.866,8.075a5.037,5.037,0,0,0-1.087,3.011,1.438,1.438,0,0,0,1.165.3C270.605,378.072,272.182,375.944,272.5,375.232Z" transform="translate(-190.819 -267.048)" fill="#fff"/>
      <path id="Контур_10409" data-name="Контур 10409" d="M235.321,270.713a25.543,25.543,0,0,1,4.259,5.281,55.478,55.478,0,0,1,2.682,7.182,36.618,36.618,0,0,0-6.012.786c-1.753.55-4.259,4.417-4.259,4.417s-2.775-4.653-4.338-7.728A14.253,14.253,0,0,1,226,272.132c.4-2.363.925-2.682.925-2.682" transform="translate(-167.998 -214.669)" fill="#989cae"/>
      <path id="Контур_10410" data-name="Контур 10410" d="M248,270.47s4.417,3.7,5.679,7.811" transform="translate(-179.896 -215.217)" fill="none" stroke="#fff" stroke-linecap="round" stroke-linejoin="round" stroke-width="1"/>
      <path id="Контур_10411" data-name="Контур 10411" d="M260.47,279.51a17.245,17.245,0,0,1,1.892,4.574" transform="translate(-186.599 -220.076)" fill="none" stroke="#fff" stroke-linecap="round" stroke-linejoin="round" stroke-width="1"/>
      <path id="Контур_10412" data-name="Контур 10412" d="M232.7,184.573l1.29,4.213a12.316,12.316,0,0,0-.12,4.68c.463,2.225,1.29,3.862,2.345,3.862s5.268-4.213,5.619-6.438a23.53,23.53,0,0,0,.347-3.043,9.4,9.4,0,0,1-4.8-1.286C235.045,185.156,232.7,183.047,232.7,184.573Z" transform="translate(-171.672 -168.76)" fill="#ffbe9d" stroke="#263238" stroke-linecap="round" stroke-linejoin="round" stroke-width="1"/>
      <path id="Контур_10413" data-name="Контур 10413" d="M229.646,171.721s-2.026-1.008-2.026.4a3.288,3.288,0,0,0,1.438,2.641,1.064,1.064,0,0,0,1.387-.231l3.626,3.274c1.165,1.05,3.274,2.22,4.791,1.05s1.387-3.741,1.387-3.741.925-4.324.462-6.785a11.3,11.3,0,0,0-1.387-3.857s-4.8-.587-6.785.925-1.522,2.1-.7,2.807,1.17,1.286.819,1.637a6.806,6.806,0,0,1-1.286.819S231.408,172.655,229.646,171.721Z" transform="translate(-168.941 -158.179)" fill="#ffbe9d" stroke="#263238" stroke-linecap="round" stroke-linejoin="round" stroke-width="0.02"/>
      <path id="Контур_10414" data-name="Контур 10414" d="M249.2,175.92s.925,2.928.712,3.14a6.575,6.575,0,0,1-1.785.356" transform="translate(-179.966 -164.394)" fill="none" stroke="#263238" stroke-linecap="round" stroke-linejoin="round" stroke-width="0.5"/>
      <path id="Контур_10415" data-name="Контур 10415" d="M249.83,172.8a2.266,2.266,0,0,1,1.929-1.355" transform="translate(-180.758 -162.186)" fill="none" stroke="#263238" stroke-linecap="round" stroke-linejoin="round" stroke-width="0.5"/>
      <path id="Контур_10416" data-name="Контур 10416" d="M243.308,175.474s-2.215-.712-3.358.287" transform="translate(-176.231 -164.359)" fill="none" stroke="#263238" stroke-linecap="round" stroke-linejoin="round" stroke-width="0.5"/>
      <line id="Линия_124" data-name="Линия 124" x2="1.212" transform="translate(67.739 17.307)" fill="none" stroke="#263238" stroke-linecap="round" stroke-linejoin="round" stroke-width="0.5"/>
      <path id="Контур_10417" data-name="Контур 10417" d="M244.619,177.772c0,.264-.111.462-.25.462s-.25-.213-.25-.462.111-.462.25-.462S244.619,177.509,244.619,177.772Z" transform="translate(-177.81 -165.141)" fill="#263238"/>
      <ellipse id="Эллипс_68" data-name="Эллипс 68" cx="0.25" cy="0.476" rx="0.25" ry="0.476" transform="translate(70.259 10.573)" fill="#263238"/>
      <line id="Линия_125" data-name="Линия 125" x2="1.401" y2="3.862" transform="translate(62.318 20.026)" fill="none" stroke="#263238" stroke-linecap="round" stroke-linejoin="round" stroke-width="1"/>
    </g>
    <g id="freepik--Net--inject-213" transform="translate(196.602 159.547)">
      <g id="Сгруппировать_11018" data-name="Сгруппировать 11018" clip-path="url(#clip-path)">
        <line id="Линия_126" data-name="Линия 126" y2="42.358" transform="translate(17.755 13.699)" fill="none" stroke="#263238" stroke-linecap="round" stroke-linejoin="round" stroke-width="1"/>
        <line id="Линия_127" data-name="Линия 127" y2="42.358" transform="translate(20.585 13.699)" fill="none" stroke="#263238" stroke-linecap="round" stroke-linejoin="round" stroke-width="1"/>
        <line id="Линия_128" data-name="Линия 128" y2="42.358" transform="translate(23.42 13.699)" fill="none" stroke="#263238" stroke-linecap="round" stroke-linejoin="round" stroke-width="1"/>
        <line id="Линия_129" data-name="Линия 129" y2="42.358" transform="translate(26.255 13.699)" fill="none" stroke="#263238" stroke-linecap="round" stroke-linejoin="round" stroke-width="1"/>
        <line id="Линия_130" data-name="Линия 130" y2="42.358" transform="translate(29.085 13.699)" fill="none" stroke="#263238" stroke-linecap="round" stroke-linejoin="round" stroke-width="1"/>
        <line id="Линия_131" data-name="Линия 131" y2="42.358" transform="translate(31.92 13.699)" fill="none" stroke="#263238" stroke-linecap="round" stroke-linejoin="round" stroke-width="1"/>
        <line id="Линия_132" data-name="Линия 132" y2="42.358" transform="translate(34.755 13.699)" fill="none" stroke="#263238" stroke-linecap="round" stroke-linejoin="round" stroke-width="1"/>
        <line id="Линия_133" data-name="Линия 133" y2="42.358" transform="translate(37.59 13.699)" fill="none" stroke="#263238" stroke-linecap="round" stroke-linejoin="round" stroke-width="1"/>
        <line id="Линия_134" data-name="Линия 134" y2="42.358" transform="translate(40.421 13.699)" fill="none" stroke="#263238" stroke-linecap="round" stroke-linejoin="round" stroke-width="1"/>
        <line id="Линия_135" data-name="Линия 135" x2="32.364" transform="translate(13.726 17.426)" fill="none" stroke="#263238" stroke-linecap="round" stroke-linejoin="round" stroke-width="1"/>
        <line id="Линия_136" data-name="Линия 136" x2="32.364" transform="translate(13.726 20.113)" fill="none" stroke="#263238" stroke-linecap="round" stroke-linejoin="round" stroke-width="1"/>
        <line id="Линия_137" data-name="Линия 137" x2="32.364" transform="translate(13.726 22.796)" fill="none" stroke="#263238" stroke-linecap="round" stroke-linejoin="round" stroke-width="1"/>
        <line id="Линия_138" data-name="Линия 138" x2="32.364" transform="translate(13.726 25.483)" fill="none" stroke="#263238" stroke-linecap="round" stroke-linejoin="round" stroke-width="1"/>
        <line id="Линия_139" data-name="Линия 139" x2="32.364" transform="translate(13.726 28.165)" fill="none" stroke="#263238" stroke-linecap="round" stroke-linejoin="round" stroke-width="1"/>
        <line id="Линия_140" data-name="Линия 140" x2="32.364" transform="translate(13.726 30.852)" fill="none" stroke="#263238" stroke-linecap="round" stroke-linejoin="round" stroke-width="1"/>
        <line id="Линия_141" data-name="Линия 141" x2="32.364" transform="translate(13.726 33.534)" fill="none" stroke="#263238" stroke-linecap="round" stroke-linejoin="round" stroke-width="1"/>
        <line id="Линия_142" data-name="Линия 142" x2="32.364" transform="translate(13.726 36.221)" fill="none" stroke="#263238" stroke-linecap="round" stroke-linejoin="round" stroke-width="1"/>
        <line id="Линия_143" data-name="Линия 143" x2="32.364" transform="translate(13.726 38.904)" fill="none" stroke="#263238" stroke-linecap="round" stroke-linejoin="round" stroke-width="1"/>
        <line id="Линия_144" data-name="Линия 144" x2="32.364" transform="translate(13.726 41.591)" fill="none" stroke="#263238" stroke-linecap="round" stroke-linejoin="round" stroke-width="1"/>
        <line id="Линия_145" data-name="Линия 145" x2="32.364" transform="translate(13.726 44.273)" fill="none" stroke="#263238" stroke-linecap="round" stroke-linejoin="round" stroke-width="1"/>
        <line id="Линия_146" data-name="Линия 146" x2="32.364" transform="translate(13.726 46.96)" fill="none" stroke="#263238" stroke-linecap="round" stroke-linejoin="round" stroke-width="1"/>
        <line id="Линия_147" data-name="Линия 147" x2="32.364" transform="translate(13.726 49.642)" fill="none" stroke="#263238" stroke-linecap="round" stroke-linejoin="round" stroke-width="1"/>
        <line id="Линия_148" data-name="Линия 148" x2="32.364" transform="translate(13.726 52.329)" fill="none" stroke="#263238" stroke-linecap="round" stroke-linejoin="round" stroke-width="1"/>
        <rect id="Прямоугольник_3120" data-name="Прямоугольник 3120" width="34.395" height="4.024" transform="translate(11.844 11.174)" fill="#fff" stroke="#263238" stroke-miterlimit="10" stroke-width="1"/>
        <path id="Контур_10418" data-name="Контур 10418" d="M366.83,347.738v-43.6a2.955,2.955,0,0,1,2.955-2.955h0a2.955,2.955,0,0,1,2.951,2.955V346" transform="translate(-357.076 -291.052)" fill="#b4b4b4" stroke="#fff" stroke-miterlimit="10" stroke-width="1"/>
      </g>
    </g>
  </g>
</svg>
