<svg width="30" height="29" viewBox="0 0 30 29" fill="none" xmlns="http://www.w3.org/2000/svg">
<path d="M15.3474 5.33068C15.2543 5.24167 15.1305 5.19199 15.0018 5.19199C14.873 5.19199 14.7492 5.24167 14.6561 5.33068L3.1499 16.3225C3.10104 16.3693 3.06216 16.4255 3.03563 16.4877C3.00909 16.5499 2.99545 16.6168 2.99553 16.6844L2.99365 27.0007C2.99365 27.5311 3.20437 28.0398 3.57944 28.4149C3.95451 28.79 4.46322 29.0007 4.99365 29.0007H10.9999C11.2651 29.0007 11.5195 28.8953 11.707 28.7078C11.8945 28.5202 11.9999 28.2659 11.9999 28.0007V19.5007C11.9999 19.3681 12.0526 19.2409 12.1463 19.1471C12.2401 19.0534 12.3673 19.0007 12.4999 19.0007H17.4999C17.6325 19.0007 17.7597 19.0534 17.8535 19.1471C17.9472 19.2409 17.9999 19.3681 17.9999 19.5007V28.0007C17.9999 28.2659 18.1053 28.5202 18.2928 28.7078C18.4803 28.8953 18.7347 29.0007 18.9999 29.0007H25.0036C25.5341 29.0007 26.0428 28.79 26.4179 28.4149C26.7929 28.0398 27.0036 27.5311 27.0036 27.0007V16.6844C27.0037 16.6168 26.9901 16.5499 26.9635 16.4877C26.937 16.4255 26.8981 16.3693 26.8493 16.3225L15.3474 5.33068Z" fill="#C92C2C" fill-opacity="0.7"/>
<path d="M29.6819 13.2594L25.0069 8.78687V2C25.0069 1.73478 24.9015 1.48043 24.714 1.29289C24.5265 1.10536 24.2721 1 24.0069 1H21.0069C20.7417 1 20.4873 1.10536 20.2998 1.29289C20.1122 1.48043 20.0069 1.73478 20.0069 2V4L16.3869 0.53875C16.0481 0.19625 15.5444 0 15 0C14.4575 0 13.955 0.19625 13.6163 0.539375L0.322524 13.2581C-0.0662263 13.6331 -0.114976 14.25 0.238774 14.6562C0.327605 14.7588 0.436374 14.8422 0.55846 14.9014C0.680546 14.9605 0.813396 14.9942 0.948924 15.0004C1.08445 15.0066 1.21982 14.9852 1.3468 14.9374C1.47378 14.8896 1.5897 14.8165 1.68752 14.7225L14.6563 2.33C14.7493 2.24099 14.8731 2.19131 15.0019 2.19131C15.1307 2.19131 15.2545 2.24099 15.3475 2.33L28.3175 14.7225C28.5086 14.9057 28.7645 15.0057 29.0291 15.0006C29.2938 14.9954 29.5456 14.8855 29.7294 14.695C30.1131 14.2975 30.0813 13.6412 29.6819 13.2594Z" fill="#C92C2C" fill-opacity="0.7"/>
</svg>
