<svg id="Компонент_91_1" data-name="Компонент 91 – 1" xmlns="http://www.w3.org/2000/svg" width="24" height="24" viewBox="0 0 24 24">
  <g id="icon" transform="translate(0)" fill="#fff" stroke-miterlimit="10">
    <path d="M 18.84276008605957 23.85000038146973 L 15.01179027557373 23.85000038146973 C 14.70689010620117 23.85000038146973 14.45883083343506 23.60236930847168 14.45883083343506 23.29800033569336 L 14.45883083343506 17.64953994750977 C 14.45883083343506 16.91533088684082 13.86214065551758 16.3180103302002 13.12871074676514 16.3180103302002 L 10.87058067321777 16.3180103302002 C 10.13715076446533 16.3180103302002 9.540460586547852 16.91533088684082 9.540460586547852 17.64953994750977 L 9.540460586547852 23.29800033569336 C 9.540460586547852 23.60236930847168 9.292400360107422 23.85000038146973 8.987490653991699 23.85000038146973 L 5.156530380249023 23.85000038146973 C 3.813290596008301 23.85000038146973 2.720480680465698 22.75741958618164 2.720480680465698 21.41445922851562 L 2.720480680465698 14.21078014373779 L 2.720480680465698 14.0607795715332 L 2.570480585098267 14.0607795715332 L 2.179700613021851 14.0607795715332 C 2.162940502166748 14.0607795715332 2.144660472869873 14.05887985229492 2.127890586853027 14.05720043182373 L 2.123640537261963 14.0567798614502 L 2.119370460510254 14.05659961700439 C 1.60209059715271 14.03448009490967 1.116580605506897 13.82145023345947 0.752280592918396 13.4567699432373 C 0.3643905818462372 13.06904029846191 0.1504905670881271 12.55253982543945 0.1499005705118179 12.00230979919434 C 0.1492848843336105 11.4562463760376 0.3589164316654205 10.9429292678833 0.7404690384864807 10.55551242828369 L 0.7429205775260925 10.55416965484619 L 0.758120596408844 10.53896999359131 L 10.54269027709961 0.754069983959198 C 10.93152046203613 0.3644999861717224 11.4489107131958 0.1500000059604645 11.99964046478271 0.1500000059604645 C 12.55035018920898 0.1500000059604645 13.06774044036865 0.3644999861717224 13.4564905166626 0.7539799809455872 L 23.2470703125 10.54329013824463 C 23.63603973388672 10.93327045440674 23.85017967224121 11.45108032226562 23.84990119934082 12.00119018554688 C 23.84961128234863 12.55142974853516 23.63552093505859 13.06834030151367 23.24707984924316 13.45670032501221 C 22.85803985595703 13.84628009796143 22.34134101867676 14.0607795715332 21.79207992553711 14.0607795715332 L 21.42881011962891 14.0607795715332 L 21.27881050109863 14.0607795715332 L 21.27881050109863 14.21078014373779 L 21.27881050109863 21.41445922851562 C 21.27881050109863 22.75741958618164 20.18600082397461 23.85000038146973 18.84276008605957 23.85000038146973 Z M 10.87058067321777 15.21183013916016 L 13.12871074676514 15.21183013916016 C 14.47303104400635 15.21183013916016 15.56672096252441 16.30537986755371 15.56672096252441 17.64953994750977 L 15.56672096252441 22.59383010864258 L 15.56672096252441 22.74382972717285 L 15.71672058105469 22.74382972717285 L 18.84276008605957 22.74382972717285 C 19.57618141174316 22.74382972717285 20.17286109924316 22.14748001098633 20.17286109924316 21.41445922851562 L 20.17286109924316 13.50662040710449 C 20.17286109924316 13.20223999023438 20.42093086242676 12.95460987091064 20.72585105895996 12.95460987091064 L 21.79207992553711 12.95460987091064 C 22.04625129699707 12.95460987091064 22.28544998168945 12.85538959503174 22.46561050415039 12.67523956298828 C 22.64480972290039 12.49547004699707 22.74360084533691 12.25625038146973 22.74396133422852 12.00148010253906 C 22.74433135986328 11.74676990509033 22.6463508605957 11.50737953186035 22.46808052062988 11.32742023468018 L 12.673171043396 1.535539984703064 C 12.49302101135254 1.355389952659607 12.25382041931152 1.256170034408569 11.99964046478271 1.256170034408569 C 11.74547100067139 1.256170034408569 11.50627040863037 1.355389952659607 11.32610034942627 1.535549998283386 L 1.535640597343445 11.32476043701172 C 1.355150580406189 11.5072603225708 1.256070613861084 11.74685001373291 1.256070613861084 12 C 1.256070613861084 12.2542896270752 1.355410575866699 12.49339008331299 1.5357905626297 12.67323017120361 C 1.705650568008423 12.84747982025146 1.938640594482422 12.94717025756836 2.190340518951416 12.95242023468018 C 2.191323757171631 12.95242500305176 2.19222617149353 12.95242595672607 2.193060159683228 12.95242595672607 C 2.194757699966431 12.95242595672607 2.196171998977661 12.95242023468018 2.197408676147461 12.95242023468018 C 2.199525356292725 12.95242023468018 2.201122045516968 12.95243835449219 2.202730655670166 12.95254039764404 L 2.216150522232056 12.95499992370605 L 2.226850509643555 12.95460987091064 L 3.273440599441528 12.95460987091064 C 3.57835054397583 12.95460987091064 3.826410531997681 13.20223999023438 3.826410531997681 13.50662040710449 L 3.826410531997681 21.41445922851562 C 3.826410531997681 22.14748001098633 4.423100471496582 22.74382972717285 5.156530380249023 22.74382972717285 L 8.284530639648438 22.74382972717285 L 8.434530258178711 22.74382972717285 L 8.434530258178711 22.59383010864258 L 8.434530258178711 17.64953994750977 C 8.434530258178711 16.30537986755371 9.527340888977051 15.21183013916016 10.87058067321777 15.21183013916016 Z" stroke="none"/>
    <path d="M 18.84276008605957 23.70000076293945 C 20.10329055786133 23.70000076293945 21.12881088256836 22.67470932006836 21.12881088256836 21.41445922851562 L 21.12881088256836 13.91077995300293 L 21.79207992553711 13.91077995300293 C 22.30124092102051 13.91077995300293 22.78024101257324 13.71191024780273 23.14101982116699 13.35062980651855 C 23.50115013122559 12.99057006835938 23.69963073730469 12.51130962371826 23.69989967346191 12.00111961364746 C 23.70016098022461 11.49102020263672 23.5015697479248 11.01086044311523 23.14101028442383 10.64937019348145 L 13.3503303527832 0.8599399924278259 C 12.9899206161499 0.4988600015640259 12.51023101806641 0.300000011920929 11.99964046478271 0.300000011920929 C 11.4890308380127 0.300000011920929 11.00935077667236 0.4988600015640259 10.64876079559326 0.8601400256156921 L 0.8322404026985168 10.67627906799316 C 0.4881575703620911 11.03353404998779 0.2993426918983459 11.50308990478516 0.2999005615711212 12.00214958190918 C 0.3004405796527863 12.51235961914062 0.4987405836582184 12.99125003814697 0.8584005832672119 13.3507604598999 C 1.196060538291931 13.68877029418945 1.64616060256958 13.88621997833252 2.125780582427979 13.90672969818115 L 2.142810583114624 13.90795040130615 C 2.154760599136353 13.90913963317871 2.167760610580444 13.91077995300293 2.179700613021851 13.91077995300293 L 2.870480537414551 13.91077995300293 L 2.870480537414551 21.41445922851562 C 2.870480537414551 22.67470932006836 3.896000623703003 23.70000076293945 5.156530380249023 23.70000076293945 L 8.987490653991699 23.70000076293945 C 9.209691047668457 23.70000076293945 9.390460968017578 23.51966094970703 9.390460968017578 23.29800033569336 L 9.390460968017578 17.64953994750977 C 9.390460968017578 16.83262062072754 10.05444049835205 16.16801071166992 10.87058067321777 16.16801071166992 L 13.12871074676514 16.16801071166992 C 13.94485092163086 16.16801071166992 14.60883045196533 16.83262062072754 14.60883045196533 17.64953994750977 L 14.60883045196533 23.29800033569336 C 14.60883045196533 23.51966094970703 14.78960037231445 23.70000076293945 15.01179027557373 23.70000076293945 L 18.84276008605957 23.70000076293945 M 10.87058067321777 15.36182975769043 C 9.610050201416016 15.36182975769043 8.584530830383301 16.38809013366699 8.584530830383301 17.64953994750977 L 8.584530830383301 22.89382934570312 L 5.156530380249023 22.89382934570312 C 4.340390682220459 22.89382934570312 3.676410675048828 22.23019027709961 3.676410675048828 21.41445922851562 L 3.676410675048828 13.50662040710449 C 3.676410675048828 13.28495025634766 3.495640516281128 13.10461044311523 3.273440599441528 13.10461044311523 L 2.187220573425293 13.10237979888916 C 1.895920515060425 13.09630966186523 1.625890612602234 12.98054981231689 1.429880619049072 12.77945995330811 C 1.221070528030396 12.57126045227051 1.106070518493652 12.29444026947021 1.106070518493652 12 C 1.106070518493652 11.70709991455078 1.220540523529053 11.43004035949707 1.429580569267273 11.2186803817749 L 11.2200403213501 1.429489970207214 C 11.4285306930542 1.220989942550659 11.70540046691895 1.106170058250427 11.99964046478271 1.106170058250427 C 12.29389095306396 1.106170058250427 12.57076072692871 1.220989942550659 12.77922058105469 1.429460048675537 L 22.57464981079102 11.2218599319458 C 22.78098106384277 11.43015003204346 22.89438056945801 11.70709991455078 22.89396095275879 12.00168991088867 C 22.89355087280273 12.29636001586914 22.77921104431152 12.57310962677002 22.57168006896973 12.78131008148193 C 22.36318016052246 12.98978996276855 22.08631134033203 13.10461044311523 21.79207992553711 13.10461044311523 L 20.72585105895996 13.10461044311523 C 20.50364112854004 13.10461044311523 20.32286071777344 13.28495025634766 20.32286071777344 13.50662040710449 L 20.32286071777344 21.41445922851562 C 20.32286071777344 22.23019027709961 19.65888977050781 22.89382934570312 18.84276008605957 22.89382934570312 L 15.41672039031982 22.89382934570312 L 15.41672039031982 17.64953994750977 C 15.41672039031982 16.38809013366699 14.39032077789307 15.36182975769043 13.12871074676514 15.36182975769043 L 10.87058067321777 15.36182975769043 M 18.84276008605957 24 L 15.01179027557373 24 C 14.62418079376221 24 14.30883026123047 23.68508911132812 14.30883026123047 23.29800033569336 L 14.30883026123047 17.64953994750977 C 14.30883026123047 16.9980297088623 13.77942085266113 16.46800994873047 13.12871074676514 16.46800994873047 L 10.87058067321777 16.46800994873047 C 10.21987056732178 16.46800994873047 9.690460205078125 16.9980297088623 9.690460205078125 17.64953994750977 L 9.690460205078125 23.29800033569336 C 9.690460205078125 23.68508911132812 9.375110626220703 24 8.987490653991699 24 L 5.156530380249023 24 C 3.730570554733276 24 2.570480585098267 22.84013938903809 2.570480585098267 21.41445922851562 L 2.570480585098267 14.21078014373779 L 2.179700613021851 14.21078014373779 C 2.158120632171631 14.21078014373779 2.134560585021973 14.20862007141113 2.112960577011108 14.20645999908447 C 1.558050632476807 14.18272972106934 1.037090539932251 13.95411968231201 0.6461606025695801 13.56278038024902 C 0.2300505787134171 13.14684963226318 0.0005305734230205417 12.5927095413208 -9.942657197825611e-05 12.00247001647949 C -0.0007594265625812113 11.41259002685547 0.227350577712059 10.85824012756348 0.6422305703163147 10.4415397644043 C 0.6444105505943298 10.43916988372803 0.6482505798339844 10.43498992919922 0.6520505547523499 10.43290996551514 L 10.43662071228027 0.6480100154876709 C 10.8536901473999 0.2301400005817413 11.40878009796143 -1.77635683940025e-15 11.99964046478271 -1.77635683940025e-15 C 12.59049034118652 -1.77635683940025e-15 13.14557075500488 0.2301400005817413 13.56266021728516 0.6480100154876709 L 23.35313034057617 10.43721961975098 C 23.77050018310547 10.85566997528076 24.00020027160645 11.41112995147705 23.99990081787109 12.00127029418945 C 23.99958992004395 12.59156036376953 23.76988983154297 13.14610958099365 23.35313034057617 13.56278038024902 C 22.93585014343262 13.98064041137695 22.38146018981934 14.21078014373779 21.79207992553711 14.21078014373779 L 21.42881011962891 14.21078014373779 L 21.42881011962891 21.41445922851562 C 21.42881011962891 22.84013938903809 20.26872062683105 24 18.84276008605957 24 Z M 10.87058067321777 15.06182956695557 L 13.12871074676514 15.06182956695557 C 14.55574035644531 15.06182956695557 15.71672058105469 16.22266960144043 15.71672058105469 17.64953994750977 L 15.71672058105469 22.59383010864258 L 18.84276008605957 22.59383010864258 C 19.49347114562988 22.59383010864258 20.02286148071289 22.06476974487305 20.02286148071289 21.41445922851562 L 20.02286148071289 13.50662040710449 C 20.02286148071289 13.11952018737793 20.33821105957031 12.80461025238037 20.72585105895996 12.80461025238037 L 21.79207992553711 12.80461025238037 C 22.00619125366211 12.80461025238037 22.20771980285645 12.72099018096924 22.35955047607422 12.56916999816895 C 22.51040077209473 12.41784000396729 22.59366035461426 12.21615028381348 22.59395980834961 12.00127029418945 C 22.59427070617676 11.78645038604736 22.51171112060547 11.5846004486084 22.36152076721191 11.43299007415771 L 12.56712055206299 1.64162003993988 C 12.41529083251953 1.489789962768555 12.21376037597656 1.406170010566711 11.99964046478271 1.406170010566711 C 11.78552055358887 1.406170010566711 11.58400058746338 1.489789962768555 11.43217086791992 1.64162003993988 L 1.641700625419617 11.43083000183105 C 1.489760518074036 11.58446025848389 1.406070590019226 11.7866096496582 1.406070590019226 12 C 1.406070590019226 12.21415042877197 1.489760518074036 12.41551971435547 1.641700625419617 12.56700992584229 C 1.785430550575256 12.71444034576416 1.981380581855774 12.79802989959717 2.193470478057861 12.80245018005371 C 2.20525050163269 12.80245018005371 2.215070486068726 12.80245018005371 2.226850509643555 12.80461025238037 L 3.273440599441528 12.80461025238037 C 3.661060571670532 12.80461025238037 3.976410627365112 13.11952018737793 3.976410627365112 13.50662040710449 L 3.976410627365112 21.41445922851562 C 3.976410627365112 22.06476974487305 4.505810737609863 22.59383010864258 5.156530380249023 22.59383010864258 L 8.284530639648438 22.59383010864258 L 8.284530639648438 17.64953994750977 C 8.284530639648438 16.22266960144043 9.444620132446289 15.06182956695557 10.87058067321777 15.06182956695557 Z" stroke="none" fill="#fff"/>
  </g>
</svg>
