<svg xmlns="http://www.w3.org/2000/svg" width="25" height="21.429" viewBox="0 0 25 21.429">
  <g id="Email" transform="translate(-2 -4)">
    <path id="Контур_16807" data-name="Контур 16807" d="M22.536,4H6.464A4.464,4.464,0,0,0,2,8.464v12.5a4.464,4.464,0,0,0,4.464,4.464H22.536A4.464,4.464,0,0,0,27,20.964V8.464A4.464,4.464,0,0,0,22.536,4ZM6.464,5.786H22.536a2.679,2.679,0,0,1,2.143,1.089h-.071l-8.321,7.652a2.679,2.679,0,0,1-3.625,0L4.393,6.911H4.321A2.679,2.679,0,0,1,6.464,5.786ZM22.536,23.643H6.464a2.679,2.679,0,0,1-2.679-2.679V8.786l7.7,7.054a4.464,4.464,0,0,0,6.036,0l7.7-7.054V20.964a2.679,2.679,0,0,1-2.679,2.679Z" transform="translate(0)" fill="#989cae"/>
  </g>
</svg>
