<svg xmlns="http://www.w3.org/2000/svg" width="24" height="24" viewBox="0 0 24 24">
  <path id="Combined_Shape" data-name="Combined Shape" d="M20.25,24H3.75A3.754,3.754,0,0,1,0,20.25V9.027A3.733,3.733,0,0,1,1.73,5.869L3.985,4.426V.937A.939.939,0,0,1,4.923,0H19.077a.939.939,0,0,1,.937.937V4.43l2.257,1.445A3.735,3.735,0,0,1,24,9.033v6.53a.937.937,0,1,1-1.875,0V10.249L13.98,15.312a3.721,3.721,0,0,1-3.959,0L1.875,10.249v10A1.877,1.877,0,0,0,3.75,22.125h16.5a1.877,1.877,0,0,0,1.875-1.875.937.937,0,0,1,1.875,0A3.754,3.754,0,0,1,20.25,24ZM5.86,1.875v8.644l5.149,3.2a1.863,1.863,0,0,0,1.981,0l5.149-3.2V1.875ZM20.015,6.657v2.7l1.9-1.182a1.886,1.886,0,0,0-.654-.717Zm-16.03,0-1.246.795a1.882,1.882,0,0,0-.657.721l1.9,1.184Z" fill="#989cae"/>
</svg>
