<svg xmlns="http://www.w3.org/2000/svg" xmlns:xlink="http://www.w3.org/1999/xlink" width="147.233" height="163.597" viewBox="0 0 147.233 163.597">
  <defs>
    <linearGradient id="linear-gradient" x1="0.5" y1="0.126" x2="0.5" y2="0.955" gradientUnits="objectBoundingBox">
      <stop offset="0" stop-color="#f22934"/>
      <stop offset="1" stop-color="#b80007"/>
    </linearGradient>
    <linearGradient id="linear-gradient-2" x1="0.5" y1="-0.015" x2="0.5" y2="0.795" gradientUnits="objectBoundingBox">
      <stop offset="0" stop-color="#fff"/>
      <stop offset="1"/>
    </linearGradient>
    <linearGradient id="linear-gradient-3" x1="0.5" y1="-0.025" x2="0.5" y2="0.821" gradientUnits="objectBoundingBox">
      <stop offset="0" stop-color="#a12025"/>
      <stop offset="1" stop-color="#c1272d"/>
    </linearGradient>
    <linearGradient id="linear-gradient-4" x1="0.5" y1="0.126" x2="0.5" y2="0.955" gradientUnits="objectBoundingBox">
      <stop offset="0" stop-color="#e33940"/>
      <stop offset="1" stop-color="#b80007"/>
    </linearGradient>
    <linearGradient id="linear-gradient-5" x1="0.5" y1="1.177" x2="0.5" y2="0.148" xlink:href="#linear-gradient-2"/>
    <linearGradient id="linear-gradient-6" x1="0.288" y1="0.834" x2="0.578" y2="0.207" xlink:href="#linear-gradient-3"/>
    <linearGradient id="linear-gradient-7" x1="0.604" y1="0.581" x2="0.442" y2="0.45" xlink:href="#linear-gradient-3"/>
    <linearGradient id="linear-gradient-8" x1="0.288" y1="-5.312" x2="0.578" y2="-5.939" xlink:href="#linear-gradient-3"/>
    <linearGradient id="linear-gradient-9" x1="0.604" y1="-1.336" x2="0.442" y2="-1.467" xlink:href="#linear-gradient-3"/>
    <linearGradient id="linear-gradient-10" x1="0.5" y1="0.126" x2="0.5" y2="0.955" xlink:href="#linear-gradient-2"/>
    <linearGradient id="linear-gradient-11" x1="0.5" y1="-0.251" x2="0.5" y2="1.45" gradientUnits="objectBoundingBox">
      <stop offset="0" stop-color="#e8e8e8"/>
      <stop offset="0.443" stop-color="#b8b7b7"/>
      <stop offset="1" stop-color="#999696"/>
    </linearGradient>
    <linearGradient id="linear-gradient-12" x1="0.501" y1="-417.906" x2="0.501" y2="920.528" xlink:href="#linear-gradient-11"/>
    <linearGradient id="linear-gradient-13" x1="0.5" y1="-0.597" x2="0.5" y2="6.983" xlink:href="#linear-gradient-11"/>
    <linearGradient id="linear-gradient-14" x1="0.5" y1="-0.181" x2="0.5" y2="1.207" xlink:href="#linear-gradient-11"/>
    <linearGradient id="linear-gradient-15" x1="0.503" y1="-232.166" x2="0.503" y2="388.869" xlink:href="#linear-gradient-11"/>
    <linearGradient id="linear-gradient-16" x1="0.503" y1="-177.06" x2="0.503" y2="814.808" xlink:href="#linear-gradient-11"/>
    <linearGradient id="linear-gradient-17" x1="0.5" y1="-212.789" x2="0.5" y2="890.302" xlink:href="#linear-gradient-11"/>
    <linearGradient id="linear-gradient-18" x1="0.5" y1="-956.622" x2="0.5" y2="6091.864" xlink:href="#linear-gradient-11"/>
    <linearGradient id="linear-gradient-19" x1="0.499" y1="-1242.35" x2="0.499" y2="6757.005" xlink:href="#linear-gradient-11"/>
    <linearGradient id="linear-gradient-20" x1="0.499" y1="-422.003" x2="0.499" y2="2720.384" xlink:href="#linear-gradient-11"/>
    <linearGradient id="linear-gradient-21" x1="0.494" y1="-2789.024" x2="0.494" y2="3451.877" xlink:href="#linear-gradient-11"/>
    <linearGradient id="linear-gradient-22" x1="0.5" y1="-1448.06" x2="0.5" y2="1057.477" xlink:href="#linear-gradient-11"/>
    <linearGradient id="linear-gradient-23" x1="0.491" y1="-1067.684" x2="0.491" y2="292.103" xlink:href="#linear-gradient-11"/>
    <linearGradient id="linear-gradient-24" x1="0.508" y1="-2062.071" x2="0.508" y2="554.949" xlink:href="#linear-gradient-11"/>
    <linearGradient id="linear-gradient-25" x1="0.5" y1="-479.624" x2="0.5" y2="86.256" xlink:href="#linear-gradient-11"/>
    <linearGradient id="linear-gradient-26" x1="0.496" y1="-374.507" x2="0.496" y2="98.68" xlink:href="#linear-gradient-11"/>
    <linearGradient id="linear-gradient-27" x1="0.5" y1="-573.632" x2="0.5" y2="202.548" xlink:href="#linear-gradient-11"/>
    <linearGradient id="linear-gradient-28" x1="0.5" y1="-4.131" x2="0.5" y2="27.509" xlink:href="#linear-gradient-11"/>
    <linearGradient id="linear-gradient-29" x1="0.501" y1="-141.466" x2="0.501" y2="807.266" xlink:href="#linear-gradient-11"/>
    <linearGradient id="linear-gradient-30" x1="0.5" y1="-271.162" x2="0.5" y2="1512.164" xlink:href="#linear-gradient-11"/>
    <linearGradient id="linear-gradient-31" x1="0.5" y1="-11.4" x2="0.5" y2="17.27" xlink:href="#linear-gradient-11"/>
    <linearGradient id="linear-gradient-32" x1="0.5" y1="-8.219" x2="0.5" y2="5.267" xlink:href="#linear-gradient-11"/>
    <linearGradient id="linear-gradient-33" x1="0.5" y1="-11.339" x2="0.5" y2="36.799" xlink:href="#linear-gradient-11"/>
    <linearGradient id="linear-gradient-34" x1="0.5" y1="-11.818" x2="0.5" y2="89.619" xlink:href="#linear-gradient-11"/>
    <linearGradient id="linear-gradient-35" x1="0.5" y1="-33.121" x2="0.5" y2="43.658" xlink:href="#linear-gradient-11"/>
    <linearGradient id="linear-gradient-36" x1="0.5" y1="-4.754" x2="0.5" y2="33.263" xlink:href="#linear-gradient-11"/>
    <linearGradient id="linear-gradient-37" x1="0.5" y1="-12.982" x2="0.5" y2="110.394" xlink:href="#linear-gradient-11"/>
    <linearGradient id="linear-gradient-38" x1="0.5" y1="-12.88" x2="0.5" y2="109.839" xlink:href="#linear-gradient-11"/>
    <linearGradient id="linear-gradient-39" x1="0.5" y1="-14.508" x2="0.5" y2="142.704" xlink:href="#linear-gradient-11"/>
    <linearGradient id="linear-gradient-40" x1="0.5" y1="-10.261" x2="0.5" y2="103.453" xlink:href="#linear-gradient-11"/>
    <linearGradient id="linear-gradient-41" x1="0.5" y1="-138.513" x2="0.5" y2="29.093" xlink:href="#linear-gradient-11"/>
    <linearGradient id="linear-gradient-42" x1="0.5" y1="-53.301" x2="0.5" y2="83.194" xlink:href="#linear-gradient-11"/>
    <linearGradient id="linear-gradient-43" x1="0.5" y1="-8.356" x2="0.5" y2="55.44" xlink:href="#linear-gradient-11"/>
    <linearGradient id="linear-gradient-44" x1="0.5" y1="-31.698" x2="0.5" y2="170.938" xlink:href="#linear-gradient-11"/>
    <linearGradient id="linear-gradient-45" x1="0.5" y1="-42.923" x2="0.5" y2="179.607" xlink:href="#linear-gradient-11"/>
    <linearGradient id="linear-gradient-46" x1="0.5" y1="-96.438" x2="0.5" y2="123.148" xlink:href="#linear-gradient-11"/>
    <linearGradient id="linear-gradient-47" x1="0.5" y1="-49.88" x2="0.5" y2="138.292" xlink:href="#linear-gradient-11"/>
    <linearGradient id="linear-gradient-48" x1="0.5" y1="-183.743" x2="0.5" y2="34.562" xlink:href="#linear-gradient-11"/>
    <linearGradient id="linear-gradient-49" x1="0.5" y1="-4.455" x2="0.5" y2="41.906" xlink:href="#linear-gradient-11"/>
    <linearGradient id="linear-gradient-50" x1="0.5" y1="-29.259" x2="0.5" y2="234.016" xlink:href="#linear-gradient-11"/>
    <linearGradient id="linear-gradient-51" x1="0.5" y1="-24.92" x2="0.5" y2="200.857" xlink:href="#linear-gradient-11"/>
    <linearGradient id="linear-gradient-52" x1="0.5" y1="-125.775" x2="0.5" y2="160.567" xlink:href="#linear-gradient-11"/>
    <linearGradient id="linear-gradient-53" x1="0.5" y1="-25.982" x2="0.5" y2="93.404" xlink:href="#linear-gradient-11"/>
    <linearGradient id="linear-gradient-54" x1="0.5" y1="-4.178" x2="0.5" y2="15.385" xlink:href="#linear-gradient-11"/>
    <linearGradient id="linear-gradient-55" x1="0.5" y1="-8.053" x2="0.5" y2="61.695" xlink:href="#linear-gradient-11"/>
    <linearGradient id="linear-gradient-56" x1="0.5" y1="-34.403" x2="0.5" y2="317.99" xlink:href="#linear-gradient-11"/>
    <linearGradient id="linear-gradient-57" x1="0.5" y1="-43.917" x2="0.5" y2="180.036" xlink:href="#linear-gradient-11"/>
    <linearGradient id="linear-gradient-58" x1="0.5" y1="-57.086" x2="0.5" y2="93.121" xlink:href="#linear-gradient-11"/>
    <linearGradient id="linear-gradient-59" x1="0.5" y1="-52.826" x2="0.5" y2="374.146" xlink:href="#linear-gradient-11"/>
    <linearGradient id="linear-gradient-60" x1="0.5" y1="-131.101" x2="0.5" y2="180.387" xlink:href="#linear-gradient-11"/>
    <linearGradient id="linear-gradient-61" x1="0.5" y1="-51.05" x2="0.5" y2="416.886" xlink:href="#linear-gradient-11"/>
    <linearGradient id="linear-gradient-62" x1="0.5" y1="-55.873" x2="0.5" y2="225.363" xlink:href="#linear-gradient-11"/>
    <linearGradient id="linear-gradient-63" x1="0.5" y1="-197.981" x2="0.5" y2="221.685" xlink:href="#linear-gradient-11"/>
    <linearGradient id="linear-gradient-64" x1="0.5" y1="-119.664" x2="0.5" y2="168.391" xlink:href="#linear-gradient-11"/>
    <linearGradient id="linear-gradient-65" x1="0.5" y1="-69.242" x2="0.5" y2="771.583" xlink:href="#linear-gradient-11"/>
    <linearGradient id="linear-gradient-66" x1="0.5" y1="-43.189" x2="0.5" y2="351.318" xlink:href="#linear-gradient-11"/>
    <linearGradient id="linear-gradient-67" x1="0.5" y1="-83.593" x2="0.5" y2="322.117" xlink:href="#linear-gradient-11"/>
    <linearGradient id="linear-gradient-68" x1="0.5" y1="-10.076" x2="0.5" y2="48.034" xlink:href="#linear-gradient-11"/>
    <linearGradient id="linear-gradient-69" x1="0.5" y1="-109.095" x2="0.5" y2="742.658" xlink:href="#linear-gradient-11"/>
    <linearGradient id="linear-gradient-70" x1="0.5" y1="-10.804" x2="0.5" y2="95.154" xlink:href="#linear-gradient-11"/>
    <linearGradient id="linear-gradient-71" x1="0.501" y1="-416.499" x2="0.501" y2="2102.179" xlink:href="#linear-gradient-11"/>
    <linearGradient id="linear-gradient-72" x1="0.498" y1="-127.458" x2="0.498" y2="714.289" xlink:href="#linear-gradient-11"/>
    <linearGradient id="linear-gradient-73" x1="0.5" y1="-196.265" x2="0.5" y2="451.405" xlink:href="#linear-gradient-11"/>
    <linearGradient id="linear-gradient-74" x1="0.499" y1="-438.592" x2="0.499" y2="1012.262" xlink:href="#linear-gradient-11"/>
    <linearGradient id="linear-gradient-75" x1="0.5" y1="-107.819" x2="0.5" y2="260.607" xlink:href="#linear-gradient-11"/>
    <linearGradient id="linear-gradient-76" x1="0.5" y1="-14.129" x2="0.5" y2="32.232" xlink:href="#linear-gradient-11"/>
    <linearGradient id="linear-gradient-77" x1="0.5" y1="-79.62" x2="0.5" y2="151.529" xlink:href="#linear-gradient-11"/>
    <linearGradient id="linear-gradient-78" x1="0.5" y1="-63.596" x2="0.5" y2="120.808" xlink:href="#linear-gradient-11"/>
    <linearGradient id="linear-gradient-79" x1="0.502" y1="-3983.559" x2="0.502" y2="3983.563" xlink:href="#linear-gradient-11"/>
    <linearGradient id="linear-gradient-80" x1="0.5" y1="-109.656" x2="0.5" y2="231.912" xlink:href="#linear-gradient-11"/>
    <linearGradient id="linear-gradient-81" x1="0.501" y1="-975.695" x2="0.501" y2="1855.416" xlink:href="#linear-gradient-11"/>
    <linearGradient id="linear-gradient-82" x1="0.501" y1="-236.916" x2="0.501" y2="521.156" xlink:href="#linear-gradient-11"/>
    <radialGradient id="radial-gradient" cx="0.5" cy="0.5" r="2.134" gradientTransform="translate(0.383 1.501) scale(0.234 0.234)" gradientUnits="objectBoundingBox">
      <stop offset="0" stop-color="#4f0d11"/>
      <stop offset="0.029" stop-color="#612529"/>
      <stop offset="0.087" stop-color="#815355"/>
      <stop offset="0.151" stop-color="#9f7c7e"/>
      <stop offset="0.219" stop-color="#b99fa1"/>
      <stop offset="0.293" stop-color="#cfbdbe"/>
      <stop offset="0.375" stop-color="#e0d5d6"/>
      <stop offset="0.466" stop-color="#eee8e8"/>
      <stop offset="0.574" stop-color="#f7f5f5"/>
      <stop offset="0.714" stop-color="#fdfcfc"/>
      <stop offset="1" stop-color="#fff"/>
    </radialGradient>
    <radialGradient id="radial-gradient-2" cy="0.5" r="2.134" gradientTransform="translate(0.383 2.263) scale(0.234 0.234)" xlink:href="#radial-gradient"/>
    <radialGradient id="radial-gradient-3" cy="0.5" r="2.134" gradientTransform="translate(0.383 4.537) scale(0.234 0.234)" xlink:href="#radial-gradient"/>
  </defs>
  <g id="Сгруппировать_14872" data-name="Сгруппировать 14872" transform="translate(-868.837 -388.999)">
    <g id="Сгруппировать_14870" data-name="Сгруппировать 14870" transform="translate(870 423.664)">
      <g id="Сгруппировать_14862" data-name="Сгруппировать 14862" transform="translate(0 67.136)" opacity="0.4">
        <line id="Линия_342" data-name="Линия 342" x2="2.332" transform="translate(0 1.071)" fill="none" stroke="#fff" stroke-linecap="round" stroke-linejoin="round" stroke-width="2.326"/>
        <line id="Линия_343" data-name="Линия 343" y1="2.142" transform="translate(1.166)" fill="none" stroke="#fff" stroke-linecap="round" stroke-linejoin="round" stroke-width="2.326"/>
      </g>
      <g id="Сгруппировать_14863" data-name="Сгруппировать 14863" transform="translate(139.48 27.876)" opacity="0.3">
        <line id="Линия_344" data-name="Линия 344" x2="2.777" transform="translate(0 1.275)" fill="none" stroke="#fff" stroke-linecap="round" stroke-linejoin="round" stroke-width="2.77"/>
        <line id="Линия_345" data-name="Линия 345" y1="2.551" transform="translate(1.389)" fill="none" stroke="#fff" stroke-linecap="round" stroke-linejoin="round" stroke-width="2.77"/>
      </g>
      <g id="Сгруппировать_14864" data-name="Сгруппировать 14864" transform="translate(27.522 11.975)" opacity="0.4">
        <line id="Линия_346" data-name="Линия 346" x2="3.292" transform="translate(0 1.512)" fill="none" stroke="#fff" stroke-linecap="round" stroke-linejoin="round" stroke-width="1.918"/>
        <line id="Линия_347" data-name="Линия 347" y1="3.023" transform="translate(1.646)" fill="none" stroke="#fff" stroke-linecap="round" stroke-linejoin="round" stroke-width="1.918"/>
      </g>
      <g id="Сгруппировать_14865" data-name="Сгруппировать 14865" transform="translate(82.747 0)" opacity="0.3">
        <line id="Линия_348" data-name="Линия 348" x2="2.777" transform="translate(0 1.275)" fill="none" stroke="#fff" stroke-linecap="round" stroke-linejoin="round" stroke-width="2.77"/>
        <line id="Линия_349" data-name="Линия 349" y1="2.551" transform="translate(1.389)" fill="none" stroke="#fff" stroke-linecap="round" stroke-linejoin="round" stroke-width="2.77"/>
      </g>
      <g id="Сгруппировать_14866" data-name="Сгруппировать 14866" transform="translate(18.885 41.618)">
        <line id="Линия_350" data-name="Линия 350" x2="1.957" transform="translate(0 0.899)" fill="none" stroke="#fff" stroke-linecap="round" stroke-linejoin="round" stroke-width="1.952"/>
        <line id="Линия_351" data-name="Линия 351" y1="1.797" transform="translate(0.978)" fill="none" stroke="#fff" stroke-linecap="round" stroke-linejoin="round" stroke-width="1.952"/>
      </g>
      <g id="Сгруппировать_14867" data-name="Сгруппировать 14867" transform="translate(123.541 12.221)" opacity="0.3">
        <line id="Линия_352" data-name="Линия 352" x2="1.389" transform="translate(0 0.638)" fill="none" stroke="#fff" stroke-linecap="round" stroke-linejoin="round" stroke-width="1.385"/>
        <line id="Линия_353" data-name="Линия 353" y1="1.275" transform="translate(0.694)" fill="none" stroke="#fff" stroke-linecap="round" stroke-linejoin="round" stroke-width="1.385"/>
      </g>
      <path id="Контур_16787" data-name="Контур 16787" d="M267.973,82.34a1.1,1.1,0,1,1-1.1-1.007A1.054,1.054,0,0,1,267.973,82.34Z" transform="translate(-208.656 -73.858)" fill="none" stroke="#fff" stroke-linecap="round" stroke-linejoin="round" stroke-width="1.609" opacity="0.7"/>
      <path id="Контур_16788" data-name="Контур 16788" d="M579,301.187a.808.808,0,1,1-.805-.74A.774.774,0,0,1,579,301.187Z" transform="translate(-433.522 -230.885)" fill="none" stroke="#fff" stroke-linecap="round" stroke-linejoin="round" stroke-width="1.182"/>
      <path id="Контур_16789" data-name="Контур 16789" d="M387.776,121.455a1.616,1.616,0,1,1-1.61-1.479A1.549,1.549,0,0,1,387.776,121.455Z" transform="translate(-294.453 -101.552)" fill="none" stroke="#fff" stroke-linecap="round" stroke-linejoin="round" stroke-width="2.364" opacity="0.7"/>
      <path id="Контур_16790" data-name="Контур 16790" d="M557.753,212.583a1.278,1.278,0,1,1-1.273-1.169A1.225,1.225,0,0,1,557.753,212.583Z" transform="translate(-418.182 -167.08)" fill="none" stroke="#fff" stroke-linecap="round" stroke-linejoin="round" stroke-width="0.693"/>
      <path id="Контур_16791" data-name="Контур 16791" d="M63.753,156.71a1.277,1.277,0,1,1-1.273-1.169A1.224,1.224,0,0,1,63.753,156.71Z" transform="translate(-60.97 -127.039)" fill="none" stroke="#fff" stroke-linecap="round" stroke-linejoin="round" stroke-width="0.693"/>
    </g>
    <g id="Сгруппировать_13643" data-name="Сгруппировать 13643" transform="translate(886.942 388.999)">
      <g id="Ñëîé_1" data-name="Ñëîé 1" transform="translate(6.717)">
        <g id="Сгруппировать_13639" data-name="Сгруппировать 13639" transform="translate(0)">
          <path id="Контур_16445" data-name="Контур 16445" d="M581.242,225.825a50.114,50.114,0,1,0-96.235,21.587c11,29.782,41.555,65.384,45.7,69.389a.689.689,0,0,0,.946.012c4.536-4.171,39.938-42.973,47.989-76.142.083-.315.157-.633.233-.951s.153-.636.22-.954a50.089,50.089,0,0,0,1.04-7.065c.007-.092.014-.185.021-.277.082-1.171.138-2.349.138-3.541C581.293,227.15,581.273,226.474,581.242,225.825Zm-50.066,28.051a25.985,25.985,0,1,1,25.985-25.985A25.985,25.985,0,0,1,531.176,253.877Z" transform="translate(-481.058 -177.765)" fill="url(#linear-gradient)"/>
          <path id="Контур_16446" data-name="Контур 16446" d="M516.1,249.441a41.037,41.037,0,0,1,2.587-16.349,41.784,41.784,0,0,1,8.978-14.141,42.405,42.405,0,0,1,13.9-9.555,42.431,42.431,0,0,1,33.175,0,42.4,42.4,0,0,1,13.9,9.555,41.789,41.789,0,0,1,8.979,14.141,41.036,41.036,0,0,1,2.587,16.349.4.4,0,0,1-.419.382.406.406,0,0,1-.382-.382,42.461,42.461,0,0,0-12.835-28.419,40.942,40.942,0,0,0-56.837,0A42.46,42.46,0,0,0,516.9,249.441a.4.4,0,0,1-.42.382A.406.406,0,0,1,516.1,249.441Z" transform="translate(-508.035 -199.553)" opacity="0.3" fill="url(#linear-gradient-2)" style="mix-blend-mode: screen;isolation: isolate"/>
          <path id="Контур_16447" data-name="Контур 16447" d="M587.244,250.517a33.473,33.473,0,1,0,33.473,33.473A33.473,33.473,0,0,0,587.244,250.517Zm0,59.458a25.985,25.985,0,1,1,25.985-25.985A25.985,25.985,0,0,1,587.244,309.975Z" transform="translate(-537.126 -233.863)" fill="url(#linear-gradient-3)"/>
          <path id="Контур_16448" data-name="Контур 16448" d="M561.07,541.417a56.379,56.379,0,0,1-41.014-17.624c13.277,25.766,37.1,54.7,40.72,58.205a.688.688,0,0,0,.946.012c3.808-3.5,29.4-33.034,42.261-60.321A56.411,56.411,0,0,1,561.07,541.417Z" transform="translate(-511.129 -442.962)" opacity="0.2" fill="url(#linear-gradient-4)" style="mix-blend-mode: multiply;isolation: isolate"/>
          <path id="Контур_16449" data-name="Контур 16449" d="M630.046,573.1a.4.4,0,0,0-.522.2l-.008.018a61.944,61.944,0,0,1-6.267,10.146q-3.537,4.845-7.356,9.489c-4.843,5.91-9.881,11.677-15.037,17.308-5.156-5.631-10.194-11.4-15.037-17.308q-3.806-4.649-7.356-9.489a61.927,61.927,0,0,1-6.267-10.146l-.008-.018a.4.4,0,0,0-.731.328,62.718,62.718,0,0,0,6.11,10.469q3.443,4.968,7.163,9.724,7.41,9.508,15.365,18.563a.927.927,0,0,0,.078.107.97.97,0,0,0,.272.165l.015.009a.982.982,0,0,0,.262.063.459.459,0,0,0,.269,0,.98.98,0,0,0,.262-.062l.015-.009a.97.97,0,0,0,.272-.165.936.936,0,0,0,.078-.107q7.948-9.079,15.365-18.563,3.707-4.762,7.163-9.724a62.725,62.725,0,0,0,6.11-10.469A.4.4,0,0,0,630.046,573.1Z" transform="translate(-550.738 -482.58)" opacity="0.3" fill="url(#linear-gradient-5)" style="mix-blend-mode: screen;isolation: isolate"/>
          <path id="Контур_16450" data-name="Контур 16450" d="M741.618,262.411a18.713,18.713,0,0,1,5.367,2.464c-2.727,3.431-3.915,4.971-3.915,4.971l-2.754-1.247Z" transform="translate(-680.97 -243.035)" opacity="0.2" fill="url(#linear-gradient-6)" style="mix-blend-mode: multiply;isolation: isolate"/>
          <path id="Контур_16451" data-name="Контур 16451" d="M577.608,289.659c2.376-4.047,5.455-8.8,9.414-10.47-1.672-3.167-3.08-5.631-3.08-5.631a30.122,30.122,0,0,0-12.054,13.373C574.616,288.163,577.608,289.659,577.608,289.659Z" transform="translate(-551.097 -251.63)" opacity="0.2" fill="url(#linear-gradient-7)" style="mix-blend-mode: multiply;isolation: isolate"/>
          <path id="Контур_16452" data-name="Контур 16452" d="M741.618,508.339a18.707,18.707,0,0,0,5.367-2.464c-2.727-3.431-3.915-4.971-3.915-4.971l-2.754,1.247Z" transform="translate(-680.97 -426.935)" opacity="0.3" fill="url(#linear-gradient-8)" style="mix-blend-mode: screen;isolation: isolate"/>
          <path id="Контур_16453" data-name="Контур 16453" d="M577.608,449.593c2.376,4.047,5.455,8.8,9.414,10.47-1.672,3.167-3.08,5.631-3.08,5.631a30.122,30.122,0,0,1-12.054-13.373C574.616,451.089,577.608,449.593,577.608,449.593Z" transform="translate(-551.097 -387.369)" opacity="0.2" fill="url(#linear-gradient-9)" style="mix-blend-mode: screen;isolation: isolate"/>
          <path id="Контур_16454" data-name="Контур 16454" d="M583.019,180.688a60.251,60.251,0,0,1,34.71,11.048,50.1,50.1,0,0,0-69.437.012A60.252,60.252,0,0,1,583.019,180.688Z" transform="translate(-532.902 -177.764)" opacity="0.1" fill="url(#linear-gradient-10)" style="mix-blend-mode: screen;isolation: isolate"/>
          <path id="Контур_16455" data-name="Контур 16455" d="M622.769,422.55a32.842,32.842,0,0,1-3.753,10.851,33.8,33.8,0,0,1-7.286,8.94,33.23,33.23,0,0,1-9.912,5.955,33.7,33.7,0,0,1-22.807.426,33.238,33.238,0,0,1-10.129-5.577,33.866,33.866,0,0,1-7.618-8.658,32.749,32.749,0,0,1-4.158-10.7,33.755,33.755,0,0,0,22.144,24.228,33.645,33.645,0,0,0,22.3-.414,33.863,33.863,0,0,0,21.216-25.048Z" transform="translate(-539.697 -366.516)" fill="#fff" opacity="0.4" style="mix-blend-mode: screen;isolation: isolate"/>
          <path id="Контур_16456" data-name="Контур 16456" d="M554.231,279.545a32.841,32.841,0,0,1,3.04-12.1,33.507,33.507,0,0,1,18.019-16.891,33.534,33.534,0,0,1,35.389,6.857A33.341,33.341,0,0,1,618,267.6a32.848,32.848,0,0,1,2.976,12.116l-.192-1.55-.263-1.537c-.1-.51-.218-1.016-.325-1.524s-.264-1-.4-1.505a33.09,33.09,0,0,0-2.266-5.775,33.619,33.619,0,0,0-17.831-16.282,33.448,33.448,0,0,0-24.056-.062,33.493,33.493,0,0,0-10.444,6.414A33.921,33.921,0,0,0,554.231,279.545Z" transform="translate(-537.481 -232.094)" fill="#fff" opacity="0.3" style="mix-blend-mode: screen;isolation: isolate"/>
        </g>
        <g id="Сгруппировать_13641" data-name="Сгруппировать 13641" transform="translate(25.819 25.025)">
          <g id="Сгруппировать_13640" data-name="Сгруппировать 13640">
            <path id="Контур_16457" data-name="Контур 16457" d="M738.514,329.547a.933.933,0,0,1-.066-.189.524.524,0,0,0-.062-.235.323.323,0,0,1-.138.132c-.038,0-.049.027-.038.073l0,0a.1.1,0,0,0-.086.1l-.033.024h0a1.672,1.672,0,0,1-.749-.188c-.031-.407-.271-.266-.448-.5-.384-.516-.555-.547-.437-.736a.365.365,0,0,1,.282-.175.209.209,0,0,0-.011-.02.179.179,0,0,1,.011.02l.014.01h.014l.032.062a.152.152,0,0,0,.092.127l.089.152a.116.116,0,0,0,.059.085l.03.072a.13.13,0,0,0,.074.132.094.094,0,0,0,.085.077.535.535,0,0,1,.221.1.092.092,0,0,0,.074.076.064.064,0,0,1,.023.016.194.194,0,0,0,.134.089.063.063,0,0,0,.041.04,1.4,1.4,0,0,1,.183.052c.367.208.4-.086.517-.065a26.49,26.49,0,0,0-4.388-10.71c-.081-.059-.191-.13-.4-.265s-.251-.168-.239-.121c-.1-.052-.182-.085-.292-.15a.249.249,0,0,0-.113-.04,1.4,1.4,0,0,1-.251-.063c-.025-.011-.032,0-.027.02a.754.754,0,0,0-.13-.061c.011.1-.092.055-.216-.013a2.644,2.644,0,0,1-.328-.262.3.3,0,0,1,.19.034c.044.019.03-.014-.025-.074a1.831,1.831,0,0,0-.625-.409c.131.123.186.207.187.272,0,.107.209.19.207.311,0,.053-.03.044-.133-.036s-.23-.177-.288-.167c-.094.016-.243-.044-.331-.011-.041.015-.041.023.041.128s.093.137.012.1a1.546,1.546,0,0,1-.477-.266c-.091-.076-.216-.125-.2-.062.009.039.049.067.078.1.1.1.2.081.247.192.038.085-.053.07-.13.018a2.739,2.739,0,0,1-.265-.191.737.737,0,0,0-.14-.106.25.25,0,0,1-.164-.144,1.428,1.428,0,0,1-.131-.212.323.323,0,0,0-.174-.225c-.075-.052-.152-.088-.173-.151-.029-.089.285.12.4.189a7,7,0,0,0,.813.428c.189.08.526.121.16-.248a.7.7,0,0,0-.121-.1,13.038,13.038,0,0,0-1.476-.988c-.305-.128-.422-.38-.6-.389a.8.8,0,0,1-.212-.081.266.266,0,0,1-.129-.114l.092,0-.023-.057c-.247-.2-.436-.26-.608-.393-.095-.074-.2-.131-.237-.059-.013.026-.041.013-.083-.031a.1.1,0,0,0-.092-.038c-.25-.306-.4-.109-.787-.307a.233.233,0,0,0-.055-.017c-.109-.026.059.137-.143.065-.162-.058-.325-.116-.489-.172-.043-.015-.1-.05-.121-.025-.059.077-.182.047-.264.09-.029.016-.081.005-.093.037-.026.07-.076.048-.155-.019a.153.153,0,0,0-.181-.033.8.8,0,0,0-.272.108c-.011.009-.037,0-.054,0-.04,0-.116,0-.09.062.045.1.269-.007.343.156.031.068,0,.088-.033.094a1.345,1.345,0,0,0-.329.16.184.184,0,0,0-.135.233c.03.19-.182.073-.19.146-.013.118-.114.12-.161.192s-.127.09-.229.059c-.3-.092-.171.139-.445.155-.181.01-.152.115-.319.111-.093,0-.165.155-.155.277a2.2,2.2,0,0,0,.167.515.911.911,0,0,0,.207.358c.01.088.052.128.118.133a.611.611,0,0,0,.741.148.379.379,0,0,1,.388-.124c.124.039.141.045.2.2a1.254,1.254,0,0,0,.217.362c.082.094.149.205.236.3.065.069.063.136,0,.143a1.54,1.54,0,0,0-.152.047c-.048.01-.108-.019-.149.016s.03.133-.007.179a.418.418,0,0,1-.095-.322h0a.223.223,0,0,0-.095-.141c-.128-.12.032-.179-.093-.3-.059-.057-.112-.054-.144,0-.048.075-.128.077-.215.076-.279,0-.149.384-.084.477.112.161.067.315.122.475.024.071-.036.091-.09.085-.218-.024-.409.049-.63.032-.123-.009-.232.044-.22.241a.143.143,0,0,1-.042.119,1.018,1.018,0,0,1-.54.31c-.263.023-.032.325-.32.352-.311.029-.094.208-.367.143a.326.326,0,0,1-.174-.079c-.047-.045-.1-.091-.149-.047-.083.076.133.286-.055.312-.057.008-.121.043-.173,0-.162-.129-.305-.046-.457-.069-.053-.008-.121-.006-.111.085a.254.254,0,0,0,.112.209.946.946,0,0,1,.67.445.293.293,0,0,0,.087.1.959.959,0,0,1,.208.856c-.039.215-.074.263-.25.257-.214-.008-.438-.148-.648-.068a.025.025,0,0,1-.018,0,3.358,3.358,0,0,0-.719-.141.688.688,0,0,0-.521.1c-.081.041-.079.1-.038.2a1.507,1.507,0,0,1-.024,1.292c-.017.077-.014.174.053.212.252.141.076.5.215.543.109.036.224.113.328.021l.116-.024.013,0h.013c.254.114.2.3.329.387l.033.194c-.056.135-.1.659-.62.806a.091.091,0,0,0-.035.014c-.146.123-.314.225-.3.5-.257.278-.106.429-.07.732-.081.135-.137.3-.268.38a1.417,1.417,0,0,0-.331.3c-.153.038-.463.033-.54.478a.207.207,0,0,1-.134.156c-.106.047-.148.154-.2.269-.061.138-.04.3-.105.434-.043,0-.065.033-.071.084a.036.036,0,0,1-.022.023.065.065,0,0,0-.058.065c-.047.143-.165.078-.139.237a.025.025,0,0,1-.01.025.16.16,0,0,0-.068.167l-.026.083a.035.035,0,0,0-.018.044.232.232,0,0,1-.035.118.1.1,0,0,0-.075.092l-.044.048-.01,0c0,.015.007.012.007.012h-.005l-.02.082a.164.164,0,0,1,0,.024.164.164,0,0,0,0-.024c-.043.012-.049.04-.021.083q0,.106-.007.212c-.03.008-.054.046-.035.068.193.219-.022.38.122.584a1.31,1.31,0,0,0,.181.26l.022.095c-.068.306.044.449-.055.641l.007.048-.007-.048c-.08.08-.08.238-.121.577h0a.1.1,0,0,0-.051.1.048.048,0,0,1-.011.028c-.173.115-.177.146-.042.308a.177.177,0,0,0,.034.025l.025.087a5.3,5.3,0,0,1-.023.784.2.2,0,0,0,.027.167c.106.116.155.326.335.318a.066.066,0,0,1,.053.03c.1.179.269.23.4.342a1.55,1.55,0,0,1,.339.677c.04.1-.127.183.044.252.073.03.137.1.21.128.427.169.578.514,1.218,1.007a.342.342,0,0,0,.407.011,1.519,1.519,0,0,1,1.43-.149.172.172,0,0,0,.186-.019c.209-.151.441-.138.538-.326l.086-.023c.017.011.032.007.044-.012a.2.2,0,0,0,.091-.026.978.978,0,0,1,.593-.207.453.453,0,0,0,.245-.013c.372-.105.43.392.544.59.15.261.173.206.437.108.174.048.441-.186.584.092.07.136.171-.024.209.292a1.081,1.081,0,0,1-.055.57c-.152.339-.052.6-.189.8s-.129.193-.041.391a.439.439,0,0,0,.076.143.456.456,0,0,0,.163.307c.138.149.214.364.349.511a.7.7,0,0,1,.161.409,6.587,6.587,0,0,0,.212.862c.087.325-.16.277-.08.489.046.122.051.267.1.387a.594.594,0,0,1-.005.379,3,3,0,0,1-.13.318c-.282.158-.38.712-.474.933-.041.033-.042.092-.054.151l-.042.067c-.042.031-.013.04-.119.627a.35.35,0,0,0,.034.266,1.849,1.849,0,0,1,.193.5c.025.114.051.227.074.341.014.068.033.128.093.144a.264.264,0,0,0,.026.122.442.442,0,0,1,.023.367.951.951,0,0,0-.034.511.312.312,0,0,1,0,.133,1.955,1.955,0,0,0,.006.708.25.25,0,0,0,.077.218.817.817,0,0,1,.165.286c-.01.036-.005.059.022.06a.662.662,0,0,0,0,.2.812.812,0,0,0,.094.366.307.307,0,0,1,.02.172,1.312,1.312,0,0,0-.117.522c0,.011,0,.025,0,.036s.009.039.029.041a.486.486,0,0,1,.2.1.094.094,0,0,0,.125-.021.768.768,0,0,1,.363-.194.233.233,0,0,0,.111-.06.9.9,0,0,1,.507-.232.823.823,0,0,0,.295-.1c.147-.1.292-.164.439-.251a1.29,1.29,0,0,0,.144-.114c.226-.188.433-.423.647-.641.446-.452.553-.75.8-.956a2.169,2.169,0,0,0,.471-.751.388.388,0,0,0,.059-.216c-.013-.058.037-.122.094-.172.1-.09.239-.154.5-.349a.6.6,0,0,0,.208-.27,3.612,3.612,0,0,0,.175-.583c.009-.052.012-.1-.026-.106a.239.239,0,0,0,.013-.141c.031-.1-.032-.149,0-.253a2.423,2.423,0,0,1,.442-.456.512.512,0,0,0,.1-.111,1.659,1.659,0,0,1,.607-.539.346.346,0,0,0,.151-.13.092.092,0,0,0,.028-.012.422.422,0,0,0,.154-.144.4.4,0,0,0,.1-.13.849.849,0,0,0,.257-.35l.016-.041a.193.193,0,0,1,.013-.035l.022-.084c.009-.013.011-.022,0-.029a1.454,1.454,0,0,1,.055-.413h0l.029-.119h0l.039-.186a.594.594,0,0,1-.137.026.594.594,0,0,0,.137-.026c.026-.1.054-.195.074-.291.073-.339-.146-.147-.127-.378.014-.169-.061-.321.08-.521-.024-.141.046-.336-.055-.438-.135-.137.154-.465.34-.971a.175.175,0,0,0,.076-.1.843.843,0,0,0,.05-.124c.4-.258.335-.456,1.159-1.34a1.755,1.755,0,0,0,.258-.262,1.037,1.037,0,0,0,.423-.37h0a6.216,6.216,0,0,0,.984-1.647,3.175,3.175,0,0,0,.185-.359c.041-.094.018-.222.077-.3.092-.118-.006-.205.041-.372.011-.041.019-.08-.018-.1s-.086-.041-.116.011c-.061.106-.156.1-.239.141-.108.049-.227.008-.327.07-.083.052-.159.008-.231.033s-.14.1-.221.12-.1-.086-.341.067c-.2.131-.262.027-.433-.19,0-.1-.073-.118-.122-.165.137-.132.145-.209.046-.347a.088.088,0,0,0-.011-.015,5.926,5.926,0,0,1-.467-.554.356.356,0,0,1-.065-.06c-.068-.1-.2-.079-.251-.214.021-.061.1-.029.111-.114-.014-.023-.031-.05-.049-.076s-.029-.084-.072-.074-.043.056-.043.1c0,.076-.024.116-.084.12-.038-.1-.029-.079-.052-.146-.06-.135-.052-.587-.273-.753a.836.836,0,0,1-.325-.774c.014-.189-.114-.339-.136-.52,0-.03-.048-.084-.095-.071-.051-.054-.081-.129-.153-.167a.3.3,0,0,1-.146-.267c-.009-.072.05-.139-.015-.214a3.408,3.408,0,0,1-.332-.608.1.1,0,0,0-.06-.094.154.154,0,0,1-.018-.039.162.162,0,0,0-.055-.138l-.025-.088h0c.037-.069-.054-.2.044-.238l0-.019c-.026-.012-.073-.04-.073-.04s.047.029.073.04l0,.019a.319.319,0,0,1,.238-.042.558.558,0,0,1,.118.141.268.268,0,0,0,.11.182l.028.044a.019.019,0,0,0,.015.024.045.045,0,0,0,.013.018c0,.016.011.023.023.02l.017.023a.112.112,0,0,0,.051.1.273.273,0,0,0,0-.031.273.273,0,0,1,0,.031l.048.082c.026.09.023.2.124.239l.014.012c.056.078.02.2.111.26.034.112.119.135.189.185a1.039,1.039,0,0,1,.313.557c-.044.13.028.254.056.378s.1.29.2.329c.343.13.306.614.637.921,0,.173-.173.074-.167.225,0,.058.046.071.079.1.107.082.229.151.192.354,0,.026.019.047.041.056.055.179.033.281.107.372.092.153,0,.291.1.4,0,.025.007.039.028.039l.061.02a.1.1,0,0,0,.128.007c.106-.043.223-.056.3-.178a.426.426,0,0,1,.234-.065c.185.012.361-.216.573-.222.025,0,.048-.048.071-.076.125-.148-.078.018.7-.309.2-.084.033-.257.231-.339a.987.987,0,0,1,.457-.118c.106.009.13-.022.137-.168.011-.032.016-.069.044-.087.154-.011.24,0,.261-.075C738.644,330.7,738.611,330.312,738.514,329.547Zm-8.147-12.1c-.013-.075.072-.017.1.046.01.024.012.045.023.068.028.062.054.078.08.06.1-.069.052.018.283.27.16.174.006.181-.1.075a1.039,1.039,0,0,0-.219-.181A.458.458,0,0,1,730.366,317.446Zm-.68,0a3.369,3.369,0,0,1,.413.32.187.187,0,0,1,.069.137c0,.18-.15-.045-.247.026-.023.017-.065-.016-.1-.057-.084-.092-.169-.183-.25-.279C729.415,317.414,729.555,317.4,729.687,317.451Zm-4.043.732c0-.059.017-.091.083-.041a.465.465,0,0,0,.215.064c.268.065.018-.246.371-.138.118.036.193-.021.289-.025.071,0,.062-.1-.012-.2-.117-.147.023-.089-.039-.354-.025-.109.015-.145.09-.136a.49.49,0,0,0,.25-.058.186.186,0,0,0,.088-.095.086.086,0,0,0-.015-.1c-.079-.092-.143-.218-.252-.246-.346-.088-.559-.776.186-.822.086-.005.18,0,.219-.083a.124.124,0,0,0,.007-.144c-.04-.081-.016-.118.016-.136a.279.279,0,0,1,.279-.046,1.565,1.565,0,0,1,.484.217c.061.049.082.107.045.127a1.092,1.092,0,0,1-.416.208c-.087.01-.144.081-.222.118s-.061.093.013.22c.269.46,0,.4.218.573.475.391.757.313,1.411.418.235.038.424.248.317.264a.791.791,0,0,1-.414-.053c-.13-.05-.254-.077-.382-.119a.457.457,0,0,0-.354,0c-.021.011-.047.03-.074.016-.145-.074-.158.071-.245.1-.043.012.011.11.069.131.271.1.2-.114.434.087.2.174.17.478-.056.274a.9.9,0,0,0-.353-.228c-.166-.043-.175.078-.178.222.051.021.071-.047.071-.047s-.019.068-.071.047a.1.1,0,0,0,0,.035v0c-.051.038-.033.092.041.159.013.053.027.106.04.159a.588.588,0,0,1,.047.087.588.588,0,0,0-.047-.087.151.151,0,0,1-.108.092c-.077.012-.1.127-.1.127a.255.255,0,0,0,.007-.034c-.047-.014-.069.012-.1.037-.146.137-.185-.123-.393-.144h0l-.088-.016c-.026.054-.123.061-.123.061s.1-.008.123-.062c-.089-.017-.21-.107-.22.05l-.086-.01a.222.222,0,0,1-.018.041.216.216,0,0,0,.018-.041c-.016-.011-.04-.035-.048-.03-.119.059-.28.016-.4.063-.065.025-.117.006-.182-.077a.655.655,0,0,1-.1-.144c-.031-.073-.071-.088-.114-.071a.151.151,0,0,0-.1.078l-.065-.01c-.015.063-.1.08-.1.08s.088-.017.1-.08c-.07-.012-.131,0-.156.07h-.059c-.027-.043-.082-.047-.1-.112C725.407,318.331,725.655,318.422,725.644,318.182Zm4.768,5.39a.172.172,0,0,1-.028.005.172.172,0,0,0,.028-.005Zm-.036.007h0Zm-.054,0-.082-.006Zm-2.74-4.787c-.013.04-.1.087-.1.087S727.562,318.84,727.581,318.792Zm5.37,7.18c-.079.046-.079.154-.085.258a2.524,2.524,0,0,0-.113.635.038.038,0,0,0-.02-.008h0c-.023-.014-.032-.006-.032.02l-.04.023a1.357,1.357,0,0,1-.6-.127.451.451,0,0,0-.6.107.16.16,0,0,1-.145.014c-.158-.083-.319-.1-.48-.185a.731.731,0,0,0-.494-.119c-.133.035-.081-.2-.268-.186-.105.009-.208-.082-.313-.091-.03,0-.056-.034-.074-.068-.146-.273-.587-.207-.775-.076-.291.2.109.345-.1.584-.1.113-.194.147-.347.009-.443-.4-.85-.171-.95-.61-.012-.051-.024-.112-.078-.122-.14-.027-.461-.251-.567-.213-.186.066-.351-.1-.525-.178-.082-.035-.05-.229-.256-.2-.079.012-.133-.08-.131-.191a.415.415,0,0,0,.229-.224c.077-.168-.02-.239-.1-.318h0a.064.064,0,0,0-.041-.048l-.024-.041c.005-.088.065-.123.1-.182.019-.033.048-.063.022-.113s-.065-.039-.093-.018c-.054.04-.094.013-.14-.055-.089-.131-.2-.138-.278-.071-.238.19-.669-.1-1.007.07a.168.168,0,0,1-.175-.009c-.358-.217-.673.016-.929-.012a.621.621,0,0,0-.49.154c-.076.065-.306.05-.418.211-.126.182-.292-.035-.947.023-.036-.036-.073-.07-.107-.108-.339-.383.257-.51.537-.418a.318.318,0,0,0,.213-.013h0c.059.014.1-.011.114-.079h0a.386.386,0,0,1,.1-.139h0a.081.081,0,0,0,.08-.047.142.142,0,0,0-.039-.006.133.133,0,0,1,.039.006l.107-.025h0c.034-.01.066-.02.039-.082a.623.623,0,0,1,.21-.281c.013-.07-.036-.087-.059-.121a.221.221,0,0,1-.027-.25c.137-.213.232-.483.5-.5a.148.148,0,0,0,.134-.107.287.287,0,0,0,.156-.022c.094-.048.113-.1.084-.237-.055-.269.042-.393.263-.333a1.978,1.978,0,0,1,.4.128c.265.134.267-.119.52-.142.181-.016.173-.295.45-.134.041.024.08.055.12.076a.323.323,0,0,1,.175.209c.1.312.267.349.615.705a.57.57,0,0,0,.25.178,1.384,1.384,0,0,1,.543.389.46.46,0,0,0,.128.108c.2.073.378.552.106.613a3.27,3.27,0,0,0-.4.06l-.07-.013a.335.335,0,0,0-.285-.049c-.051.01-.054.09-.006.135a.811.811,0,0,0,.1.063,4.422,4.422,0,0,1,.442.271c.132.119.156.112.219-.022.035-.047,0-.108-.006-.164-.016-.128.01-.173.113-.15.2.044.2-.212.324-.28.057-.032.042-.123-.031-.2a.516.516,0,0,1-.14-.224h0c.037-.1.091-.134.2-.051a.76.76,0,0,1,.193.147c.06.077.149.005.073-.109a.5.5,0,0,0-.17-.162,3.63,3.63,0,0,0-.41-.251c-.179-.067-.052-.2-.26-.236a1.551,1.551,0,0,1-.176-.051c-.023-.057-.067-.072-.1-.1a.663.663,0,0,1-.223-.3c-.057-.176-.139-.2-.35-.365a.491.491,0,0,1-.15-.459c.029-.064.094-.053.191-.064h0l.032.028c.073.062.067.192.151.237s.121-.054.2-.021a1.415,1.415,0,0,0,.729.742,3.109,3.109,0,0,1,.337.221.662.662,0,0,1,.427.681.206.206,0,0,0,.054.144c.1.112.174.251.282.364a.845.845,0,0,1,.3.5.146.146,0,0,0,.054.094.325.325,0,0,1,.108.212c.007.044.03.1.069.1.112-.018.225.124.344.1-.009-.092-.047-.206.051-.243.032-.012-.025-.076-.028-.133.123.055.226.049.285-.067-.053-.111-.117-.217-.233-.246-.07-.017-.094-.082-.282-.386-.024-.039-.053-.082-.039-.119.022-.058.081.012.141.039s.125.017.135-.068c.006-.052.011-.13.059-.106.144.073.249-.02.385.04.051.022.1.048.153.071h0a.57.57,0,0,1,.016.4c-.015.093.017.109.066.14.067.041.1.022.081-.069-.005-.026-.016-.058.019-.051.108.259.1.268-.088.26-.034,0-.057-.013-.058.036a.094.094,0,0,0,.033.076c.034.03.068.026.1.036.115.032.095.052.19.185a.374.374,0,0,1,.081.29.745.745,0,0,1,.575.232.215.215,0,0,0,.339,0c.024-.041.045-.074.095-.065a.6.6,0,0,1,.316.143c.2.177.427.213.56.08.1-.1.157-.033.3.005.116.031.16.08.146.206a.638.638,0,0,0,.068.328A.394.394,0,0,1,732.951,325.971Zm.938-1.854-.052,0c-.137.043-.311-.038-.466-.05a.932.932,0,0,1-.463-.164.341.341,0,0,0-.193-.057,1.1,1.1,0,0,0-.353-.21.152.152,0,0,1-.032-.025c-.025-.054-.062-.087-.1-.081-.165.025-.538-.145-.741.037-.1.092-.25.057-.822-.111a.829.829,0,0,1-.249-.554h0a.683.683,0,0,0-.009-.112h0c.107-.005.163.016.128-.059a.6.6,0,0,1,.021-.341c.1.028.162-.008.169-.116.012-.168.094-.113.188-.28.04-.071.139-.077.22.009.193.206.333.172.461.237,0,.1-.114.049-.128.126.071.118.227.1.265.288a.109.109,0,0,0,.147.091.739.739,0,0,1,.469-.058.062.062,0,0,0,.053-.009c.027-.017,0-.074-.026-.088-.105-.05-.319-.037-.388-.247-.033-.1.031-.109.48-.152.051-.005.091.029.143.1.173.252.171.323-.027.343-.018,0-.039,0-.043.024s.023.06.047.086a.379.379,0,0,0,.321.154s-.055,0-.082,0c.1.112.324.228.38.293a1.908,1.908,0,0,0,.434.36c.242.157.339.361.249.553a.545.545,0,0,0,.066.066A.555.555,0,0,1,733.889,324.117Zm.09.213a.137.137,0,0,0,.069-.089l.028.006-.028-.005A.138.138,0,0,1,733.979,324.329Zm1.346-.321L735.27,324c.047.186-.01-.037-.059-.221h0c.074-.036.006-.143-.033-.228-.118-.258-.109-.253.152-.3a.067.067,0,0,1,.07.038c.08.123.213.189.277.329.007.015.039.032.06.047.02.053.041.106.1.123.033.019.068.06.1.059.139.158.188.323.451.456.111.057.113.061.1.177h0c-.018,0-.024.008,0,.034l.042.1a.147.147,0,0,0,.041.082.339.339,0,0,1,.107.223l.036.14h0c.018.076.12.136.113.221a.335.335,0,0,0,.1.237.468.468,0,0,1,.081.176c.1.275.09.263-.112.3a.607.607,0,0,1-.474-.21.762.762,0,0,0-.257-.169.194.194,0,0,1-.128-.1c-.212-.4.1-.225-.075-.569.008-.047.018-.107.01-.059l.139.012c.061,0,.024-.085-.023-.106s-.11-.042-.166-.062l-.058-.048a.414.414,0,0,1-.072-.111l-.056-.076-.02-.017c-.032-.075-.1-.112-.145-.166A2.138,2.138,0,0,1,735.325,324.008Z" transform="translate(-689.538 -307.82)" fill="url(#linear-gradient-11)"/>
            <path id="Контур_16458" data-name="Контур 16458" d="M772.817,355.148s.037.035.056.052h0C772.854,355.183,772.817,355.148,772.817,355.148Z" transform="translate(-731.85 -339.568)" fill="url(#linear-gradient-12)"/>
            <path id="Контур_16459" data-name="Контур 16459" d="M649.567,291.229a.462.462,0,0,1,.031-.156c.028-.121.055-.141.151-.108.194.066.122.239.446.272.122.013.188-.006.35.007.043.027.052-.012.046-.044-.038-.184-.066-.378-.268-.43a.314.314,0,0,0,.081-.424c.1-.025.179-.085.272-.048s.147.005.17-.095c.056-.237.26,0,.443-.267.072-.1.113-.049.22-.032.041.006.056-.061.014-.094a.392.392,0,0,0-.334-.084c-.038.007-.045.042-.028.088s.064.046.04.108a.411.411,0,0,1-.182-.011.07.07,0,0,1-.061-.062c0-.03.018-.039.032-.055.073-.078.072-.079,0-.191l-.054-.038h0l.054.038a.32.32,0,0,0-.122-.207c-.056-.031-.025-.119.014-.1.066.031.129-.029.2.028a.2.2,0,0,0,.185.195c-.148-.181.072-.189,0-.373v-.011c-.014,0-.145-.025-.16-.028.011-.378.136-.328.279-.448a.073.073,0,0,0-.041-.114c-.1-.027-.106.06-.164.113s-.151.019-.125-.115c.009-.046.009-.1.072-.078.171.064.168-.208.309-.181l.063-.016c.131.031.057-.125.256-.095.145.022.26-.063.4-.065.012,0,.021-.018.032-.028.176-.022.22.015.291-.047a.754.754,0,0,0-.412-.132.288.288,0,0,0-.161-.071c-.18-.027-.639-.115-.719-.007a.021.021,0,0,0-.023.007c-.083,0-.163.068-.251-.05a.065.065,0,0,0-.071,0c-.065.042-.146.009-.215.039-.045.02-.086,0-.117-.061.028-.047.091.013.116-.042-.1-.082-.154-.1-.211-.1-.087,0,.026.1-.025.124a1.4,1.4,0,0,1-.128.077c-.04-.033-.074-.048-.07.034l-.042.023-.044-.011a.058.058,0,0,0-.027-.058.214.214,0,0,0-.013-.154c0-.005-.027-.025-.033-.03.016-.093.091-.074.139-.105.02-.013.048-.034,0-.056-.64-.184-.811-.05-.947-.219-.088-.023-.167-.1-.262-.075a.416.416,0,0,1-.155-.02.576.576,0,0,0-.452-.01c-.121-.009-.241-.023-.362-.023a11.5,11.5,0,0,0-2.25.209,1.691,1.691,0,0,1-.29.061,4.557,4.557,0,0,0-1.244.223c-.056,0-.1.009-.1.109l-.079.023c-.073-.1-.146-.121-.211-.038s-.14.1-.208.154l-.155.018c.01-.029.024-.068,0-.067s-.044.041-.047.078l-.172.045c-.025-.053-.077.075-.008.056.007,0,.01.006.009.015-.017.058-.057.073-.092.1h-.1c-.01-.022-.029-.024-.053-.014l-.008,0c-.063.042-.238-.069-.418.1-.005.005-.016,0-.024-.005-.077-.123-.294.033-1.011.257-.068-.006-.079.02-.213.09h0c-.237.069-.263.1-.277.041.039-.027.039-.056.022-.068-.079-.056-.368.144-.494.044-.01-.008-.033,0-.051.007-.238.054-.486.152-.719.209a13.661,13.661,0,0,0-3.1,1.4c-.283.338-.513.182-.91.572a.462.462,0,0,1-.146.1,3.279,3.279,0,0,0-.531.324c-.058.035-.123.085-.186.13a1.6,1.6,0,0,0-.194.144c.03.013.071-.011.127-.059.154-.134.073.044.129.017.082-.041.12-.012.211-.066-.019.084-.041.111-.146.176.041-.086,0-.066-.055-.029-.016,0-.042.013-.075.048a.449.449,0,0,1-.227.059c-.053-.017-.149.036-.233.07-.129.053-.329.262-.469.346a.09.09,0,0,0-.014.014c-.118.138-.232.224-.381.379.116-.063.155-.035.2-.01h0c.1-.057.178-.075.223-.038.1.084.653-.256.744-.3a1.5,1.5,0,0,0,.445-.3c-.018.121-.018.122-.13.2a.145.145,0,0,0-.055.051c-.047.079.062,0,.009.089-.062.07-.1.048-.169.131l.023.006h0l-.023-.006a2.484,2.484,0,0,1-.364.218c-.046.013-.118.107-.17.126-.257.092-.377.236-.472.223-.033,0-.071,0-.146.066a.173.173,0,0,0-.09.034s-.009,0-.02.01a1.4,1.4,0,0,0-.431.262c.012.049.1-.013.129.006,0,.018.012.014.04-.013l.029-.01c-.008.052.1-.019.035.1a2.1,2.1,0,0,1-.23.14c-.025-.022-.083.013-.154.071-.026.021-.066.076-.055.071.071-.035,0,.089.053.074s.064-.008.076.019.065-.008.123-.095a.862.862,0,0,0,.2-.089c.017.007.051-.015.082-.035a.3.3,0,0,0,.122-.119c.074-.14-.006-.134-.082-.076l0-.022h0a.323.323,0,0,1,.148-.182.548.548,0,0,1,.206-.1.085.085,0,0,0,.041,0c.056-.014.056.012-.031.107-.027.029-.053.069-.046.08.022.031.012.1.088.071a2.2,2.2,0,0,0,.561-.282c.027-.019.065-.054.077-.038.039.054.15-.022.529-.2.147-.07.287-.119.438-.2.056-.029.133-.1.171-.1a1.687,1.687,0,0,0,.495-.175.31.31,0,0,0,.207-.17c.015-.029.043-.045.055-.042.044.011.06-.043.083-.086s.007-.056-.019-.053a1.242,1.242,0,0,0-.711.23,3.436,3.436,0,0,0-.575.3c-.2.108-.355.138-.539.229-.008,0-.014,0-.021,0s-.007-.012-.021.013a.323.323,0,0,0-.069.069l-.028.011c.005-.037.011-.073-.028-.061h0l-.028-.013c.3-.313.317-.2.452-.29.287-.194.457-.133.7-.348.037-.033.062-.029.094-.045.133-.067.246-.087.388-.17.091-.053.216-.14.22-.017l.08-.046c.081-.017.19-.111.275-.126-.017.058-.085.082-.091.135.083-.046.082-.045.112-.141.01-.032.043-.056.064-.085.076-.045.134-.025.224-.118.024-.025.051-.04.059-.076.021-.095-.142.023-.2.047.007-.086.071-.105.117-.144a.257.257,0,0,0,.139-.1c.119-.193.184-.121.335-.222a.352.352,0,0,0,.178-.078,2.369,2.369,0,0,1,.4-.326c0-.036,0-.058,0-.081a.144.144,0,0,1,.09-.13c.126-.044.27-.163.4-.2.221-.063.241-.1.5-.344l.064-.03c.01.011.024,0,.041-.022a1.414,1.414,0,0,1,.19-.14c.27-.135.548-.324.815-.43.071,0,.132-.055.185-.16l.068-.038a.144.144,0,0,0,.1-.045l.1-.042c.084,0,.187-.1.276-.12.035-.035.076-.064.075-.022,0,.026-.037.044-.059.057a.147.147,0,0,0-.016.036c-.022.274-.017.09-.489.284-.184.076-.373.235-.555.311a.463.463,0,0,0-.216.129c-.021.024-.054.037-.055.074,0,.091.114.022.42-.067.044-.013.11-.058.114.008,0,.082-.086.084-.112.147a7.136,7.136,0,0,0-.906.385.324.324,0,0,1-.1.052,6.233,6.233,0,0,0-.584.31.2.2,0,0,0-.1.1c-.022.059.022.043.048.042s.047.017.086-.007l.124-.036c.036.045.126-.012.177.016a.367.367,0,0,0-.167.185c-.009.018.008.021.026.006.331.09.364.123.45.081a1.058,1.058,0,0,0,.57-.167c.026-.017.056-.037.071-.025.079.063.2-.03.306-.085.03-.016.06-.04.084-.027.118.061.16-.129.3-.108a3.835,3.835,0,0,1,.517-.038c.12.074.312.015.4.165.006.011.025.008.038.012a.4.4,0,0,1,.315.257,1,1,0,0,1,.181.535c0,.056-.021.126.046.121a.4.4,0,0,0,.43-.086c.158-.141.1.207.263.089a.128.128,0,0,1,.1-.058.128.128,0,0,0-.1.058.329.329,0,0,1,.06.034c.057.05.03.092-.039.128-.2-.023-.13-.045-.306,0-.062.015-.169-.04-.167.15,0,.027-.035.033-.055.04-.076.028-.081.1-.092.167s.024.09.067.111a.647.647,0,0,0,.515-.051.2.2,0,0,0,.107-.071c.042-.06-.008-.079-.007-.12,0-.01.026-.027.04-.041l.151-.021a.679.679,0,0,0,.017.168.236.236,0,0,1-.174.284c-.161.032-.323-.023-.481.261-.2.361-.058.352-.081.457-.088.414.309.311.294.581-.01.181.156.222.159.4,0,.008.017.012.026.017a.8.8,0,0,1,.247.237c.007.085.059.078.114.066.063.3.241.287.355.431s.16-.008.641.064c.051.008.1.009.133.063.1.17.275.147.435.148a.178.178,0,0,0,.173-.1c.03-.056.011-.111.017-.166a.028.028,0,0,0,.023-.018c.022.008.052.011.062-.019.1-.3.247-.335.225-.562s.221-.2.331-.421a.083.083,0,0,0,.068-.034c.039,0,.087-.038.079-.072-.033-.137.12-.217.089-.351-.008-.033.034-.054.06-.071.22-.143.332-.268.624-.253.244.013.517-.182.755-.244a.4.4,0,0,0,.28-.216.031.031,0,0,0,.023-.021c.018.008.03,0,.034-.023.039-.021.083-.032.106-.084.047-.035.07-.106.123-.13a.928.928,0,0,0,.221-.1.147.147,0,0,1,.14-.043,5.086,5.086,0,0,0,1.1-.146,1.391,1.391,0,0,0,.569-.148,3.109,3.109,0,0,1,.729-.287C650.085,291.34,649.829,291.233,649.567,291.229Zm1.288-2.69a.4.4,0,0,0,0-.081.4.4,0,0,1,0,.081.455.455,0,0,1-.045.054A.455.455,0,0,0,650.855,288.539Zm.057.349Zm-.089.859c.015,0,.03,0,.033.026,0,.006-.014.016-.023.015s-.017-.012-.026-.018S650.815,289.749,650.822,289.746Zm-.172-1.127-.138.152Zm-.145,1.316h0a.18.18,0,0,0-.017-.055A.18.18,0,0,1,650.5,289.935Zm-.2-.619.008.013-.008-.013Zm-.054-.071.05.068Zm-.247.773-.013.011h0Zm-.1.119.006.008-.006-.008Zm-15.62,2.027Zm.344-.121-.078.046.078-.046c.008-.012.021-.038.021-.038S634.64,292.03,634.632,292.043Zm.057-.146h0a.322.322,0,0,0,.064-.023A.322.322,0,0,1,634.689,291.9Zm-.85.959h0c.007-.013.027-.041.027-.041S633.846,292.842,633.839,292.855Zm1.356-.814s.1-.069.152-.108h0C635.3,291.973,635.194,292.042,635.194,292.042Zm.237-.27-.091.027c-.017-.031.011-.07.06-.093s.085-.014.145-.055c.012-.027.045-.08.045-.08s-.033.054-.045.08l.017.029h0l-.014.081C635.48,291.813,635.493,291.73,635.431,291.772Zm.238-.565a.877.877,0,0,1,.1-.038c-.007.018-.017.052-.017.052s.01-.034.017-.052A.852.852,0,0,0,635.669,291.207Zm-.01-.046c-.027.034-.035.055-.026.066-.05.081-.117.125-.122.1-.016-.072-.122.015-.188.032a.447.447,0,0,0-.059.026.433.433,0,0,1,.059-.026c.016-.028.032-.056.021-.064.04-.052.074-.059.112-.1h0l.041-.034a.129.129,0,0,1,.162,0Q635.9,291.039,635.659,291.161Zm.156.5a.009.009,0,0,1-.008,0,.009.009,0,0,0,.008,0Zm.4-.564c.037-.046.115-.131.115-.131s-.078.085-.115.131Zm-.236.319h0a.3.3,0,0,0,.062-.02A.317.317,0,0,1,635.98,291.419Zm.139-.181a.357.357,0,0,1-.054.09.361.361,0,0,0,.054-.09.176.176,0,0,1,.056-.026A.176.176,0,0,0,636.119,291.238Zm.138-.128a.059.059,0,0,1-.031,0,.059.059,0,0,0,.031,0c.006.009.029.007.029.007S636.263,291.119,636.257,291.11Zm-.062.274Zm1.026-1.166a.72.72,0,0,0-.088.044.71.71,0,0,1,.087-.044,1.213,1.213,0,0,1,.225-.161A1.211,1.211,0,0,0,637.222,290.217Zm1.435.392.595-.208Zm1.011-.477a.211.211,0,0,1,.024-.01Zm2.212.521a.471.471,0,0,0-.035-.113.462.462,0,0,1,.035.113Zm.158.21Zm.1.068,0,0,0,0Zm.485-2.673-.088.049-.015-.031a.123.123,0,0,0,.028-.076c.064-.042.091-.026.075.058Zm-.193,3.489c.036,0,.091-.041.073.05C642.477,291.791,642.447,291.785,642.435,291.746Zm.881-3.736.07-.011Zm-.82,4.862Zm.515-.764v0Zm.127.631Zm-.055-.728Zm.034-.2Zm-.015.079a.289.289,0,0,1,.038.015.289.289,0,0,0-.038-.015Zm-.146,1.325.15.163Zm1.7,1.544c-.008-.031-.015-.09-.015-.09s.007.058.015.09Zm4.031-4.037s.029-.014.025-.039h0C648.721,290.706,648.692,290.72,648.692,290.72Zm.21.176a.242.242,0,0,0-.066-.041.242.242,0,0,1,.066.041Zm.793-.314Zm-.6-.392a.182.182,0,0,0,.019.015.182.182,0,0,1-.019-.015.233.233,0,0,0-.019-.038A.233.233,0,0,1,649.094,290.189Zm-.024.891a.178.178,0,0,0,.066-.063h0A.178.178,0,0,1,649.07,291.08Zm-.062-.181h0l.151-.024h0l.2.032A1.044,1.044,0,0,0,649.008,290.9Zm.4-.408s.033-.018.05-.031h0C649.443,290.473,649.41,290.491,649.41,290.491Zm-.3-2.739a1.751,1.751,0,0,0,.289-.055.194.194,0,0,1,.049,0,.194.194,0,0,0-.049,0A1.751,1.751,0,0,1,649.111,287.752Zm.574,3.073a.189.189,0,0,1,.117-.084.189.189,0,0,0-.117.084c-.057.052-.165-.008-.165-.008S649.628,290.877,649.685,290.825Z" transform="translate(-624.001 -287.088)" fill="url(#linear-gradient-13)"/>
            <path id="Контур_16460" data-name="Контур 16460" d="M616.636,336.745c-.11-.461-.326-.173-.543-.327-.526-.373-.236-.3-.9-.78a.283.283,0,0,0-.229-.059,1.58,1.58,0,0,1-.413.006.462.462,0,0,0-.244-.062.232.232,0,0,0-.226-.119.173.173,0,0,0-.038-.01c-.417,0-.24-.348-.487-.41a.874.874,0,0,1-.2-.1c-.463-.257-.624-.168-.824-.374-.068-.206-.168-.393-.254-.588a.494.494,0,0,0-.331-.321.12.12,0,0,0-.06-.067c-.073-.016-.094-.1-.139-.158a.492.492,0,0,1-.079-.248.547.547,0,0,0-.261-.505c-.661-.551-.906-.684-1.216-.551-.44.189-.8-.524-.99-.773-.065-.087-.122-.14-.212-.136a1.9,1.9,0,0,0-.546-.545l0-.081.037-.007c.142-.03.123-.24.039-.239s-.081.1-.091.171c-.064.049-.122.122-.208.093l-.046-.037c0-.109-.03-.192-.116-.2-.089-.08-.2-.013-.29-.073s-.11-.058-.126.118c-.043.032-.086.066-.13.1-.329.227-.306-.257-.789-.112a.257.257,0,0,1-.315-.095c-.035-.205-.074-.243-.272-.262a.147.147,0,0,0-.1,0h0a.908.908,0,0,1-.068-.194c-.014-.08-.111-.091-.129.017-.012.068.014.144-.026.2l-.01.007-.125.028c-.038-.122,0-.278-.1-.37-.079-.128-.173-.084-.238,0-.521.652-.989.214-1.046.818-.006.061.008.151-.036.171-.135.06-.185.229-.287.329s-.136.006-.331-.186c-.509-.5-.813.371-1.136-.02-.142-.171-.592-.475-.471-.987a3.135,3.135,0,0,0,.022-.665c.042-.052.078-.111.125-.159.173-.177.04-.445-.259-.433-.021-.1-.015-.118-.106-.146a.087.087,0,0,0-.081-.073.839.839,0,0,0-.371.02c-.2.09-.408.012-.61.057-.087.02-.122-.081-.063-.174a.462.462,0,0,0,.081-.2c.027-.215.109-.413.147-.626a1.43,1.43,0,0,0,.074-.277c-.006-.492.306-.392.207-.7-.03-.091-.1-.06-.166-.067a1.6,1.6,0,0,0-.625.13c-.567.171-.2.683-.641.828-.286.094-.574.313-.714.228-.206-.124-.447-.2-.509-.526-.016-.085-.189-.182-.18-.461a.08.08,0,0,0-.046-.075c-.137-.233.018-.52-.013-.674a1.031,1.031,0,0,1,.107-.427.733.733,0,0,0,.086-.619.521.521,0,0,1,.047-.23c.462-.5.44-.269.8-.7l.08-.047a.9.9,0,0,1,.361-.038c.025.035.051.024.13.025l0,0c.034.044.075.034.119-.011l.044.011a.062.062,0,0,0,.059.068c.1.2.363-.1.519.013.049.036.1-.023.1-.106,0-.028-.006-.054-.006-.081,0-.131.027-.17.129-.2a1.545,1.545,0,0,1,.363-.079c.062.041.119-.017.178-.058a.377.377,0,0,1,.335.125c.164.227.284-.106.427-.058a.543.543,0,0,1,.236.591c-.053.221,0,.263.252.768-.039.18-.051.429-.289.467-.015,0-.03.025-.024.066a1.1,1.1,0,0,0,.447-.02.208.208,0,0,0,.153-.155l.047-.025a.029.029,0,0,0,.018-.02.137.137,0,0,0,.018-.025c.04-.011.054-.046.057-.092a1.258,1.258,0,0,0,.035-.764,5.535,5.535,0,0,0-.174-.65,1.038,1.038,0,0,1-.054-.24.613.613,0,0,1,.06-.407.956.956,0,0,1,.333-.417,2.126,2.126,0,0,0,.482-.512.26.26,0,0,0,.3-.156.239.239,0,0,1,.14-.119c.165-.018.277-.185.415-.277a.226.226,0,0,0,.1-.228c0-.117-.175-.237-.016-.469.2-.3.309-.663.536-.947a.4.4,0,0,0,.056-.148.205.205,0,0,1,.116-.139c.156-.1.355-.031.472-.3.007-.016.045-.018.068-.027.346-.131.486.032.52-.144.014-.07-.029-.077-.07-.084-.242-.037-.062-.523.143-.638.681-.38.7-.328.884-.5a.836.836,0,0,1,.5-.172.817.817,0,0,1-.186.181.312.312,0,0,0-.1.282c.019.1.088.081.153.077.258-.012.344-.369.563-.376a.51.51,0,0,0,.125-.042,5.1,5.1,0,0,0,.832-.461c.183-.106.118-.108.05-.318-.062-.191-.07-.152-.414.26-.056.068-.166.029-.122-.059.072-.144-.008-.142-.075-.117a.343.343,0,0,1-.37-.073c-.136-.116-.121.118-.2.151a.376.376,0,0,1,.065-.464c-.141-.018-.29.082-.4-.009a.481.481,0,0,0,.374-.146c.053-.047.126-.074.127-.163a.136.136,0,0,0-.124-.149.454.454,0,0,0-.086,0,2.024,2.024,0,0,0-1.042.423c-.048.033-.095.1-.152.049.277-.455.526-.3.646-.51a.479.479,0,0,1,.3-.244c1.014-.287,1.473.027,1.964-.429a1.075,1.075,0,0,1,.672-.312.23.23,0,0,1-.055.121,4.18,4.18,0,0,0-.375.532c-.359.528-.478.6-.428.732.026.069.084.054.139.032a1.145,1.145,0,0,1,.253-.05c.163-.028.314.035.482-.014.2-.06-.037.3.214.208.089-.033.243-.222.3-.113.05.09.148.072.207.134.1.106.18-.015.3-.225.027-.049.046-.119.017-.15-.07-.075-.047-.224-.094-.277a.741.741,0,0,1-.137-.309c-.079-.271-.442.167-.618-.185-.005-.01-.021-.009-.03-.016-.079-.065-.085-.116,0-.2a.9.9,0,0,0,.14-.228c.021-.037.03-.082,0-.092-.1-.029-.044-.1-.017-.182.108-.328.04-.5-.2-.55a.183.183,0,0,1-.151-.15c-.066-.27-.287-.095-.362-.157-.139-.115-.334-.11-.461-.245a.253.253,0,0,1-.1-.188c0-.073,0-.155-.064-.179l-.029-.039c-.008-.078-.014-.157-.1-.152-.007-.114-.124-.1-.145-.186-.05-.217-.315-.374-.339-.564-.008-.066-.066-.07-.116,0a1.477,1.477,0,0,0-.221.3.587.587,0,0,1-.206.247c-.453.364-.538.14-.648.1-.187-.076-.217-.225-.1-.516.036-.086.016-.094-.039-.084-.25.046-.388.064-.433-.021-.073-.14-.218-.155-.34-.2a.24.24,0,0,0-.2.026,1.217,1.217,0,0,1-.614.134c-.2,0-.489.112-.409.31.016.039.06.075.009.136-.191.228.075.27-.06.448-.318.416-.391.4-.215.481a.171.171,0,0,0,.079.02c.163-.006.207.258.164.461a1.615,1.615,0,0,1-.8.68c-.23.094-.045.24-.048.353a1.622,1.622,0,0,0,.007.352.155.155,0,0,1-.1.18.4.4,0,0,0-.167.154c-.088.111-.182.139-.231.06-.037-.06-.064-.123-.146-.116-.027,0-.038-.029-.024-.067a.11.11,0,0,1,.119-.075.117.117,0,0,0,.086-.189c-.1-.1-.376.046-.264-.342.063-.218.045-.268-.118-.246a1.1,1.1,0,0,0-.366.1c-.238.12-.265-.1-.535-.021a.077.077,0,0,1-.062-.015.583.583,0,0,0-.565-.136c-.062.021-.1-.091-.389.053-.24.121-.212-.147-.22-.21-.019-.138-.116-.071-.256-.031-.2.056,0-.354.141-.51a1.272,1.272,0,0,0,.235-.291h0c.1-.1.209-.2.314-.286a1.664,1.664,0,0,1,.406-.3c.147-.046.231-.369.5-.451a1.361,1.361,0,0,0,.526-.362.4.4,0,0,0,.144-.2.176.176,0,0,1,.077-.1,1.179,1.179,0,0,1,.171-.125c.007.056-.043.124-.072.185a.787.787,0,0,1-.293.4.074.074,0,0,0-.016.015c-.086.1-.079.15-.016.126a1.168,1.168,0,0,0,.182-.076c.064-.036.091-.021.108.02h0c-.017.08.034.047.128.012.04,0,.079-.027.115-.088l0,0c.262-.117.309-.344.494-.285a.767.767,0,0,0,.278-.005.224.224,0,0,0,.145-.039.143.143,0,0,0,.106-.124c0-.105-.113-.028-.229-.016.019-.089,0-.146-.066-.135-.142.022-.228-.058-.37-.03-.061.012-.109-.009-.09-.1.065-.039.068.009.1.017a.139.139,0,0,0,.14-.044c.066-.062.024-.1.044-.15,0,0,0-.008,0-.012s.013-.016.018-.007c.1-.07.2-.181.3-.25.636-.418-.025-.282.275-.509.164-.124.193-.2.128-.3a.564.564,0,0,1-.13.135.564.564,0,0,0,.13-.135l0-.006c0-.015-.008-.015-.024,0a.183.183,0,0,1-.127.035c.231-.378.378-.021.747-.332.02-.017.04-.016.042.006,0,.051-.1.154-.169.2-.132.082-.185.1-.211.156-.013.031,0,.039.016.043.181.04.117.118.278.043.209-.1,0-.24.276-.453a.274.274,0,0,1,.061-.029c.06-.081.093-.028,0,0-.052.181.164.141-.053.319a.215.215,0,0,0-.1.2c0,.057.021.09.07.089a.339.339,0,0,0,.179-.026.818.818,0,0,0,.337-.135c.113-.071.471-.26.457-.132a.153.153,0,0,1-.051.091,1.555,1.555,0,0,1-.229.189c-.151.1-.3.282-.456.323a.375.375,0,0,1-.3.2.819.819,0,0,0-.326.254c-.068.072-.081.145-.033.153a.507.507,0,0,0,.372-.046.886.886,0,0,1,1.047,0c.068.049.157.064.21.139.02.028.063.015.1-.008a.23.23,0,0,1,.253-.026c.035.023.086.009.135-.006a.076.076,0,0,0,.026,0c.007.028.022.046.048.046a4.226,4.226,0,0,1,.675.026c-.01-.117,0-.214-.117-.155a.537.537,0,0,0-.341-.164c.033-.1.1-.112.158-.136.377.127.317-.018.462.126.04.04.086.079.211-.005-.123.028-.108-.032-.087-.119a.189.189,0,0,1,.112-.152.105.105,0,0,0,.067-.073c.014-.068-.048-.058-.1-.053l-.022-.043c.021-.106-.008-.155-.095-.134l-.04-.03c.007-.021,0-.03-.016-.022l-.007-.019-.008-.011-.015.009-.155.056c0-.164-.248-.148-.148-.433.419-.182.382.245.8.192a.2.2,0,0,0-.008-.024.2.2,0,0,1,.008.024c.069.013.1-.038.121-.125a.364.364,0,0,1,.161-.092c.165-.046.255-.248.381-.373.006-.006.005-.026.008-.039-.01-.052-.051-.05-.087-.059-.014-.042-.043-.019-.088-.008a1.133,1.133,0,0,0-.409-.074.3.3,0,0,0-.3-.083c-.178.052-.288-.046-.43-.065-.03,0-.038-.035-.028-.079.028-.119.13-.071.179-.168-.014-.046-.078-.033-.068-.11.016-.121-.053-.138-.127-.144-.03,0-.077.03-.079-.023,0-.1-.073-.052-.136-.017l-.03-.027v-.008l-.007,0c-.056-.009-.13.046-.187.04-.032,0-.088.049-.11.018-.051-.073-.156-.052-.219-.1a.414.414,0,0,0-.227.016.388.388,0,0,1-.363.013c-.118.04-.157-.069-.268-.039-.019-.018-.046-.01-.083.022h-.03c.073-.106.074-.12.014-.128a.408.408,0,0,1-.139-.012c-.125-.063-.278.042-.545.113a.193.193,0,0,0-.2.06h0l-.044.044c-.131.094-.239.011-.466.173l-.36.194c-.059-.111-.206-.044-.38.076-.176.087-.221.06-.341.2a2.07,2.07,0,0,0-.509.492.442.442,0,0,0-.115.185c-.094.171,0,.179.025.237.036.074.161.023.269-.01.065.052.152.065.311-.08a.286.286,0,0,0,.143-.036q-.061.171-.12.344a1.407,1.407,0,0,1-.216.28l-.045,0c-.005-.023-.008-.052-.044-.029a.155.155,0,0,0-.068.111c-.007.04.039.045-.013.113a.2.2,0,0,1-.118.075c-.064.022-.092-.016-.135-.027s-.048-.037.031-.134c.18-.225.058-.213-.108-.224a.167.167,0,0,0-.113.065c-.184.075.02-.081-.233-.022-.064.015-.148.045-.091-.089a.352.352,0,0,0-.036.012l-.009-.005c.038-.092-.021-.064-.146-.039.113-.234-.115-.1-.113-.187.058-.082.124-.109.17-.185a.474.474,0,0,1,.145-.137.616.616,0,0,0,.3-.186.162.162,0,0,0,.064-.06l.11-.106a.163.163,0,0,0,.068-.058.893.893,0,0,0,.137-.14,4.359,4.359,0,0,0-.421.161,2.217,2.217,0,0,0-.51.266.751.751,0,0,0-.236.255c-.04.07-.149.173-.064.132.022,0,.018.027.025.042-.044.134-.043.133-.184.266a.732.732,0,0,0-.141.152.248.248,0,0,0-.083.054l-.009.01a.4.4,0,0,0-.052.107c-.043.095-.123.213-.075.252-.084.055-.141.084-.167.058-.044-.042-.15.038-.251.131a1.523,1.523,0,0,1-.269.238.154.154,0,0,0-.053.062c-.024.047.019.024.195,0a.585.585,0,0,0-.191.218c-.039.094-.249.1-.531.282-.334.209-.258.084-.524.219a.173.173,0,0,1-.095.026c-.054-.011-.139.021-.192.013.027-.109-.324.2-.521.308a.239.239,0,0,0-.03.025c-.072.063-.1.1-.074.116s.052,0,.005.065-.072.064-.136.1l-.046.022c.03-.081.025-.08-.066.014-.026.015-.051.027-.057.016,0-.051-.048-.02-.128.051l-.057.039a.264.264,0,0,0-.06.048,5.73,5.73,0,0,1-.812.475c.12-.126.189-.135.3-.263-.124-.027-.3.133-.5.261a32.1,32.1,0,0,0-4.109,9.186.221.221,0,0,0,.018.086c.2.594.117.633.231.7a.455.455,0,0,1,.183.165c.029.049.078.085.041.179s-.109.111-.176.13c-.008,0-.016.018-.023.027a.36.36,0,0,0,.254.238.586.586,0,0,1,.245.139c.232.169-.062.328.09.46.106.093.33.195.407.412.016.045.031.1.088.054s.126-.1.1-.17-.052-.21-.131-.221c-.12-.016-.157-.08-.132-.221a.045.045,0,0,0-.013-.03.676.676,0,0,1-.115-.349c-.024-.182-.265-.31-.268-.577,0-.024-.028-.039-.043-.058.042-.2.011-.248-.148-.227-.174-.135-.15-.185-.1-.559.081-.005.149.036.241-.007.134.112.068.055.131.192v.005c-.017.171.13.259.055.466-.006.018.005.033.023.028.1-.027.1.134.227.182.005.086.109.053.118.122.021.164.133.214.232.283.146.1-.092.236.089.329.049.025.1.042.152.063a.038.038,0,0,0,.015.018l.031.039a.288.288,0,0,0,.139.185.349.349,0,0,0,.04-.079.349.349,0,0,1-.04.079c.1.147.21.288.3.45.37.655-.074.741.178,1.037.182.215.241.119.37.314a.2.2,0,0,0,.106.084,3.648,3.648,0,0,1,.661.344c.271.148.56.269.849.395.67.293.458-.681,1.352.437.273.341.344.135.777.39a.606.606,0,0,0,.439.071c.055.054.06.169.143.19a1.824,1.824,0,0,0,.291.395c.3.3.017.486.264.637.121.074.4.076.447.292.093.4.543.224.632.424.048.109.149.125.217.207.053.065.127.016.18-.031s.03-.106,0-.162c-.059-.119-.018-.144.2-.363a.067.067,0,0,1,.1,0c.066.056.149.1.173.205.082.364.291.488.345.768.029.149-.037.286,0,.431.046.165-.065.333.045.5a.061.061,0,0,1-.006.042c-.061.109-.082.26-.214.287-.206.042-.079.555-.384.578a.108.108,0,0,0-.114.125,1.658,1.658,0,0,1-.138.541,1.938,1.938,0,0,0,0,.487.03.03,0,0,0,.012.018c.1.054.163.209.281.23l-.049.095a.381.381,0,0,0-.247.32h0c-.091.033-.047.093.017.187.018.121.1.228.1.352-.143.1.312.251.432.62a.466.466,0,0,0,.075.138,3.391,3.391,0,0,1,.389.713c.513,1.1.729,1.141.713,1.461,0,.018.029.049.046.074a.066.066,0,0,0,.011.022.068.068,0,0,0,.041.056c.087.155.227.241.321.388a1.964,1.964,0,0,0,.5.355.259.259,0,0,0,.155.114,3.309,3.309,0,0,1,.681.634c.021.057.065.081.1.117h0a.057.057,0,0,0,.01.042.969.969,0,0,0,.086.355c.11.759.163.947.063,1.161-.016.035.016.082.024.122a4.156,4.156,0,0,1,.107,1.391c-.011.11.023.245-.028.331a.106.106,0,0,0,.025.113.629.629,0,0,1,.08.16.438.438,0,0,0,.091.048.438.438,0,0,1-.091-.048.265.265,0,0,1-.013.087c-.084.128-.03.3.049.482a2.805,2.805,0,0,1,.063.995c0,.03,0,.063-.019.075-.051.031-.033.116-.047.176-.03.128.018.321-.1.369-.043.017-.015.1.015.169a1.381,1.381,0,0,1,.193.775.359.359,0,0,0,.011.089,3.206,3.206,0,0,1,.057.713c-.016.089.2.19.211.1a.407.407,0,0,0-.01-.287c-.017-.037-.03-.067,0-.064s.051.032.07.066a.461.461,0,0,1,.036.181c.013.068-.013.131.077.209l.017.034c-.021,0-.044.015-.045.054-.007.2-.367-.247-.232.192a.386.386,0,0,1-.053.407c-.028.033,0,.073.04.122.105.124.106-.084.228.155a.327.327,0,0,0,.041.05l.015.073c-.016.01-.016.032,0,.065l0,.008c-.208-.094-.223-.082-.152.129-.016.029,0,.075.026.127a1.524,1.524,0,0,1,.159.4c.02.121.19.162.145.284-.009.025-.006.051.028.106a2.828,2.828,0,0,0,.521.676.569.569,0,0,1,.07.071.633.633,0,0,0,.341.284.775.775,0,0,0,.287.248,3.267,3.267,0,0,1,.358.228c.078.129.094.059.128.048l.055.023c.1.175.2-.017.586.1.027.008.053.005.049-.034-.007-.054-.048-.074-.081-.1-.321-.264-.505-.4-.555-.612-.042-.185-.144-.21-.323-.509-.208-.348.164-.121.132-.451-.026-.266.179-.163.283-.269a.335.335,0,0,0-.194-.435l-.25-.067c-.073-.071-.162-.092-.177-.273.073,0,.072-.076.069-.154l-.013,0,.013,0c.153,0,.213.041.249-.031.041-.007.074,0,.061-.066.06-.069.016-.2,0-.312.008,0,.011-.006.011-.016a.086.086,0,0,1,.054-.074c.1.021.162-.038.257-.027.111.012-.031-.39-.151-.315-.066.041-.147.012-.231-.018l-.058-.237c.023-.13.026-.13.141-.068.049.027.1.094.148.067.22.052.518.182.488-.246-.011-.159.037-.22.159-.209.057,0,.11-.005.166-.005.039,0,.068-.01.072-.061.238.013.347.067.4-.083l.062,0h0a.59.59,0,0,0,.248-.4.236.236,0,0,0-.014-.141.584.584,0,0,1-.014-.43c.088-.025.163-.1.275-.043.245.117.523-.307.656-.526a1.335,1.335,0,0,0,.13-.347c.065-.043.139-.073.176-.16.086.006.131-.042.131-.15h0c.109-.059.1-.2.112-.331a3.386,3.386,0,0,1,.257-.35c.317-.338-.1-.843.171-1.169a2.343,2.343,0,0,1,.336-.308c.4-.318.324-.032.5-.25a.5.5,0,0,1,.3-.208,2.994,2.994,0,0,0,.476.028.109.109,0,0,0,.131-.084c.055-.215.307-.075.272-.339a.559.559,0,0,1,.057-.277c.091-.038.093-.14.1-.233a.273.273,0,0,0,.137-.221l0,0c.15-.056-.035-.41.194-.535.065-.036.079-.108.045-.2-.13-.329.09-.524,0-.8a2.348,2.348,0,0,1-.027-.7c-.008-.207.223-.1.225-.33h0a.461.461,0,0,0,.187-.374v0a.092.092,0,0,0,.066-.1.2.2,0,0,0,.084-.146.1.1,0,0,0,.076-.088c.14-.046.08.032.3-.383l.005-.006c.066-.008.1-.067.129-.128A1.509,1.509,0,0,0,616.636,336.745ZM610.6,315.1c.025-.022.061-.039.067.005,0,.029-.028.044-.051.05a.527.527,0,0,1-.065.01A.358.358,0,0,1,610.6,315.1Zm-6.6,3.558a1.048,1.048,0,0,1,.342-.179,1.747,1.747,0,0,0,.43-.107c.076-.037.117,0,.109.1l-.093.139a.487.487,0,0,1-.325.078c-.287-.026-.523.165-.511.035A.1.1,0,0,1,604,318.662Zm.06.307c0,.012.009.036.009.036s-.006-.024-.009-.036c-.148.151-.325.184-.474.325a.332.332,0,0,1-.063.046.327.327,0,0,0,.063-.046.21.21,0,0,0-.129.063h-.01c-.134.035-.223.17-.418.14-.06-.009-.073-.083.006-.147a.671.671,0,0,1,.131-.1c.2-.088.171-.179.3-.183C603.781,319.057,604.025,318.784,604.06,318.97Zm-.762-1.01c.051-.007.091-.018.061.089s.088.111.166.025c.042-.046.066-.126.129-.13s.108.044.152.087a.267.267,0,0,1,.049.355c-.076.019-.126-.025-.185-.046l-.145.108a.565.565,0,0,0-.128.234c-.048.182-.135.252-.2.252-.11,0,.061-.3-.156-.254-.057.012-.068-.019-.051-.093.082-.356.038-.266-.18-.378A.692.692,0,0,1,603.3,317.96Zm-.746.45h0a.27.27,0,0,0-.225.163.677.677,0,0,0-.152.527.6.6,0,0,1-.241.481c-.116.079-.211.016-.2-.152a1.85,1.85,0,0,1,.2-.715c.016-.044,0-.057-.033-.057a.513.513,0,0,1,.232-.333,1.422,1.422,0,0,1,.4-.18c.112-.022.112-.021.106.135Zm-1.446-.247c.136-.254.323-.261.6-.483a1.293,1.293,0,0,1,.731-.331c.124,0,.021.239.238.21.047-.006.113-.038.12.026.01.093.061.165.018.288-.016.045-.051.1-.078.069-.092-.092-.23-.011-.34.062-.215.141-.314.022-.442-.032-.043-.018.025-.086.016-.135a.769.769,0,0,0-.24.148,3.053,3.053,0,0,1-.266.163c-.052.033-.1.049-.138.023-.059-.045-.141-.018-.219,0-.018.021-.036.039-.056.038,0,0,0-.008,0-.013Zm7.277-6.189h0c-.068.01-.2.012-.2.012S608.315,311.984,608.383,311.973Zm-.35-.421a1.818,1.818,0,0,0,.228.013,1.818,1.818,0,0,1-.228-.013l-.061.068h0l.061-.068c-.012-.065-.1-.092-.1-.092S608.021,311.488,608.033,311.553Zm-.479-.666c.106-.2.125-.215.2-.116.053.066.155.005.238.035a.278.278,0,0,1-.22.125c-.071.01-.148.05-.218.062l0-.106Zm.062.458c.007.029-.021.045-.041.061l-.087.02h0c-.081.014-.129.041-.113-.027C607.409,311.251,607.586,311.229,607.616,311.345Zm-1.412-1.094c.043.007.118-.035.108.08a.5.5,0,0,0-.15.036C606.084,310.4,606.118,310.237,606.2,310.251Zm-2.05,1.677c.062-.021.131.013.113.057-.034.085-.2.133-.216.061a.362.362,0,0,1,0-.046A.218.218,0,0,1,604.154,311.928ZM610.9,347.8l.023-.095Z" transform="translate(-593.851 -304.175)" fill="url(#linear-gradient-14)"/>
            <path id="Контур_16461" data-name="Контур 16461" d="M621.47,371.552a.082.082,0,0,0,.026-.034.119.119,0,0,0-.017-.062.119.119,0,0,1,.017.062A.082.082,0,0,1,621.47,371.552Z" transform="translate(-615.148 -352.143)" fill="url(#linear-gradient-15)"/>
            <path id="Контур_16462" data-name="Контур 16462" d="M661.107,315.955l-.01-.053Z" transform="translate(-645.704 -309.306)" fill="url(#linear-gradient-16)"/>
            <path id="Контур_16463" data-name="Контур 16463" d="M656.311,320.4l-.068-.035h0Z" transform="translate(-641.961 -312.75)" fill="url(#linear-gradient-17)"/>
            <path id="Контур_16464" data-name="Контур 16464" d="M646.942,310.534l-.075.022Z" transform="translate(-634.731 -305.167)" fill="url(#linear-gradient-18)"/>
            <path id="Контур_16465" data-name="Контур 16465" d="M644.837,310.957s-.032.015-.05.025h0C644.8,310.972,644.837,310.957,644.837,310.957Z" transform="translate(-633.127 -305.493)" fill="url(#linear-gradient-19)"/>
            <path id="Контур_16466" data-name="Контур 16466" d="M642.182,312.183Z" transform="translate(-631.119 -306.406)" fill="url(#linear-gradient-20)"/>
            <path id="Контур_16467" data-name="Контур 16467" d="M613.728,391.036h0l.008-.01Z" transform="translate(-609.178 -367.234)" fill="url(#linear-gradient-21)"/>
            <path id="Контур_16468" data-name="Контур 16468" d="M635.265,427.416l.152-.009S635.265,427.413,635.265,427.416Z" transform="translate(-625.785 -395.287)" fill="url(#linear-gradient-22)"/>
            <path id="Контур_16469" data-name="Контур 16469" d="M653.96,481.6a.078.078,0,0,0,.009-.033.078.078,0,0,1-.009.033Z" transform="translate(-640.201 -437.05)" fill="url(#linear-gradient-23)"/>
            <path id="Контур_16470" data-name="Контур 16470" d="M654.15,482.231a.152.152,0,0,0,.011-.015h0A.152.152,0,0,1,654.15,482.231Z" transform="translate(-640.347 -437.55)" fill="url(#linear-gradient-24)"/>
            <path id="Контур_16471" data-name="Контур 16471" d="M662.26,497.087a.1.1,0,0,1,.021.059.1.1,0,0,0-.021-.059Z" transform="translate(-646.593 -448.993)" fill="url(#linear-gradient-25)"/>
            <path id="Контур_16472" data-name="Контур 16472" d="M660.118,484.815h0a.2.2,0,0,1,.013-.1A.2.2,0,0,0,660.118,484.815Z" transform="translate(-644.947 -439.474)" fill="url(#linear-gradient-26)"/>
            <path id="Контур_16473" data-name="Контур 16473" d="M668.527,474.058s0-.025,0-.038h0C668.525,474.033,668.527,474.058,668.527,474.058Z" transform="translate(-651.406 -431.198)" fill="url(#linear-gradient-27)"/>
            <path id="Контур_16474" data-name="Контур 16474" d="M615.245,321.392c-.111-.018-.233.121-.26.036.032-.045.075-.1.058-.111-.037-.013-.017-.084-.048-.1a2.191,2.191,0,0,1,.217-.257.228.228,0,0,0,.082-.079.063.063,0,0,0,.012-.01c.011-.014.009-.016,0-.007a1.235,1.235,0,0,0-.433.271c-.119.131-.2.2-.207.16s-.019,0-.055.035a.314.314,0,0,0-.133.262c-.029.046-.071.114-.089.089s-.073.01,0-.091c.012-.016.013-.026,0-.021-.045.022-.3.093-.353.2-.042.08-.089.1-.134.136h0c.039-.063-.045,0-.115.028a1.55,1.55,0,0,0-.376.285c.092-.134.079-.147-.049-.043-.038.031-.1.088-.082.055-.021-.013-.1.042-.145.06a.369.369,0,0,0-.056.029c-.2.249-.3.375-.5.63l.017-.011-.021.017-.129.171c.05-.032.135-.093.275-.187a.591.591,0,0,0,.1-.086l.039-.028c.1-.051.257-.171.368-.228l.107-.06a.661.661,0,0,1-.132.1c-.162.108-.64.418-.82.572l-.072.1.013,0c.09-.018.1-.034.553-.321-.056.1-.057.138.045.076.221-.136.441-.264.692-.441l.041-.025c.059-.023.158-.129.223-.162a1.293,1.293,0,0,0,.253-.184.576.576,0,0,1,.434-.2c.585-.3.592-.3.634-.371s-.019-.041-.038-.051c0,0,.007-.016.018-.041a.529.529,0,0,1,.2-.079c.031,0,.066-.032.1-.084C615.62,321.242,615.329,321.406,615.245,321.392Z" transform="translate(-608.091 -313.128)" fill="url(#linear-gradient-28)"/>
            <path id="Контур_16475" data-name="Контур 16475" d="M621.593,324.922h0l-.008.005Z" transform="translate(-615.237 -316.224)" fill="url(#linear-gradient-29)"/>
            <path id="Контур_16476" data-name="Контур 16476" d="M621.047,325.509q.048-.031,0,0c-.02.019-.053.045-.053.045S621.027,325.529,621.047,325.509Z" transform="translate(-614.781 -316.702)" fill="url(#linear-gradient-30)"/>
            <path id="Контур_16477" data-name="Контур 16477" d="M631.573,378.833c.061,0,.147.015.163-.06.009-.045-.029-.058-.046-.085-.085-.137-.206-.129-.329-.12-.012-.287-.382.023-.564-.521l.549.018c-.082-.22-.081-.22.071-.379h0c.031.022.081.046.094,0,.017-.061,0-.166-.062-.145-.121.04-.169-.074-.248-.12,0-.112-.088-.168-.1-.264.028-.058.057-.042.086-.04.169.011.019-.374-.168-.185-.045.046-.116.037-.141.11s.045.128.047.2a.558.558,0,0,0,.014.064c.012.078.05.108.113.106a.489.489,0,0,1,.106.018c-.008.045-.015.09-.023.136-.227.118-.223.134-.247-.07a.211.211,0,0,0-.086-.171h0c-.011-.114.019-.238-.091-.3,0-.026,0-.052,0-.077.049-.022.124-.014.122-.11s-.074-.071-.125-.065c-.143.017-.272-.184-.3.023l.252.144a.577.577,0,0,1-.066.113.577.577,0,0,0,.066-.113l-.252-.144a.108.108,0,0,0-.026.119l0,0,.044.051c-.036.066-.053.129,0,.185l-.011.129a.513.513,0,0,0,.182.553c.036.024.091.02.1.092-.021.009-.034.022-.043.019-.194-.075-.419-.016-.592-.169a.206.206,0,0,0-.155-.026c-.1.006-.2,0-.3.014-.171.017-.624.123-.7.326-.028.077.005.159.059.132.115-.058.176.024.249.091a.4.4,0,0,0,.531-.046.251.251,0,0,1,.223-.121c.057.074.115.145.212.127l.034.011c-.024.333.368.289.506.6.028.064.075.066.122.014l.106-.018h0a.684.684,0,0,0,.3-.01A.44.44,0,0,0,631.573,378.833Zm-.779-1.468.022.18Z" transform="translate(-620.871 -356.187)" fill="url(#linear-gradient-31)"/>
            <path id="Контур_16478" data-name="Контур 16478" d="M788.352,430.6c-.013-.1.024-.228.022-.336a.434.434,0,0,0-.012-.373c-.036-.07-.1-.044-.164.066a.96.96,0,0,0-.069.2,1.027,1.027,0,0,1-.136.111.354.354,0,0,0-.191.276,2.772,2.772,0,0,1-.914.733c-.037.024-.071.032-.1.084a1.251,1.251,0,0,0-.245.834.321.321,0,0,1-.061.209,4.078,4.078,0,0,1-.274.389.6.6,0,0,0-.2.4c.028.224-.229.651,0,.654.166.069.336-.108.4-.142l.043-.035.034-.018c.052.023.112-.047.164-.12a3.267,3.267,0,0,0,.279-.426c.154-.3.365-.608.529-.914a10.1,10.1,0,0,0,.5-.931.219.219,0,0,1,.04-.07.363.363,0,0,0,.114-.268c.006-.035-.009-.068.039-.114.047-.02.036.072.1.012a.33.33,0,0,0,.086-.173A.135.135,0,0,0,788.352,430.6Zm-.544.516-.042-.037.042.037Z" transform="translate(-741.949 -397.172)" fill="url(#linear-gradient-32)"/>
            <path id="Контур_16479" data-name="Контур 16479" d="M725.276,329.99a.469.469,0,0,0,.249.069c.327.041.391-.185.581-.133.156.043.217-.057.264-.2a.41.41,0,0,0-.031-.255c-.111-.351.31-.164.035-.479a.656.656,0,0,0-.509-.187c-.133-.018-.257,0-.26.216,0,.167-.325-.035-.356.124a.348.348,0,0,0,.043.275c.035.052.111.071.1.156s-.064.107-.1.157c-.014.02-.037.03-.053.048C725.176,329.856,725.187,329.925,725.276,329.99Z" transform="translate(-695.133 -319.251)" fill="url(#linear-gradient-33)"/>
            <path id="Контур_16480" data-name="Контур 16480" d="M628.236,314.508c-.039-.018-.148.075-.215.1a3.163,3.163,0,0,0-.325.246.253.253,0,0,0-.041.044c-.053.08-.083.093-.1.086-.041-.02-.133.033-.205.06a.328.328,0,0,0-.122.092c-.047.085-.015.089.035.066a1.6,1.6,0,0,0,.308-.138c.059-.039.115-.071.174-.108s.077-.043.056.012c-.034.087.039.026.453-.223a.27.27,0,0,0,.092-.1.186.186,0,0,0,.087-.064,1.928,1.928,0,0,0,.08-.186c.022-.042,0-.056-.033-.039a.483.483,0,0,0-.19.11C628.269,314.485,628.24,314.51,628.236,314.508Zm-.378.256c.045-.046.054-.034.079-.05C627.906,314.738,627.873,314.77,627.857,314.764Zm.076-.035c-.013.01-.01,0,.007-.013l.013-.016h0C627.947,314.709,627.936,314.726,627.933,314.728Z" transform="translate(-619.571 -308.111)" fill="url(#linear-gradient-34)"/>
            <path id="Контур_16481" data-name="Контур 16481" d="M641.15,386.716c.123-.081.243-.008.361-.052.3-.11.258.383.387.1.031-.068.06-.17.129-.156.182.038.366-.113.548-.009.135.077.254-.193.055-.245-.217-.057-.453-.443-.789-.331s-.263-.062-.447-.029c-.037.007-.078.018-.089.071s.025.062.048.087c.095.106.094.107,0,.263.055.019.121-.029.125.047s-.06.085-.11.08c-.074-.007-.176-.043-.327-.051-.047,0-.1.038-.066.1S641.093,386.753,641.15,386.716Z" transform="translate(-630.177 -363.352)" fill="url(#linear-gradient-35)"/>
            <path id="Контур_16482" data-name="Контур 16482" d="M783.061,326.994c-.215-.193-.41-.388-.362-.4.014,0,.027-.01.039-.014-.145-.183-.219-.274-.368-.453-.086-.049.048.079-.083.032l-.063-.042c-.008-.007-.011-.008-.009,0l-.017-.005c-.082-.054-.081-.054,0,.064l-.033-.014c-.025-.017-.027-.012-.013.012l-.011,0c-.039-.027-.094-.071-.047,0,.129.186-.149-.078-.065.048a.623.623,0,0,0,.127.135,3.655,3.655,0,0,0,.319.258.3.3,0,0,1,.058.052,1.162,1.162,0,0,0,.143.123c.154.126.368.275.5.37Zm-.741-.729a.492.492,0,0,0-.061-.085.492.492,0,0,1,.061.085l.026.02Z" transform="translate(-738.938 -317.148)" fill="url(#linear-gradient-36)"/>
            <path id="Контур_16483" data-name="Контур 16483" d="M621.145,319.237c.112-.067.3-.225.469-.359a.473.473,0,0,0,.072-.07.751.751,0,0,1,.1-.1,1.934,1.934,0,0,0,.183-.191c.05-.067-.039.011-.058.016a.361.361,0,0,0-.042.031,1.592,1.592,0,0,0-.137.106,3.065,3.065,0,0,0-.539.49C621.1,319.266,621.1,319.267,621.145,319.237Z" transform="translate(-614.873 -311.304)" fill="url(#linear-gradient-37)"/>
            <path id="Контур_16484" data-name="Контур 16484" d="M634.184,310.946a.374.374,0,0,0,.145-.1.232.232,0,0,0,.054-.064c.015-.033,0-.028-.023-.017-.247.131-.289.186-.254.114.046-.094.078-.055.137-.116a1.141,1.141,0,0,0-.439.178.867.867,0,0,0-.2.105.285.285,0,0,0-.118.143l-.014.012a.078.078,0,0,0-.01.014C633.827,311.2,633.989,311,634.184,310.946Z" transform="translate(-624.399 -305.342)" fill="url(#linear-gradient-38)"/>
            <path id="Контур_16485" data-name="Контур 16485" d="M771.046,314.608a3.784,3.784,0,0,0,.354.3c.04.031.067.045.055.018a1.8,1.8,0,0,1,.182.17c.016.018.044.039.027.015-.079-.113-.013-.027.133.075l.022.018c.007,0,.006,0-.016-.021-.061-.059-.111-.1-.186-.182a.282.282,0,0,0-.035-.032c-.009.01-.108-.081-.136-.092a.925.925,0,0,1-.232-.184c-.163-.13-.3-.226-.448-.324a.186.186,0,0,0,.013.023l.049.04C770.91,314.5,770.967,314.533,771.046,314.608Z" transform="translate(-730.268 -308.124)" fill="url(#linear-gradient-39)"/>
            <path id="Контур_16486" data-name="Контур 16486" d="M777.03,319.511l-.046-.043.046.043-.169-.178-.048-.041a1.256,1.256,0,0,0-.143-.123s-.026-.024-.039-.035c-.077-.069-.113-.094-.089-.053.007.012,0,.012-.023-.012-.052-.057-.1-.1-.1-.09s-.017-.009-.027-.014l-.019-.015c-.012-.009-.04-.034-.019-.008a1.287,1.287,0,0,0,.147.136c.13.111.185.139.333.275.014.013-.031-.031-.044-.046-.048-.05-.035-.038,0-.007s.114.113.169.167c-.016-.019,0-.006,0-.006s-.017-.013,0,.006c.088.088.14.131.187.172Zm-.171-.156.091.083Z" transform="translate(-734.575 -311.64)" fill="url(#linear-gradient-40)"/>
            <path id="Контур_16487" data-name="Контур 16487" d="M668.958,494.911c-.128-.075-.237-.037-.338-.1a.162.162,0,0,0-.226.062c-.02.024-.066.027-.022.1.109.18.116-.031.314.138.079.067.27,0,.327-.04.024-.014.069-.007.05-.067S669,494.933,668.958,494.911Z" transform="translate(-651.299 -447.242)" fill="url(#linear-gradient-41)"/>
            <path id="Контур_16488" data-name="Контур 16488" d="M636.181,375.089c.063.133.242-.107.152-.2-.166-.175-.585-.338-.553-.041S636.05,374.809,636.181,375.089Z" transform="translate(-626.181 -354.63)" fill="url(#linear-gradient-42)"/>
            <path id="Контур_16489" data-name="Контур 16489" d="M627.568,317.081c0-.012,0-.023,0-.035a.048.048,0,0,1-.016,0,.044.044,0,0,0,.016,0c0,.012,0,.024,0,.035a.25.25,0,0,0,.105-.11c.032-.058.007-.054-.015-.056-.1-.008-.245.1-.416.236-.034.015-.066.027-.1.045a1.264,1.264,0,0,0-.342.251.253.253,0,0,0-.065.071c-.027.063.184-.088.115.015-.05.076-.166.1-.211.119-.027-.053-.246.137-.217.178.11.056.294-.169.436-.066.052.037.145-.008.263-.083l.143-.113a.868.868,0,0,0,.14-.1c.133-.077.133-.078.21-.239a.337.337,0,0,0,.046-.124c.027-.076.025-.074-.081.021a.2.2,0,0,1-.043.015C627.5,317.145,627.539,317.111,627.568,317.081Zm-.17.135h0a.206.206,0,0,1,.03-.031A.206.206,0,0,0,627.4,317.217Z" transform="translate(-618.963 -310.087)" fill="url(#linear-gradient-43)"/>
            <path id="Контур_16490" data-name="Контур 16490" d="M781.133,327.618c-.016.027.038.113.126.169.026.017.05.029.075.044l0,0a.5.5,0,0,0,.1.051c.033,0,.122.053.081-.012a.726.726,0,0,0-.194-.171C781.261,327.648,781.152,327.584,781.133,327.618Z" transform="translate(-738.26 -318.333)" fill="url(#linear-gradient-44)"/>
            <path id="Контур_16491" data-name="Контур 16491" d="M639.167,324.542c-.035.045-.033.073,0,.079.116.023.317-.11.462-.314a.635.635,0,0,0-.357.125A.465.465,0,0,0,639.167,324.542Z" transform="translate(-628.774 -315.785)" fill="url(#linear-gradient-45)"/>
            <path id="Контур_16492" data-name="Контур 16492" d="M636.292,388.387c-.048,0-.107,0-.124.073s.037.12.084.152a.481.481,0,0,0,.44.027.08.08,0,0,0,.014-.139C636.538,388.434,636.549,388.361,636.292,388.387Z" transform="translate(-626.478 -365.194)" fill="url(#linear-gradient-46)"/>
            <path id="Контур_16493" data-name="Контур 16493" d="M657.362,338.378c-.019,0-.047.018-.071.076.088.019.157.093.236.116s.369.14.417.011a.064.064,0,0,0-.027-.083A.988.988,0,0,0,657.362,338.378Z" transform="translate(-642.769 -326.637)" fill="url(#linear-gradient-47)"/>
            <path id="Контур_16494" data-name="Контур 16494" d="M692.205,502.044a.552.552,0,0,0,.23.13c.078.027.123.162.231.115A.388.388,0,0,0,692.205,502.044Z" transform="translate(-669.691 -452.831)" fill="url(#linear-gradient-48)"/>
            <path id="Контур_16495" data-name="Контур 16495" d="M742.207,299.982l.059.026a.03.03,0,0,0,.019.015.155.155,0,0,0,.091.087c.263.132.321.423.485.458a2.267,2.267,0,0,1,.415.277c.111.086.125.079.152,0,.011-.032.011-.081.037-.089.062-.019.151,0,.138-.113.081.017.106-.056.2-.021.209.092.146.082.311.249.059.06.016.084.058.147a.715.715,0,0,0,.269.1c.084.079.187.219.224.137.062,0,.165.073.174-.007-.051-.05-.006-.019-.158-.1a1.24,1.24,0,0,0-.189-.16.29.29,0,0,0-.14-.089c.006.014.006.014,0,0-.052-.066-.108-.143-.145-.141,0,.011.009.021.012.032-.118-.055-.128-.059,0,0,0-.01-.008-.021-.012-.031l-.092-.089c-.012-.046-.054-.077-.083-.115l.293.128a1.332,1.332,0,0,0,.8.27,1.184,1.184,0,0,0-.149-.12,5.357,5.357,0,0,0-.592-.311.16.16,0,0,1-.1-.06c-.162-.183-.147-.025-.252-.089-.147-.089-.292-.173-.439-.257a.121.121,0,0,0-.078-.052c-.079-.025-.09.048-.145.059h0c-.019,0-.025.009-.01.042-.109-.086-.337-.279-.476-.258l-.022.024c-.057.127-.141-.079-.2-.068.005.017.015.051.015.051s-.01-.034-.015-.051c-.136-.123-.07.091-.241-.029-.369-.258-.421-.257-.572-.268-.039,0-.015.048.017.1h0c.018.036.06.064.066.1.009.065-.079-.031-.082.017A.432.432,0,0,0,742.207,299.982Zm2.217,1Zm-1-.824Zm-.819.037v0h0Zm-.393-.232-.018-.006h0Zm-.133-.205-.012,0Zm-.1.069-.006.006-.01-.014C741.97,299.807,741.966,299.805,741.979,299.822Z" transform="translate(-707.943 -296.708)" fill="url(#linear-gradient-49)"/>
            <path id="Контур_16496" data-name="Контур 16496" d="M639.188,309.447c.052-.035.1-.134.058-.122a.875.875,0,0,0-.224.114.292.292,0,0,0-.1.125C638.89,309.65,638.953,309.606,639.188,309.447Z" transform="translate(-628.6 -304.234)" fill="url(#linear-gradient-50)"/>
            <path id="Контур_16497" data-name="Контур 16497" d="M626.794,317.117c.035.033.175-.071.3-.155a.427.427,0,0,0-.212.046.208.208,0,0,0-.074.061C626.776,317.111,626.788,317.111,626.794,317.117Z" transform="translate(-619.248 -310.124)" fill="url(#linear-gradient-51)"/>
            <path id="Контур_16498" data-name="Контур 16498" d="M650.061,388.284c.007.1.08.08.206.088a.481.481,0,0,0,.228-.03.1.1,0,0,0,.028-.152C650.448,388.116,650.046,388.089,650.061,388.284Z" transform="translate(-637.194 -365.004)" fill="url(#linear-gradient-52)"/>
            <path id="Контур_16499" data-name="Контур 16499" d="M727.975,324.584c-.014-.26.221-.123.207-.334-.046-.237-.357.105-.33.289C727.873,324.684,727.98,324.681,727.975,324.584Z" transform="translate(-697.176 -315.681)" fill="url(#linear-gradient-53)"/>
            <path id="Контур_16500" data-name="Контур 16500" d="M728.967,324.186a.143.143,0,0,1,.065.178c-.026.081.03.115.091.125h.064c-.027.119-.185.074-.166.177.006.032.025.065.047.065.114,0,.227.144.325.081.064.072-.029.143.057.2l.063.012c.1.206.155-.055.417.26a1.42,1.42,0,0,1,.069.271l0,0c-.324-.042-.414-.081-.4.053.006.085.05.116.111.113l.045.053c0,.1-.077.131-.1.209-.029,0-.059,0-.087,0-.1.009-.053.153.037.154.071,0,.147-.042.2.066.042.093-.016.11-.268.362-.017.017-.037.033-.023.069s.043.049.062.037a.5.5,0,0,1,.372-.046.081.081,0,0,0,.073-.038c.053-.087.135-.072.22-.059s.165.012.248.031c.2.044.378-.009.577.047.114.033.2-.05.289-.108a.058.058,0,0,0,.016-.05c-.069-.13-.008-.2.026-.281.069-.173-.074-.293-.255-.334-.2-.046-.238-.471-.56-.611-.213-.092-.085-.3-.439-.51-.2-.122-.02-.179.057-.41.062-.185-.1-.139-.347-.189-.059-.012-.143.021-.173-.076-.038-.126.073-.076.133-.138.076-.023.062-.119.072-.195s-.084-.149-.108-.078c-.1.282-.431-.029-.474.171h0l-.058.124h0c-.04,0-.059.022-.061.068h0a.611.611,0,0,1-.179.024C728.892,324,728.893,324.128,728.967,324.186Z" transform="translate(-697.997 -315.241)" fill="url(#linear-gradient-54)"/>
            <path id="Контур_16501" data-name="Контур 16501" d="M618.332,319.129c-.349.29-.048-.129-.355.161-.085.08-.165.151-.242.216-.024.047.068-.034.038.019-.178.182-.268.247-.323.244a4.541,4.541,0,0,0-.425.27c.107-.117.131-.112.217-.2a1.379,1.379,0,0,0-.255.227.566.566,0,0,1-.069.062l-.093.076-.062.047a2.122,2.122,0,0,1-.176.159,1.493,1.493,0,0,1-.147.153l-.106.126c.035-.025.086-.066.145-.118l.018-.01c.005.022.1-.075.222-.168.008,0,.063-.046.07-.04l.045-.058c-.017.01-.062.046-.062.046s.045-.037.062-.046l.054-.045a.185.185,0,0,1-.05.068c-.027.027-.043.038-.05.038-.072.1,0,.045.063.005a6.535,6.535,0,0,0,.546-.416c.571-.479.711-.448,1.069-.813C618.683,318.9,618.507,318.983,618.332,319.129Z" transform="translate(-611.186 -311.686)" fill="url(#linear-gradient-55)"/>
            <path id="Контур_16502" data-name="Контур 16502" d="M632.994,311.38l.211-.11c.034-.018.1-.109.056-.088a1.3,1.3,0,0,0-.21.119.188.188,0,0,0-.052.05C632.983,311.375,632.981,311.387,632.994,311.38Z" transform="translate(-624.027 -305.664)" fill="url(#linear-gradient-56)"/>
            <path id="Контур_16503" data-name="Контур 16503" d="M642.728,324.4c-.015.052.033.111.08.1.078-.022.272-.3.092-.252A.291.291,0,0,0,642.728,324.4Z" transform="translate(-631.538 -315.735)" fill="url(#linear-gradient-57)"/>
            <path id="Контур_16504" data-name="Контур 16504" d="M721.926,369.785a.814.814,0,0,0-.2.431c.229,0,.193-.265.294-.378a.1.1,0,0,0-.021-.061A.044.044,0,0,0,721.926,369.785Z" transform="translate(-692.452 -350.837)" fill="url(#linear-gradient-58)"/>
            <path id="Контур_16505" data-name="Контур 16505" d="M626.125,318.893a.956.956,0,0,0,.231-.149C626.321,318.7,626.266,318.739,626.125,318.893Z" transform="translate(-618.737 -311.485)" fill="url(#linear-gradient-59)"/>
            <path id="Контур_16506" data-name="Контур 16506" d="M644.085,383.034c0-.1-.065-.1-.115-.112a.064.064,0,0,0-.084.065.151.151,0,0,0,.1.141C644.042,383.142,644.067,383.088,644.085,383.034Z" transform="translate(-632.433 -360.982)" fill="url(#linear-gradient-60)"/>
            <path id="Контур_16507" data-name="Контур 16507" d="M620.277,321.815a.23.23,0,0,0,.036-.039c.017-.025-.008,0-.039.023a.871.871,0,0,0-.162.135A.583.583,0,0,0,620.277,321.815Z" transform="translate(-614.101 -313.826)" fill="url(#linear-gradient-61)"/>
            <path id="Контур_16508" data-name="Контур 16508" d="M658.9,321.352c.115-.027.1-.217,0-.2C658.767,321.175,658.766,321.384,658.9,321.352Z" transform="translate(-643.933 -313.354)" fill="url(#linear-gradient-62)"/>
            <path id="Контур_16509" data-name="Контур 16509" d="M805.414,397.415c-.049,0-.1-.007-.1.056a.059.059,0,0,0,.045.065.1.1,0,0,0,.045.008c.052-.007.135.024.136-.072S805.454,397.436,805.414,397.415Z" transform="translate(-756.906 -372.16)" fill="url(#linear-gradient-63)"/>
            <path id="Контур_16510" data-name="Контур 16510" d="M641.31,381.664a.122.122,0,0,0,.1-.122c-.005-.139-.164-.149-.166.019C641.242,381.619,641.252,381.675,641.31,381.664Z" transform="translate(-630.394 -359.84)" fill="url(#linear-gradient-64)"/>
            <path id="Контур_16511" data-name="Контур 16511" d="M705.29,288.147q.233.029.466.062C705.713,288.115,705.659,288.132,705.29,288.147Z" transform="translate(-679.781 -287.896)" fill="url(#linear-gradient-65)"/>
            <path id="Контур_16512" data-name="Контур 16512" d="M713,295.229a.052.052,0,0,0,.064.042c.039-.005.081-.014.075-.079a.064.064,0,0,0-.062-.057C713.053,295.16,712.991,295.147,713,295.229Z" transform="translate(-685.728 -293.293)" fill="url(#linear-gradient-66)"/>
            <path id="Контур_16513" data-name="Контур 16513" d="M655.053,323.789c-.006.035.016.052.046.043a.139.139,0,0,0,.111-.1c.015-.054-.02-.054-.054-.049S655.065,323.718,655.053,323.789Z" transform="translate(-641.042 -315.306)" fill="url(#linear-gradient-67)"/>
            <path id="Контур_16514" data-name="Контур 16514" d="M709.2,311.952c.087.015.115-.025.188-.067a.059.059,0,0,1,.012-.021.059.059,0,0,0-.012.021c.05.008.095.02.107-.04h.011a.043.043,0,0,0,.057-.022l-.009-.009a.091.091,0,0,0,.077.016c.023.028.051.05.078.038.1-.047.192-.125.291-.18.059-.033.072-.127-.022-.2l0-.005c-.114-.089-.226-.179-.34-.265a.093.093,0,0,0-.05-.012.292.292,0,0,1-.146-.065c-.189-.142-.232.122-.522.041a.523.523,0,0,0-.248,0l-.064-.013c-.086-.037-.155.059-.244.007-.072-.043-.119-.025-.169.053-.063.1-.137.08-.214-.033a.149.149,0,0,0-.136-.075c-.192-.088-.082-.187-.554.026a.226.226,0,0,0-.074.08c-.068.1.046.116.155.108.139-.011.27-.063.279.05s-.149.011-.348.138c.166.075.3-.011.427.125.063.068.068.118-.012.152a.036.036,0,0,0-.027.043c.025.045.063.033.094.033.565.015.485.216.749.157a.065.065,0,0,1,.029.014c.195.05.378.061.5-.144h0C709.186,311.936,709.154,311.925,709.2,311.952Zm.218-.281Zm-.87-.063s.005-.016.008-.023h0C708.558,311.592,708.553,311.607,708.553,311.607Zm.235.2a.4.4,0,0,1-.086-.045.4.4,0,0,0,.086.045.23.23,0,0,1,.078-.133A.23.23,0,0,0,708.788,311.8Zm.1.019h0a.308.308,0,0,1,0-.044A.308.308,0,0,0,708.887,311.822Z" transform="translate(-681.251 -305.543)" fill="url(#linear-gradient-68)"/>
            <path id="Контур_16515" data-name="Контур 16515" d="M631.869,316.239c.029-.04-.023-.013-.047.025S631.839,316.279,631.869,316.239Z" transform="translate(-623.123 -309.551)" fill="url(#linear-gradient-69)"/>
            <path id="Контур_16516" data-name="Контур 16516" d="M628.09,313.679c.029,0-.068.127-.017.095a4.323,4.323,0,0,0,.382-.251.409.409,0,0,1,.092-.06c.007,0,.005,0-.019.034s-.064.04-.113.113a1.574,1.574,0,0,0,.24-.159c.021-.041-.05.025-.016-.031.055-.056.085-.071.1-.064.05.022.187-.083.308-.163.025-.016.082-.076.067-.078-.041-.005-.011-.088-.075-.064s-.141.088-.176.085c-.067-.005-.208.143-.308.177-.047.027-.088.047-.14.082a3.917,3.917,0,0,0-.364.28C627.984,313.757,628.033,313.714,628.09,313.679Zm.548-.369h0l0-.009Z" transform="translate(-620.198 -307.105)" fill="url(#linear-gradient-70)"/>
            <path id="Контур_16517" data-name="Контур 16517" d="M747.931,315.085l-.009-.017-.011,0C747.922,315.092,747.917,315.088,747.931,315.085Z" transform="translate(-712.645 -308.663)" fill="url(#linear-gradient-71)"/>
            <path id="Контур_16518" data-name="Контур 16518" d="M764.7,318.285l.023.057C764.743,318.335,764.732,318.315,764.7,318.285Z" transform="translate(-725.593 -311.144)" fill="url(#linear-gradient-72)"/>
            <path id="Контур_16519" data-name="Контур 16519" d="M793.539,357.4l.022.079.055.013A.144.144,0,0,0,793.539,357.4Z" transform="translate(-747.829 -341.309)" fill="url(#linear-gradient-73)"/>
            <path id="Контур_16520" data-name="Контур 16520" d="M772.415,352.65a.2.2,0,0,0,0,.038C772.428,352.681,772.427,352.668,772.415,352.65Z" transform="translate(-731.54 -337.642)" fill="url(#linear-gradient-74)"/>
            <path id="Контур_16521" data-name="Контур 16521" d="M636.182,348.7c-.068.037-.057.106-.068.164l.145-.108C636.246,348.718,636.228,348.676,636.182,348.7Z" transform="translate(-626.44 -334.592)" fill="url(#linear-gradient-75)"/>
            <path id="Контур_16522" data-name="Контур 16522" d="M750,350.556a.928.928,0,0,1,0-.315A.244.244,0,0,0,749.9,350c-.073-.025-.253.071-.13.307a1.205,1.205,0,0,1,.116.247.2.2,0,0,1-.143.084c-.036.007-.072.037-.046.085.167.317-.02.622.21.614.307-.012.205-.326.222-.413A.408.408,0,0,0,750,350.556Z" transform="translate(-714.013 -335.593)" fill="url(#linear-gradient-76)"/>
            <path id="Контур_16523" data-name="Контур 16523" d="M769.21,362.822h0c-.042,0-.084,0-.084.059,0,.134.177.061.26.148.156.162.288.062.431.091.024,0,.039-.016.034-.049C769.835,362.985,769.379,362.873,769.21,362.822Z" transform="translate(-729.001 -345.485)" fill="url(#linear-gradient-77)"/>
            <path id="Контур_16524" data-name="Контур 16524" d="M779.438,364.621c-.046.01-.03.085.022.128a.178.178,0,0,0,.147.044c.137-.021.262-.057.258-.262a.354.354,0,0,1-.226.029C779.554,364.539,779.507,364.606,779.438,364.621Z" transform="translate(-736.935 -346.804)" fill="url(#linear-gradient-78)"/>
            <path id="Контур_16525" data-name="Контур 16525" d="M780.642,363.8h0Z" transform="translate(-737.884 -346.238)" fill="url(#linear-gradient-79)"/>
            <path id="Контур_16526" data-name="Контур 16526" d="M742.818,353.778c-.015.087.234.191.231.029C743.033,353.681,742.837,353.664,742.818,353.778Z" transform="translate(-708.718 -338.453)" fill="url(#linear-gradient-80)"/>
            <path id="Контур_16527" data-name="Контур 16527" d="M781.392,364.488h0c.01,0,.011,0,.01.008l0,0s0-.01,0-.011S781.393,364.475,781.392,364.488Z" transform="translate(-738.462 -346.761)" fill="url(#linear-gradient-81)"/>
            <path id="Контур_16528" data-name="Контур 16528" d="M795.69,359.908l.056.076A.115.115,0,0,0,795.69,359.908Z" transform="translate(-749.487 -343.239)" fill="url(#linear-gradient-82)"/>
          </g>
        </g>
      </g>
      <g id="Ñëîé_3" data-name="Ñëîé 3" transform="translate(0 136.962)">
        <g id="Сгруппировать_13642" data-name="Сгруппировать 13642" transform="translate(0)" opacity="0.8">
          <ellipse id="Эллипс_419" data-name="Эллипс 419" cx="56.835" cy="13.317" rx="56.835" ry="13.317" opacity="0.5" fill="url(#radial-gradient)" style="mix-blend-mode: multiply;isolation: isolate"/>
          <ellipse id="Эллипс_420" data-name="Эллипс 420" cx="33.792" cy="7.918" rx="33.792" ry="7.918" transform="translate(23.043 5.399)" opacity="0.5" fill="url(#radial-gradient-2)" style="mix-blend-mode: multiply;isolation: isolate"/>
          <ellipse id="Эллипс_421" data-name="Эллипс 421" cx="15.293" cy="3.583" rx="15.293" ry="3.583" transform="translate(41.542 9.734)" opacity="0.5" fill="url(#radial-gradient-3)" style="mix-blend-mode: multiply;isolation: isolate"/>
        </g>
      </g>
    </g>
  </g>
</svg>
