<svg id="icon" xmlns="http://www.w3.org/2000/svg" width="23.617" height="24" viewBox="0 0 23.617 24">
  <path id="Path" d="M16.653,18.375V20.25A3.725,3.725,0,0,1,12.962,24H3.69A3.725,3.725,0,0,1,0,20.25V3.75A3.725,3.725,0,0,1,3.69,0h9.272a3.725,3.725,0,0,1,3.69,3.75V5.625a.923.923,0,1,1-1.845,0V3.75a1.862,1.862,0,0,0-1.845-1.875H3.69A1.862,1.862,0,0,0,1.845,3.75v16.5A1.862,1.862,0,0,0,3.69,22.125h9.272a1.862,1.862,0,0,0,1.845-1.875V18.375a.923.923,0,1,1,1.845,0Z" fill="#fff"/>
  <path id="Path-2" data-name="Path" d="M13.9,2.336,11.835.27a.923.923,0,0,0-1.3,1.3L12,3.044H.923a.923.923,0,1,0,0,1.845H12l-1.469,1.47a.923.923,0,1,0,1.3,1.3L13.9,5.6A2.309,2.309,0,0,0,13.9,2.336Z" transform="translate(9.041 8.08)" fill="#fff"/>
</svg>
