<svg width="42" height="41" viewBox="0 0 42 41" fill="none" xmlns="http://www.w3.org/2000/svg">
<g filter="url(#filter0_d_5_14)">
<rect x="6" y="2" width="30" height="30" rx="12" fill="#1A1F37"/>
</g>
<path d="M25.6667 9.5H18.1667C17.2475 9.5 16.5 10.2475 16.5 11.1667V14.5H18.1667V11.1667H25.6667V22.8333H18.1667V19.5H16.5V22.8333C16.5 23.7525 17.2475 24.5 18.1667 24.5H25.6667C26.5858 24.5 27.3333 23.7525 27.3333 22.8333V11.1667C27.3333 10.2475 26.5858 9.5 25.6667 9.5Z" fill="white"/>
<path d="M21.6667 18.1667V16.5H14.1667V14L10 17.3333L14.1667 20.6667V18.1667H21.6667Z" fill="white"/>
<defs>
<filter id="filter0_d_5_14" x="0.5" y="-2.38419e-07" width="41" height="41" filterUnits="userSpaceOnUse" color-interpolation-filters="sRGB">
<feFlood flood-opacity="0" result="BackgroundImageFix"/>
<feColorMatrix in="SourceAlpha" type="matrix" values="0 0 0 0 0 0 0 0 0 0 0 0 0 0 0 0 0 0 127 0" result="hardAlpha"/>
<feOffset dy="3.5"/>
<feGaussianBlur stdDeviation="2.75"/>
<feColorMatrix type="matrix" values="0 0 0 0 0 0 0 0 0 0 0 0 0 0 0 0 0 0 0.02 0"/>
<feBlend mode="normal" in2="BackgroundImageFix" result="effect1_dropShadow_5_14"/>
<feBlend mode="normal" in="SourceGraphic" in2="effect1_dropShadow_5_14" result="shape"/>
</filter>
</defs>
</svg>
