<svg xmlns="http://www.w3.org/2000/svg" width="25.471" height="20.481" viewBox="0 0 25.471 20.481">
  <g id="_19253118171536669843" data-name="19253118171536669843" transform="translate(0.104 0.1)">
    <path id="Контур_9775" data-name="Контур 9775" d="M56.181,20.128h0a.409.409,0,0,1-.346-.2l-3.879-6.515a.405.405,0,0,1-.028-.057,5.083,5.083,0,0,1,4.354-7.722h.006a5.088,5.088,0,0,1,5.082,5.1h0a5.081,5.081,0,0,1-.736,2.623.392.392,0,0,1-.036.075l-4.066,6.5A.41.41,0,0,1,56.181,20.128ZM52.69,13.06l3.5,5.877,3.666-5.864A.4.4,0,0,1,59.891,13a4.269,4.269,0,0,0,.658-2.266h0a4.271,4.271,0,0,0-4.267-4.282h-.005a4.267,4.267,0,0,0-3.623,6.536A.378.378,0,0,1,52.69,13.06Z" transform="translate(-38.086 -5.636)" fill="#19a49c" stroke="#19a49c" stroke-width="0.2"/>
    <path id="Контур_9776" data-name="Контур 9776" d="M64.139,19.822h0a2.155,2.155,0,0,1,0-4.309h0a2.158,2.158,0,0,1,2.152,2.158h0a2.153,2.153,0,0,1-2.153,2.151Zm0-3.493a1.338,1.338,0,0,0,0,2.677h0a1.338,1.338,0,0,0,0-2.677Zm1.746,1.342h0Z" transform="translate(-45.946 -12.826)" fill="#19a49c" stroke="#19a49c" stroke-width="0.2"/>
    <path id="Контур_9777" data-name="Контур 9777" d="M27.9,50.159H3.449a.408.408,0,0,1-.375-.569l4.447-10.4a.408.408,0,0,1,.375-.248H18.389a.408.408,0,1,1,0,.816H8.166l-4.1,9.588H27.278l-3.972-9.291a.408.408,0,0,1,.751-.321l4.215,9.859a.408.408,0,0,1-.375.569Z" transform="translate(-3.041 -29.878)" fill="#19a49c" stroke="#19a49c" stroke-width="0.2"/>
    <path id="Контур_9778" data-name="Контур 9778" d="M37.369,50.918a.408.408,0,0,1-.4-.362c0-.02-.263-2.028-3.074-2.5-.261-.044-.679-.085-1.162-.131-2.661-.257-5.087-.591-5.555-1.836a1.941,1.941,0,0,1,.494-1.906c.388-.538.516-.773.318-1.111a2.166,2.166,0,0,0-.911-.556c-.756-.33-1.792-.781-1.8-2.019a.408.408,0,0,1,.406-.41h0a.408.408,0,0,1,.408.406c0,.658.5.921,1.308,1.275a2.592,2.592,0,0,1,1.289.892,1.713,1.713,0,0,1-.36,2c-.335.464-.533.768-.392,1.141.328.871,3.4,1.168,4.87,1.311.5.048.929.09,1.219.139,3.41.579,3.737,3.11,3.749,3.217a.408.408,0,0,1-.359.452Z" transform="translate(-19.226 -30.71)" fill="#19a49c" stroke="#19a49c" stroke-width="0.2"/>
  </g>
</svg>
