<svg width="86" height="39" viewBox="0 0 86 39" fill="none" xmlns="http://www.w3.org/2000/svg">
<rect x="0.5" y="0.5" width="85" height="38" rx="19" stroke="white"/>
<path d="M16.8 27.22C15.0267 27.22 13.6667 26.7867 12.72 25.92C11.7733 25.04 11.3 23.7733 11.3 22.12V17.88C11.3 16.2267 11.7733 14.9667 12.72 14.1C13.6667 13.22 15.0267 12.78 16.8 12.78C18.5733 12.78 19.9333 13.22 20.88 14.1C21.8267 14.9667 22.3 16.2267 22.3 17.88V22.12C22.3 23.7733 21.8267 25.04 20.88 25.92C19.9333 26.7867 18.5733 27.22 16.8 27.22ZM16.8 26.06C18.1067 26.06 19.1067 25.72 19.8 25.04C20.5067 24.36 20.86 23.3867 20.86 22.12V17.88C20.86 16.6133 20.5067 15.64 19.8 14.96C19.1067 14.28 18.1067 13.94 16.8 13.94C15.4933 13.94 14.4867 14.28 13.78 14.96C13.0867 15.64 12.74 16.6133 12.74 17.88V22.12C12.74 23.3867 13.0867 24.36 13.78 25.04C14.4867 25.72 15.4933 26.06 16.8 26.06ZM28.8338 13.78C28.1404 13.78 27.6071 13.9867 27.2338 14.4C26.8604 14.8 26.6738 15.38 26.6738 16.14V17.6H29.3738V18.68H26.6738V27H25.3338V16.14C25.3338 15.0333 25.6338 14.1867 26.2337 13.6C26.8471 13 27.7138 12.7 28.8338 12.7H29.3738V13.78H28.8338ZM35.0056 13.78C34.3123 13.78 33.779 13.9867 33.4056 14.4C33.0323 14.8 32.8456 15.38 32.8456 16.14V17.6H35.5456V18.68H32.8456V27H31.5056V16.14C31.5056 15.0333 31.8056 14.1867 32.4056 13.6C33.019 13 33.8856 12.7 35.0056 12.7H35.5456V13.78H35.0056Z" fill="white"/>
<path d="M82.5 19.5C82.5 29.4051 73.807 37.5 63 37.5C52.193 37.5 43.5 29.4051 43.5 19.5C43.5 9.59486 52.193 1.5 63 1.5C73.807 1.5 82.5 9.59486 82.5 19.5Z" fill="#FC9535" stroke="white"/>
</svg>
