<svg width="86" height="39" viewBox="0 0 86 39" fill="none" xmlns="http://www.w3.org/2000/svg">
<rect x="0.5" y="0.5" width="85" height="38" rx="19" stroke="white"/>
<path d="M39.5 19.5C39.5 29.4051 30.807 37.5 20 37.5C9.19303 37.5 0.5 29.4051 0.5 19.5C0.5 9.59486 9.19303 1.5 20 1.5C30.807 1.5 39.5 9.59486 39.5 19.5Z" fill="#26CE69" stroke="white"/>
<path d="M56.8 25.22C55.0267 25.22 53.6667 24.7867 52.72 23.92C51.7733 23.04 51.3 21.7733 51.3 20.12V15.88C51.3 14.2267 51.7733 12.9667 52.72 12.1C53.6667 11.22 55.0267 10.78 56.8 10.78C58.5733 10.78 59.9333 11.22 60.88 12.1C61.8267 12.9667 62.3 14.2267 62.3 15.88V20.12C62.3 21.7733 61.8267 23.04 60.88 23.92C59.9333 24.7867 58.5733 25.22 56.8 25.22ZM56.8 24.06C58.1067 24.06 59.1067 23.72 59.8 23.04C60.5067 22.36 60.86 21.3867 60.86 20.12V15.88C60.86 14.6133 60.5067 13.64 59.8 12.96C59.1067 12.28 58.1067 11.94 56.8 11.94C55.4933 11.94 54.4867 12.28 53.78 12.96C53.0867 13.64 52.74 14.6133 52.74 15.88V20.12C52.74 21.3867 53.0867 22.36 53.78 23.04C54.4867 23.72 55.4933 24.06 56.8 24.06ZM69.7784 15.38C70.7251 15.38 71.4651 15.6667 71.9984 16.24C72.5318 16.8 72.7984 17.58 72.7984 18.58V25H71.4584V18.78C71.4584 18.0467 71.2784 17.48 70.9184 17.08C70.5718 16.6667 70.0851 16.46 69.4584 16.46C68.7384 16.46 68.1118 16.7267 67.5784 17.26C67.0584 17.7933 66.6851 18.52 66.4584 19.44V25H65.1184V17.3C65.1184 17.06 65.0718 16.8667 64.9784 16.72C64.8984 16.56 64.7384 16.38 64.4984 16.18L65.3784 15.38C65.7918 15.6067 66.0718 15.8667 66.2184 16.16C66.3784 16.44 66.4584 16.8333 66.4584 17.34V17.52C66.7918 16.8267 67.2384 16.3 67.7984 15.94C68.3718 15.5667 69.0318 15.38 69.7784 15.38Z" fill="white"/>
</svg>
