<svg id="Partly_Cloudy" data-name="Partly Cloudy" xmlns="http://www.w3.org/2000/svg" width="36.5" height="36.5" viewBox="0 0 36.5 36.5">
  <path id="frame" d="M0,0H36.5V36.5H0Z" fill="none"/>
  <path id="shape" d="M24.388,19.511H5.628a6.06,6.06,0,0,1-2.924-.7A5.071,5.071,0,0,1,.727,16.9,5.557,5.557,0,0,1,0,14.066a5.557,5.557,0,0,1,.727-2.829A5.078,5.078,0,0,1,2.7,9.323a5.575,5.575,0,0,1,.835-.366c0-.018.11-.052.282-.1l.227-.069a6.006,6.006,0,0,0,10.014-5.81A7.507,7.507,0,0,1,16.67.811,7.73,7.73,0,0,1,20.121,0a7.393,7.393,0,0,1,7.5,7.26,7.043,7.043,0,0,1-.309,2.066,5.077,5.077,0,0,1,1.974,1.911,5.563,5.563,0,0,1,.726,2.829A5.563,5.563,0,0,1,29.29,16.9a5.069,5.069,0,0,1-1.977,1.913A6.056,6.056,0,0,1,24.388,19.511Z" transform="translate(3.002 10.131)" fill="#4a90e2"/>
  <path id="shape-2" data-name="shape" d="M4.5,0A4.5,4.5,0,1,1,0,4.5,4.5,4.5,0,0,1,4.5,0Z" transform="translate(6.754 10.131)" fill="#4a90e2"/>
  <path id="shape-3" data-name="shape" d="M.992,12.382a.75.75,0,0,1,.275-1.025l1.3-.751a.75.75,0,1,1,.751,1.3l-1.3.751a.751.751,0,0,1-1.025-.274ZM2.1,7.952.62,7.691A.75.75,0,1,1,.881,6.213l1.478.26a.751.751,0,0,1-.131,1.49A.759.759,0,0,1,2.1,7.952Zm9.419-3.721a.751.751,0,0,1-.093-1.058l.965-1.149a.75.75,0,1,1,1.149.964l-.965,1.15a.749.749,0,0,1-1.057.093Zm-7.81-.093-.965-1.15a.75.75,0,0,1,1.149-.964l.965,1.149a.75.75,0,1,1-1.149.965ZM7.39,2.251V.751a.751.751,0,1,1,1.5,0v1.5a.751.751,0,1,1-1.5,0Z" transform="translate(3.116 6.378)" fill="#4a90e2"/>
</svg>
