<svg xmlns="http://www.w3.org/2000/svg" width="35.011" height="34.953" viewBox="0 0 35.011 34.953">
  <path id="_448381941580594406" data-name="448381941580594406" d="M34.7,23.726l-4.6-4.58a3.163,3.163,0,0,0-5.009.7L24.1,21.118a.843.843,0,0,1-.6.318.8.8,0,0,1-.62-.239l-7.061-7.108a.859.859,0,0,1-.239-.636.843.843,0,0,1,.318-.588l1.272-.986a3.177,3.177,0,0,0,.7-5.025l-4.628-4.58a4.532,4.532,0,0,0-6.25,0L2.047,7.235C.664,8.6.648,10.941,2.047,14.2a19.4,19.4,0,0,0,3.514,5.725L17.107,31.471a19.4,19.4,0,0,0,5.725,3.514,11.4,11.4,0,0,0,4.135.986,3.785,3.785,0,0,0,2.831-1.05l4.962-4.946a4.437,4.437,0,0,0-.064-6.25ZM32.39,27.67l-4.962,4.946c-.938.684-6.17-1.59-8.079-3.451L7.8,17.62C5.9,15.7,3.669,10.527,4.353,9.541L9.3,4.58a1.177,1.177,0,0,1,1.59,0l4.58,4.5-1.59,1.209a4.166,4.166,0,0,0-1.59,2.974,4.119,4.119,0,0,0,1.193,3.181L20.542,23.5A4.055,4.055,0,0,0,23.723,24.7a4.166,4.166,0,0,0,2.974-1.59l1.065-1.368v-.223l4.6,4.58a1.177,1.177,0,0,1,.032,1.574Z" transform="translate(-1.004 -1.024)" fill="#fff"/>
</svg>
