<svg xmlns="http://www.w3.org/2000/svg" width="40.839" height="52.473" viewBox="0 0 40.839 52.473">
  <g id="_014-placeholder-3" data-name="014-placeholder-3" transform="translate(0.75 0.75)">
    <g id="Сгруппировать_11065" data-name="Сгруппировать 11065" transform="translate(0 4.208)">
      <g id="Сгруппировать_11064" data-name="Сгруппировать 11064" transform="translate(0)">
        <path id="Контур_10459" data-name="Контур 10459" d="M84.207,82.7a.747.747,0,0,0-1.056.005,67.656,67.656,0,0,1-5.05,4.626,70.433,70.433,0,0,1-8.908-8.855,48.472,48.472,0,0,1-6.395-9.6,25.446,25.446,0,0,1-2.873-11.144A18.111,18.111,0,0,1,66.672,43.6a.747.747,0,0,0-.94-1.161,19.6,19.6,0,0,0-7.3,15.295A26.927,26.927,0,0,0,61.464,69.55a50.008,50.008,0,0,0,6.6,9.908,68.881,68.881,0,0,0,9.577,9.422.747.747,0,0,0,.914,0,63.511,63.511,0,0,0,5.655-5.124A.747.747,0,0,0,84.207,82.7Z" transform="translate(-58.431 -42.272)" fill="red" stroke="red" stroke-width="1.5"/>
      </g>
    </g>
    <g id="Сгруппировать_11067" data-name="Сгруппировать 11067" transform="translate(9.506)">
      <g id="Сгруппировать_11066" data-name="Сгруппировать 11066" transform="translate(0)">
        <path id="Контур_10460" data-name="Контур 10460" d="M164.073,0a19.667,19.667,0,0,0-9.789,2.605.747.747,0,0,0,.744,1.3,18.181,18.181,0,0,1,27.22,15.769c0,8.779-6,17.226-11.032,22.766a.747.747,0,0,0,1.106,1c5.21-5.735,11.42-14.515,11.42-23.771A19.692,19.692,0,0,0,164.073,0Z" transform="translate(-153.91)" fill="red" stroke="red" stroke-width="1.5"/>
      </g>
    </g>
    <g id="Сгруппировать_11069" data-name="Сгруппировать 11069" transform="translate(5.992 5.992)">
      <g id="Сгруппировать_11068" data-name="Сгруппировать 11068" transform="translate(0)">
        <path id="Контур_10461" data-name="Контур 10461" d="M132.3,60.188a13.677,13.677,0,1,0,0,27.354.747.747,0,1,0,0-1.494,12.183,12.183,0,1,1,12.183-12.183,12.051,12.051,0,0,1-2.669,7.61,12.238,12.238,0,0,1-6.7,4.246.747.747,0,1,0,.344,1.454A13.679,13.679,0,0,0,132.3,60.188Z" transform="translate(-118.62 -60.188)" fill="red" stroke="red" stroke-width="1.5"/>
      </g>
    </g>
    <g id="Сгруппировать_11071" data-name="Сгруппировать 11071" transform="translate(9.857 9.857)">
      <g id="Сгруппировать_11070" data-name="Сгруппировать 11070" transform="translate(0)">
        <path id="Контур_10462" data-name="Контур 10462" d="M176.314,108.069h-2.806a6.316,6.316,0,0,0-5.513-5.513V99.75a.747.747,0,1,0-1.494,0v2.806a6.316,6.316,0,0,0-5.513,5.513h-2.806a.747.747,0,1,0,0,1.494h2.806a6.316,6.316,0,0,0,5.513,5.513v2.806a.747.747,0,1,0,1.494,0v-2.806a6.316,6.316,0,0,0,5.513-5.513h2.806a.747.747,0,0,0,0-1.494Zm-9.066,5.559a4.812,4.812,0,1,1,4.812-4.812A4.817,4.817,0,0,1,167.248,113.628Z" transform="translate(-157.435 -99.003)" fill="red" stroke="red" stroke-width="1.5"/>
      </g>
    </g>
  </g>
</svg>
