<svg id="Сгруппировать_12635" data-name="Сгруппировать 12635" xmlns="http://www.w3.org/2000/svg" width="18.632" height="18.632" viewBox="0 0 18.632 18.632">
  <path id="Контур_14174" data-name="Контур 14174" d="M9.039,0A9.039,9.039,0,1,1,0,9.039,9.039,9.039,0,0,1,9.039,0Z" transform="translate(0 0)" fill="none"/>
  <path id="Контур_14158" data-name="Контур 14158" d="M9.316,1.285A8.031,8.031,0,1,1,1.285,9.316,8.04,8.04,0,0,1,9.316,1.285M9.316,0a9.316,9.316,0,1,0,9.316,9.316A9.316,9.316,0,0,0,9.316,0Z" transform="translate(0 0)" fill="#e13f03"/>
  <g id="Сгруппировать_12634" data-name="Сгруппировать 12634" transform="translate(1.927 1.889)">
    <path id="Контур_14159" data-name="Контур 14159" d="M28.321,5.879A.321.321,0,0,0,28,6.2v.321a.321.321,0,1,0,.642,0V6.2A.321.321,0,0,0,28.321,5.879Z" transform="translate(-20.933 -5.879)" fill="#8697cb"/>
    <path id="Контур_14160" data-name="Контур 14160" d="M28.321,48.879A.321.321,0,0,0,28,49.2v.321a.321.321,0,0,0,.642,0V49.2A.321.321,0,0,0,28.321,48.879Z" transform="translate(-20.933 -35.066)" fill="#8697cb"/>
    <path id="Контур_14161" data-name="Контур 14161" d="M49.642,27.879h-.321a.321.321,0,1,0,0,.642h.321a.321.321,0,0,0,0-.642Z" transform="translate(-35.187 -20.812)" fill="#8697cb"/>
    <path id="Контур_14162" data-name="Контур 14162" d="M6.642,27.879H6.321a.321.321,0,1,0,0,.642h.321a.321.321,0,1,0,0-.642Z" transform="translate(-6 -20.812)" fill="#8697cb"/>
    <path id="Контур_14163" data-name="Контур 14163" d="M43.17,12.416l-.227.227a.321.321,0,1,0,.454.454l.227-.227a.321.321,0,1,0-.454-.454Z" transform="translate(-31.012 -10.252)" fill="#8697cb"/>
    <path id="Контур_14164" data-name="Контур 14164" d="M12.765,42.822l-.227.227a.321.321,0,1,0,.454.454l.227-.227a.321.321,0,1,0-.454-.454Z" transform="translate(-10.374 -30.891)" fill="#8697cb"/>
    <path id="Контур_14165" data-name="Контур 14165" d="M43.4,42.822a.321.321,0,1,0-.454.454l.227.227a.321.321,0,1,0,.454-.454Z" transform="translate(-31.012 -30.891)" fill="#8697cb"/>
    <path id="Контур_14166" data-name="Контур 14166" d="M12.992,12.416a.321.321,0,0,0-.454.454l.227.227a.321.321,0,1,0,.454-.454Z" transform="translate(-10.374 -10.252)" fill="#8697cb"/>
  </g>
  <path id="Контур_14167" data-name="Контур 14167" d="M19.891,28.521h-2.57a.321.321,0,1,1,0-.642h2.57a.321.321,0,1,1,0,.642Z" transform="translate(-11.539 -18.923)" fill="#545e73"/>
  <path id="Контур_14168" data-name="Контур 14168" d="M28.321,18.055A.321.321,0,0,1,28,17.734V14.2a.321.321,0,1,1,.642,0v3.534A.321.321,0,0,1,28.321,18.055Z" transform="translate(-19.005 -9.421)" fill="#545e73"/>
  <path id="Контур_14169" data-name="Контур 14169" d="M26.285,27.449a1.285,1.285,0,1,1,1.285-1.285A1.286,1.286,0,0,1,26.285,27.449Zm0-1.927a.642.642,0,1,0,.642.642A.643.643,0,0,0,26.285,25.521Z" transform="translate(-16.969 -16.887)" fill="#545e73"/>
</svg>
