<svg id="Сгруппировать_11232" data-name="Сгруппировать 11232" xmlns="http://www.w3.org/2000/svg" width="24" height="24" viewBox="0 0 24 24">
  <path id="Контур_11527" data-name="Контур 11527" d="M15.23,9.289a.933.933,0,1,0-.933-.933A.933.933,0,0,0,15.23,9.289Z" transform="translate(2.866 1.488)" fill="#989cae"/>
  <path id="Контур_11528" data-name="Контур 11528" d="M20.25,1.875H19.031V.937a.937.937,0,0,0-1.875,0v.937H12.891V.937a.938.938,0,0,0-1.875,0v.937H6.8V.937a.938.938,0,0,0-1.875,0v.937H3.75A3.754,3.754,0,0,0,0,5.625V20.25A3.754,3.754,0,0,0,3.75,24h7.172a.937.937,0,1,0,0-1.875H3.75A1.877,1.877,0,0,1,1.875,20.25V5.625A1.877,1.877,0,0,1,3.75,3.75H4.922v.937a.938.938,0,0,0,1.875,0V3.75h4.219v.937a.938.938,0,0,0,1.875,0V3.75h4.266v.937a.938.938,0,1,0,1.875,0V3.75H20.25a1.877,1.877,0,0,1,1.875,1.875v5.344a.937.937,0,1,0,1.875,0V5.625A3.754,3.754,0,0,0,20.25,1.875Z" fill="#989cae"/>
  <path id="Контур_11529" data-name="Контур 11529" d="M16.194,10.547a5.647,5.647,0,1,0,5.648,5.647A5.654,5.654,0,0,0,16.194,10.547Zm0,9.428a3.781,3.781,0,1,1,3.781-3.781A3.785,3.785,0,0,1,16.194,19.975Z" transform="translate(2.158 2.158)" fill="#989cae"/>
  <path id="Контур_11530" data-name="Контур 11530" d="M16.779,14.8h-.42v-.98a.933.933,0,1,0-1.867,0v1.914a.934.934,0,0,0,.933.934h1.354a.933.933,0,1,0,0-1.867Z" transform="translate(2.927 2.591)" fill="#989cae"/>
  <path id="Контур_11531" data-name="Контур 11531" d="M11.832,9.289a.933.933,0,1,0-.934-.933A.933.933,0,0,0,11.832,9.289Z" transform="translate(2.184 1.488)" fill="#989cae"/>
  <path id="Контур_11532" data-name="Контур 11532" d="M8.433,12.687a.933.933,0,1,0-.933-.933A.933.933,0,0,0,8.433,12.687Z" transform="translate(1.503 2.169)" fill="#989cae"/>
  <path id="Контур_11533" data-name="Контур 11533" d="M5.035,9.289A.933.933,0,1,0,4.1,8.355.933.933,0,0,0,5.035,9.289Z" transform="translate(0.822 1.488)" fill="#989cae"/>
  <path id="Контур_11534" data-name="Контур 11534" d="M5.035,12.687a.933.933,0,1,0-.933-.933A.933.933,0,0,0,5.035,12.687Z" transform="translate(0.822 2.169)" fill="#989cae"/>
  <path id="Контур_11535" data-name="Контур 11535" d="M5.035,16.086a.933.933,0,1,0-.933-.933A.933.933,0,0,0,5.035,16.086Z" transform="translate(0.822 2.85)" fill="#989cae"/>
  <path id="Контур_11536" data-name="Контур 11536" d="M8.433,16.086a.933.933,0,1,0-.933-.933A.933.933,0,0,0,8.433,16.086Z" transform="translate(1.503 2.85)" fill="#989cae"/>
  <path id="Контур_11537" data-name="Контур 11537" d="M8.433,9.289A.933.933,0,1,0,7.5,8.355.933.933,0,0,0,8.433,9.289Z" transform="translate(1.503 1.488)" fill="#989cae"/>
</svg>
