<svg xmlns="http://www.w3.org/2000/svg" width="13.777" height="20.194" viewBox="0 0 13.777 20.194">
  <g id="icon-116-lock-open" transform="translate(0.15 0.15)">
    <path id="_-ock-open" data-name="-ock-open" d="M17.551,6.455V5.813a4.813,4.813,0,0,0-9.626,0v4.814h0A1.927,1.927,0,0,0,6,12.558v6.405a1.93,1.93,0,0,0,1.931,1.931h9.615a1.927,1.927,0,0,0,1.931-1.931V12.558a1.93,1.93,0,0,0-1.925-1.931H9.868a2.905,2.905,0,0,1-.018-.321V5.813a2.888,2.888,0,0,1,5.776,0v.642L15.6,10.2c0,.532.427.428.963.428s.963.1.963-.428l.028-3.743Zm-.642-.646a4.171,4.171,0,0,0-8.343,0v4.5q0,.16.012.317h.63V5.819a3.53,3.53,0,1,1,7.059,0L16.24,10.2a.324.324,0,0,0,.321.319h0a.316.316,0,0,0,.321-.315l.028-4.07V5.809Zm-4.492,9.9V17.37a.321.321,0,0,0,.642,0V15.705a.963.963,0,1,0-.642,0Zm-.642.376v1.282a.963.963,0,1,0,1.925,0V16.081a1.6,1.6,0,1,0-1.925,0ZM7.924,11.268a1.284,1.284,0,0,0-1.282,1.287v6.41a1.283,1.283,0,0,0,1.282,1.287h9.63a1.284,1.284,0,0,0,1.282-1.287v-6.41a1.283,1.283,0,0,0-1.282-1.287Z" transform="translate(-6 -1)" fill="#19a49c" stroke="#19a49c" stroke-width="0.3" fill-rule="evenodd"/>
  </g>
</svg>
