<svg xmlns="http://www.w3.org/2000/svg" width="25.715" height="25.7" viewBox="0 0 25.715 25.7">
  <g id="_16945449851552644365" data-name="16945449851552644365" transform="translate(0.857 0.85)">
    <circle id="XMLID_224_" cx="2.324" cy="2.324" r="2.324" transform="translate(9.676 9.676)" fill="none" stroke="#989cae" stroke-linecap="round" stroke-linejoin="round" stroke-miterlimit="10" stroke-width="1.7"/>
    <path id="XMLID_242_" d="M27.706,9.8l-1-1.6a2.086,2.086,0,0,0-2.726-.676l-.525.281a3,3,0,0,1-4.49-2.4V4.846a1.925,1.925,0,0,0-2-1.846h-2a1.925,1.925,0,0,0-2,1.846v.561a3,3,0,0,1-4.49,2.4l-.525-.281A2.086,2.086,0,0,0,5.239,8.2l-1,1.6a1.773,1.773,0,0,0,.73,2.522L5.5,12.6a2.67,2.67,0,0,1,0,4.8l-.525.281a1.773,1.773,0,0,0-.73,2.522l1,1.6a2.086,2.086,0,0,0,2.726.676l.525-.281a3,3,0,0,1,4.49,2.4v.561a1.925,1.925,0,0,0,2,1.846h2a1.925,1.925,0,0,0,2-1.846v-.561a3,3,0,0,1,4.49-2.4l.525.281a2.086,2.086,0,0,0,2.726-.676l1-1.6a1.773,1.773,0,0,0-.73-2.522L26.45,17.4a2.67,2.67,0,0,1,0-4.8l.525-.281A1.772,1.772,0,0,0,27.706,9.8Z" transform="translate(-3.974 -3)" fill="none" stroke="#989cae" stroke-linecap="round" stroke-linejoin="round" stroke-miterlimit="10" stroke-width="1.7"/>
  </g>
</svg>
