<svg id="Business_analytics-pana_1_" data-name="Business analytics-pana (1)" xmlns="http://www.w3.org/2000/svg" width="148.918" height="142.732" viewBox="0 0 148.918 142.732">
  <g id="freepik--background-complete--inject-31" transform="translate(3.62 0)">
    <path id="Контур_9869" data-name="Контур 9869" d="M70.113,93.588l-3.3-5.36a14.67,14.67,0,1,0-3.373,4.047h0Z" transform="translate(-39.37 -52.617)" fill="#f5f5f5"/>
    <path id="Контур_9870" data-name="Контур 9870" d="M78.158,102.9a1.52,1.52,0,0,1-.257,0l-.735.017-2.7.027-8.913.04H64.82V102.9c0-3.339,0-6.322.023-8.5,0-1.069.02-1.934.027-2.555V91.16a1.045,1.045,0,0,1,0-.24,1.954,1.954,0,0,1,0,.24v.691c0,.621,0,1.486.027,2.555,0,2.174,0,5.163.027,8.5l-.083-.083h.708l8.92.023,2.7.027h.735A1.17,1.17,0,0,1,78.158,102.9Z" transform="translate(-56.321 -68.987)" fill="#263238"/>
    <path id="Контур_9871" data-name="Контур 9871" d="M65.381,102.882h-.728a.087.087,0,0,1-.057-.023.083.083,0,0,1-.027-.06L64.6,94.22l.043-3.246c0-.281,0-.334.1-.334s.09.043.1.334l.02,1.406.02,1.843.027,8.329h.474l8.92.023,3.443.043c.3,0,.334,0,.334.1s-.04.09-.334.1l-.735.017-2.7.027Zm-.468-.167Zm-.167-.214v.047h0Z" transform="translate(-56.155 -68.801)" fill="#e0e0e0"/>
    <path id="Контур_9872" data-name="Контур 9872" d="M79.329,99.63a4.148,4.148,0,0,1-.394.377l-1.119.982c-.952.822-2.271,1.954-3.733,3.192l-.22.187-.057.047-.057-.05-1.67-1.543h.12l-2.438,2-.708.564a1.424,1.424,0,0,1-.264.19,1.723,1.723,0,0,1,.234-.227l.668-.6,2.4-2.057.053-.043.05.047,1.67,1.533h-.11l.22-.187c1.466-1.239,2.8-2.354,3.767-3.152l1.139-.935A3.119,3.119,0,0,1,79.329,99.63Z" transform="translate(-58.966 -74.789)" fill="#263238"/>
    <path id="Контур_9873" data-name="Контур 9873" d="M68.62,105.512c-.02,0-.037,0-.057-.037s-.027-.1.24-.334l.668-.6,2.451-2.1a.087.087,0,0,1,.114,0l1.62,1.486.107-.094c1.419-1.2,2.755-2.338,3.767-3.156l1.152-.942c.481-.384.491-.387.554-.334h0c.063.073.053.08-.4.491l-1.119,1c-1,.855-2.314,2-3.733,3.192l-.277.234a.083.083,0,0,1-.11,0l-1.613-1.5-3.036,2.488C68.75,105.449,68.67,105.512,68.62,105.512Zm5.156-1.486h0l.093-.08.721-.614-.721.611Zm-.307-.06.06.057h0Z" transform="translate(-58.809 -74.62)" fill="#e0e0e0"/>
    <path id="Контур_9874" data-name="Контур 9874" d="M94.122,102.105a4.005,4.005,0,0,1-.057-.828c-.017-.511-.027-1.222-.027-2l.083.083h-.144c-.825,0-1.57,0-2.111-.023a4.626,4.626,0,0,1-.868-.07,4.63,4.63,0,0,1,.875-.06c.541,0,1.286-.023,2.111-.023h.227v.083c0,.791,0,1.5-.027,2A4.008,4.008,0,0,1,94.122,102.105Z" transform="translate(-73.759 -74.489)" fill="#263238"/>
    <path id="Контур_9875" data-name="Контур 9875" d="M93.943,102.022c-.094,0-.114,0-.14-.908-.017-.494-.023-1.145-.027-1.85-.788,0-1.529,0-2.09-.023-.955-.027-.955-.047-.955-.144s0-.117.955-.144c.568,0,1.336-.023,2.114-.023h.227a.1.1,0,0,1,.06.023.08.08,0,0,1,.023.06V99.1c0,.768,0,1.483-.027,2C94.059,102.022,94.039,102.022,93.943,102.022Zm0-2.758ZM93.4,99.1Z" transform="translate(-73.579 -74.323)" fill="#e0e0e0"/>
    <path id="Контур_9876" data-name="Контур 9876" d="M216.75,43.752l18.293-2.8a18.51,18.51,0,1,1-16.263-15.6Z" transform="translate(-145.183 -25.242)" fill="#ebebeb"/>
    <path id="Контур_9877" data-name="Контур 9877" d="M267.021,25.76,264.8,39.942l13.922-2.615S276.675,29.38,267.021,25.76Z" transform="translate(-189.52 -25.587)" fill="#e0e0e0"/>
    <path id="Контур_9878" data-name="Контур 9878" d="M379.848,78.834A12.85,12.85,0,1,1,392.9,91.523,12.85,12.85,0,0,1,379.848,78.834Zm18.991-.307A6.145,6.145,0,1,0,392.8,84.8,6.145,6.145,0,0,0,398.839,78.526Z" transform="translate(-266.148 -52.273)" fill="#f5f5f5"/>
    <path id="Контур_9879" data-name="Контур 9879" d="M379.846,78.617A12.894,12.894,0,0,1,392.486,65.5l.1,6.736a6.179,6.179,0,0,0,.2,12.356l.107,6.736A12.89,12.89,0,0,1,379.846,78.617Z" transform="translate(-266.146 -52.056)" fill="#e0e0e0"/>
    <path id="Контур_9880" data-name="Контур 9880" d="M414.25,62.4a14.673,14.673,0,0,1,15.027,14.627l-7.844.127c-.064-3.984-3.092-6.488-7.056-6.425Z" transform="translate(-289.062 -49.987)" fill="#ebebeb"/>
  </g>
  <g id="freepik--Chart--inject-31" transform="translate(0 20.547)">
    <rect id="Прямоугольник_2988" data-name="Прямоугольник 2988" width="8.869" height="20.444" transform="translate(3.376 74.946)" fill="#ebebeb"/>
    <rect id="Прямоугольник_2989" data-name="Прямоугольник 2989" width="8.869" height="39.051" transform="translate(16.156 56.339)" fill="#f5f5f5"/>
    <rect id="Прямоугольник_2990" data-name="Прямоугольник 2990" width="8.869" height="37.932" transform="translate(61.118 57.458)" fill="#ebebeb"/>
    <rect id="Прямоугольник_2991" data-name="Прямоугольник 2991" width="8.869" height="51.37" transform="translate(74.405 43.616)" fill="#f5f5f5"/>
    <rect id="Прямоугольник_2992" data-name="Прямоугольник 2992" width="8.869" height="52.178" transform="translate(122.122 43.209)" fill="#f5f5f5"/>
    <rect id="Прямоугольник_2993" data-name="Прямоугольник 2993" width="8.869" height="44.184" transform="translate(138.816 51.203)" fill="#ebebeb"/>
    <path id="Контур_9881" data-name="Контур 9881" d="M177.448,216.151s-.08-.134-.227-.4-.354-.668-.648-1.2c-.591-1.042-1.479-2.575-2.785-4.441-.651-.932-1.423-1.94-2.321-3.005a31.65,31.65,0,0,0-3.139-3.226,25.009,25.009,0,0,0-4.168-3.052c-.4-.227-.8-.454-1.226-.668s-.862-.4-1.3-.591a17.748,17.748,0,0,0-2.835-.885,16.368,16.368,0,0,0-3.089-.361,15.063,15.063,0,0,0-3.226.334,14.423,14.423,0,0,0-3.2,1.089c-1.035.494-2.047,1.109-3.116,1.67a35.062,35.062,0,0,1-6.849,2.865,26.292,26.292,0,0,1-7.818.885c-.334,0-.668-.027-1-.04a9.562,9.562,0,0,1-1.022-.077c-.17-.023-.334-.033-.511-.067l-.508-.1c-.334-.06-.668-.174-1-.267a26.746,26.746,0,0,1-3.874-1.6l-3.82-1.917a23.146,23.146,0,0,0-4.037-1.606,25.409,25.409,0,0,0-8.816-.882,13.618,13.618,0,0,0-4.365,1.216,14.533,14.533,0,0,0-3.73,2.638,42.112,42.112,0,0,0-5.594,7.263c-1.673,2.511-3.279,5.043-5.009,7.413a44.858,44.858,0,0,1-5.654,6.529,27.9,27.9,0,0,1-3.276,2.615,25.2,25.2,0,0,1-3.577,2,20,20,0,0,1-3.777,1.306c-.638.17-1.289.26-1.93.367a18.828,18.828,0,0,1-1.93.12,15.491,15.491,0,0,1-7.186-1.713c-2.161-1.052-4.107-2.314-6.1-3.293a18.4,18.4,0,0,0-23.042,5.126,18.751,18.751,0,0,0-2.6,4.525l-.281.741c-.077.214-.13.4-.177.541l-.147.444s.04-.154.13-.447c.043-.147.094-.334.167-.548s.17-.464.274-.745a18.367,18.367,0,0,1,19.622-11.631,18.612,18.612,0,0,1,6.1,1.873c2,.978,3.951,2.241,6.1,3.283a15.361,15.361,0,0,0,7.12,1.69,18.444,18.444,0,0,0,1.913-.12c.638-.107,1.279-.2,1.913-.364a19.946,19.946,0,0,0,3.747-1.3,25.16,25.16,0,0,0,3.55-2,28.005,28.005,0,0,0,3.256-2.6,44.986,44.986,0,0,0,5.63-6.509c1.723-2.368,3.339-4.879,5.009-7.407a41.091,41.091,0,0,1,5.61-7.283,14.654,14.654,0,0,1,3.79-2.672,13.715,13.715,0,0,1,4.418-1.2,25.163,25.163,0,0,1,8.88.888,23.112,23.112,0,0,1,4.057,1.62l3.817,1.917a26.929,26.929,0,0,0,3.85,1.6c.334.09.668.2,1,.26l.5.1c.167.033.334.043.5.067.334.047.668.06,1,.077s.668.043,1,.04a26.161,26.161,0,0,0,7.774-.865,34.977,34.977,0,0,0,6.826-2.845c1.065-.548,2.074-1.155,3.122-1.67a14.888,14.888,0,0,1,6.488-1.423,16.329,16.329,0,0,1,3.112.367,17.967,17.967,0,0,1,2.852.9c.444.2.892.377,1.309.6s.832.434,1.232.668a25.049,25.049,0,0,1,4.178,3.072,32.067,32.067,0,0,1,3.136,3.246,37.211,37.211,0,0,1,2.311,3.005,50.046,50.046,0,0,1,2.762,4.461c.287.528.491.938.635,1.209Z" transform="translate(-28.53 -161.001)" fill="#263238"/>
    <ellipse id="Эллипс_45" data-name="Эллипс 45" cx="2.281" cy="2.281" rx="2.281" ry="2.281" transform="translate(76.215 35.184)" fill="#b0bec5"/>
    <path id="Контур_9882" data-name="Контур 9882" d="M255.324,195.088a4.144,4.144,0,1,1,4.144-4.141,4.144,4.144,0,0,1-4.144,4.141Zm0-7.951a3.81,3.81,0,1,0,3.81,3.81A3.81,3.81,0,0,0,255.324,187.137Z" transform="translate(-176.828 -153.396)" fill="#b0bec5"/>
    <path id="Контур_9883" data-name="Контур 9883" d="M260.269,160.813l-.12-4.672,1.165.02-2.177-2.661-2.177,2.685,1.205.007.12,4.608Z" transform="translate(-180.678 -131.216)" fill="#ebebeb"/>
    <path id="Контур_9884" data-name="Контур 9884" d="M248.352,170.275v.858h-.768v-.821a3.64,3.64,0,0,1-1.9-.611l.421-.935a3.071,3.071,0,0,0,1.483.544v-1.279c-.848-.207-1.8-.491-1.8-1.583,0-.811.588-1.509,1.8-1.646v-.852h.768v.835a3.49,3.49,0,0,1,1.553.467l-.384.942a3.175,3.175,0,0,0-1.169-.4v1.3c.848.2,1.783.484,1.783,1.563C250.128,169.44,249.55,170.131,248.352,170.275Zm-.768-3.383v-1.085c-.4.09-.564.314-.564.564S247.25,166.785,247.583,166.892Zm1.336,1.843c0-.267-.224-.411-.551-.528v1.059c.364-.087.534-.29.534-.531Z" transform="translate(-173.165 -138.176)" fill="#e0e0e0"/>
    <path id="Контур_9885" data-name="Контур 9885" d="M278.325,134.511c0,.591-.434,1.1-1.386,1.1a2.307,2.307,0,0,1-1.269-.354l.3-.591a1.612,1.612,0,0,0,.948.3c.384,0,.621-.164.621-.434s-.17-.431-.775-.431h-.852l.174-1.873h2.027v.618h-1.389l-.053.631h.271C277.934,133.489,278.325,133.923,278.325,134.511Z" transform="translate(-193.14 -117.049)" fill="#b0bec5"/>
    <path id="Контур_9886" data-name="Контур 9886" d="M284.56,133.78c0-1.1.608-1.72,1.426-1.72s1.426.621,1.426,1.72-.6,1.72-1.426,1.72S284.56,134.878,284.56,133.78Zm2.077,0c0-.755-.267-1.069-.651-1.069s-.644.314-.644,1.069.264,1.069.644,1.069S286.637,134.535,286.637,133.78Z" transform="translate(-199.061 -116.936)" fill="#b0bec5"/>
    <path id="Контур_9887" data-name="Контур 9887" d="M294.05,133.06a.828.828,0,1,1,.208.645A.828.828,0,0,1,294.05,133.06Zm1.175,0c0-.357-.14-.528-.334-.528s-.334.177-.334.528.144.528.334.528S295.226,133.417,295.226,133.06Zm1.633-.878h.568l-2.274,3.339h-.564Zm-.544,2.448a.828.828,0,1,1,.206.642A.828.828,0,0,1,296.314,134.629Zm1.169,0c0-.351-.137-.528-.334-.528s-.334.17-.334.528.143.528.334.528S297.483,134.98,297.483,134.629Z" transform="translate(-205.379 -117.001)" fill="#b0bec5"/>
    <ellipse id="Эллипс_46" data-name="Эллипс 46" cx="2.281" cy="2.281" rx="2.281" ry="2.281" transform="translate(5.774 63.325)" fill="#b0bec5"/>
    <path id="Контур_9888" data-name="Контур 9888" d="M44.384,279.358a4.144,4.144,0,1,1,4.144-4.144A4.144,4.144,0,0,1,44.384,279.358Zm0-7.951a3.81,3.81,0,1,0,3.81,3.807A3.81,3.81,0,0,0,44.384,271.407Z" transform="translate(-36.33 -209.525)" fill="#b0bec5"/>
    <path id="Контур_9889" data-name="Контур 9889" d="M47.172,243.5l.124,4.669-1.165-.02,2.177,2.661,2.177-2.685-1.209-.007-.12-4.608Z" transform="translate(-40.253 -191.161)" fill="#ebebeb"/>
    <path id="Контур_9890" data-name="Контур 9890" d="M35.878,256.318v.858h-.765v-.832a3.613,3.613,0,0,1-1.9-.611l.421-.935a3.072,3.072,0,0,0,1.483.544v-1.279c-.848-.2-1.8-.488-1.8-1.583,0-.811.588-1.509,1.8-1.646V250h.765v.835a3.447,3.447,0,0,1,1.556.464l-.384.942a3.173,3.173,0,0,0-1.172-.4v1.3c.852.2,1.783.481,1.783,1.56C37.661,255.487,37.08,256.175,35.878,256.318Zm-.765-3.383V251.85c-.4.09-.564.314-.564.568S34.776,252.829,35.113,252.935Zm1.316,1.847c0-.267-.22-.414-.551-.528v1.055C36.262,255.226,36.429,255.026,36.429,254.782Z" transform="translate(-31.647 -195.491)" fill="#e0e0e0"/>
    <path id="Контур_9891" data-name="Контур 9891" d="M437.821,182.122v.858h-.765v-.835a3.623,3.623,0,0,1-1.907-.614l.421-.932a3.1,3.1,0,0,0,1.486.544v-1.282c-.848-.207-1.8-.491-1.8-1.586,0-.808.591-1.506,1.8-1.643v-.852h.765v.835a3.476,3.476,0,0,1,1.553.467l-.381.942a3.056,3.056,0,0,0-1.172-.4v1.3c.848.2,1.783.484,1.783,1.563C439.6,181.287,439.024,181.975,437.821,182.122Zm-.765-3.383v-1.085c-.407.09-.568.311-.568.564S436.72,178.632,437.057,178.739Zm1.316,1.843c0-.267-.22-.411-.551-.528v1.055C438.206,181.026,438.373,180.829,438.373,180.582Z" transform="translate(-299.363 -146.056)" fill="#e0e0e0"/>
    <path id="Контур_9892" data-name="Контур 9892" d="M449.388,189.37a1.943,1.943,0,0,0,1.162-1.8,1.83,1.83,0,1,0-3.653-.02,1.943,1.943,0,0,0,1.162,1.82c-2.812.424-2.672,3.48-2.672,3.48l6.652.033S452.177,189.791,449.388,189.37Z" transform="translate(-306.181 -152.61)" fill="#ebebeb"/>
    <path id="Контур_9893" data-name="Контур 9893" d="M283.949,100.1a.421.421,0,0,1-.407-.334l-.938-3.954h-2.615l-.9,3.77a.424.424,0,0,1-.508.311.417.417,0,0,1-.31-.508l.9-3.713a.7.7,0,0,1,.668-.668h2.905a.711.711,0,0,1,.668.668l.932,3.92a.421.421,0,0,1-.311.508A.512.512,0,0,1,283.949,100.1Z" transform="translate(-194.86 -92.252)" fill="#b0bec5"/>
    <rect id="Прямоугольник_2994" data-name="Прямоугольник 2994" width="2.548" height="4.648" transform="translate(85.152 2.775)" fill="#b0bec5"/>
    <path id="Контур_9894" data-name="Контур 9894" d="M284.038,112.46a.508.508,0,0,1-.5-.508v-5.493a.5.5,0,1,1,1,0v5.483a.5.5,0,0,1-.5.518Z" transform="translate(-198.375 -99.509)" fill="#b0bec5"/>
    <path id="Контур_9895" data-name="Контур 9895" d="M288.614,112.732a.508.508,0,0,1-.5-.508v-5.493a.508.508,0,0,1,1,0v5.483a.508.508,0,0,1-.5.518Z" transform="translate(-201.425 -99.782)" fill="#b0bec5"/>
    <path id="Контур_9896" data-name="Контур 9896" d="M286.085,88a1.232,1.232,0,1,1-1.232-1.232A1.232,1.232,0,0,1,286.085,88Z" transform="translate(-198.435 -86.77)" fill="#b0bec5"/>
    <path id="Контур_9897" data-name="Контур 9897" d="M280.75,105.753l.968-3.713h2.465l.945,3.713Z" transform="translate(-196.523 -96.941)" fill="#b0bec5"/>
    <path id="Контур_9898" data-name="Контур 9898" d="M216.254,149.26c0,.5-.367.935-1.172.935a1.947,1.947,0,0,1-1.082-.311l.261-.5a1.362,1.362,0,0,0,.8.254c.334,0,.524-.137.524-.367s-.144-.367-.668-.367H214.2l.147-1.586h1.716v.524h-1.175l-.043.534h.23C215.924,148.385,216.254,148.759,216.254,149.26Z" transform="translate(-152.064 -127.1)" fill="#455a64"/>
    <path id="Контур_9899" data-name="Контур 9899" d="M221.55,148.656c0-.928.514-1.456,1.206-1.456s1.209.528,1.209,1.456-.511,1.459-1.209,1.459S221.55,149.588,221.55,148.656Zm1.757,0c0-.638-.224-.905-.551-.905s-.548.267-.548.905.227.9.548.9S223.307,149.3,223.307,148.656Z" transform="translate(-157.093 -127.02)" fill="#455a64"/>
    <path id="Контур_9900" data-name="Контур 9900" d="M229.581,148.085a.7.7,0,1,1,.174.546A.7.7,0,0,1,229.581,148.085Zm1,0c0-.3-.117-.444-.294-.444s-.294.147-.294.444.124.447.294.447.284-.144.284-.447Zm1.386-.745h.481l-1.927,2.818h-.471Zm-.464,2.074a.3.3,0,1,1-.01,0Zm1,0c0-.3-.117-.447-.294-.447s-.294.147-.294.447.12.447.294.447.274-.15.274-.447Z" transform="translate(-162.439 -127.113)" fill="#455a64"/>
    <path id="Контур_9901" data-name="Контур 9901" d="M220.548,119.139a.411.411,0,0,1-.411-.411v-3.767H217.1v3.767a.411.411,0,0,1-.822,0v-3.87a.711.711,0,0,1,.7-.718h3.269a.715.715,0,0,1,.7.718v3.87A.411.411,0,0,1,220.548,119.139Z" transform="translate(-153.582 -105)" fill="#455a64"/>
    <rect id="Прямоугольник_2995" data-name="Прямоугольник 2995" width="2.491" height="4.542" transform="translate(63.793 9.187)" fill="#455a64"/>
    <path id="Контур_9902" data-name="Контур 9902" d="M220.074,130.467a.461.461,0,0,1-.494-.421v-4.618a.5.5,0,0,1,.985,0v4.618A.461.461,0,0,1,220.074,130.467Z" transform="translate(-155.78 -112.234)" fill="#455a64"/>
    <path id="Контур_9903" data-name="Контур 9903" d="M224.541,130.467a.461.461,0,0,1-.491-.421v-4.618a.5.5,0,0,1,.985,0v4.618A.461.461,0,0,1,224.541,130.467Z" transform="translate(-158.758 -112.234)" fill="#455a64"/>
    <path id="Контур_9904" data-name="Контур 9904" d="M222.094,107.362a1.2,1.2,0,1,1-1.2-1.2,1.2,1.2,0,0,1,1.2,1.2Z" transform="translate(-155.854 -99.685)" fill="#455a64"/>
    <path id="Контур_9905" data-name="Контур 9905" d="M453.042,218.391a2.281,2.281,0,1,1-2.281-2.281A2.281,2.281,0,0,1,453.042,218.391Z" transform="translate(-308.241 -172.918)" fill="#b0bec5"/>
    <path id="Контур_9906" data-name="Контур 9906" d="M447.044,219.068a4.144,4.144,0,1,1,4.144-4.141A4.144,4.144,0,0,1,447.044,219.068Zm0-7.951a3.81,3.81,0,1,0,3.81,3.81A3.81,3.81,0,0,0,447.044,211.117Z" transform="translate(-304.525 -169.368)" fill="#b0bec5"/>
  </g>
  <g id="freepik--character-2--inject-31" transform="translate(77.601 37.128)">
    <path id="Контур_9907" data-name="Контур 9907" d="M298.9,400.327h0s-.21,11.631-.21,15.946h36.693V404l-1.162-3.226-.417-2.618Z" transform="translate(-286.073 -310.755)" fill="#263238"/>
    <path id="Контур_9908" data-name="Контур 9908" d="M327.767,438.671a27.557,27.557,0,0,1-.2-3.086,28.31,28.31,0,0,1-.03-3.1,27.717,27.717,0,0,1,.2,3.089A28.257,28.257,0,0,1,327.767,438.671Z" transform="translate(-305.266 -333.621)" fill="#455a64"/>
    <path id="Контур_9909" data-name="Контур 9909" d="M331.277,416.684a.491.491,0,0,1,.214-.07,1.084,1.084,0,0,1,.611.1.972.972,0,0,1,.558.738,1,1,0,0,1-.481,1,.932.932,0,0,1-1.1-.217.718.718,0,0,1-.187-.484.762.762,0,0,1,.13-.427.779.779,0,0,1,.511-.357c.15-.02.23.017.227.023a1.116,1.116,0,0,0-.211.043.764.764,0,0,0-.424.354.615.615,0,0,0,.073.741.778.778,0,0,0,.9.17.858.858,0,0,0-.05-1.493A1.444,1.444,0,0,0,331.277,416.684Z" transform="translate(-307.521 -323.041)" fill="#455a64"/>
    <path id="Контур_9910" data-name="Контур 9910" d="M383.911,412.26a3.373,3.373,0,0,1-.708-.411,19.563,19.563,0,0,1-1.59-1.166c-.588-.481-1.119-.952-1.479-1.3a3.3,3.3,0,0,1-.554-.6,4.238,4.238,0,0,1,.638.511c.381.334.908.778,1.5,1.256s1.152.9,1.553,1.2A4.418,4.418,0,0,1,383.911,412.26Z" transform="translate(-339.951 -317.829)" fill="#455a64"/>
    <path id="Контур_9911" data-name="Контур 9911" d="M369.484,426.81a.672.672,0,0,1-.16.09l-.481.23-.334.164c-.127.057-.274.107-.427.164-.307.11-.668.257-1.055.361L366.4,428c-.217.06-.451.1-.688.15-.474.114-1,.17-1.536.244a16.617,16.617,0,0,1-7.053-.791,15.154,15.154,0,0,1-1.446-.574c-.22-.1-.441-.19-.641-.294l-.571-.311a10.225,10.225,0,0,1-.952-.584c-.137-.09-.267-.17-.384-.25s-.21-.164-.3-.237l-.417-.334c-.094-.077-.14-.117-.137-.124a1,1,0,0,1,.157.1l.438.3.31.22c.117.077.25.154.391.24.28.167.588.377.958.554l.571.3c.2.1.417.184.638.284.438.207.928.367,1.439.551a16.9,16.9,0,0,0,6.969.771c.541-.067,1.055-.117,1.526-.224.237-.05.468-.083.685-.14l.624-.167c.4-.094.745-.23,1.055-.334.154-.053.3-.1.431-.15l.354-.147.491-.2A.751.751,0,0,1,369.484,426.81Z" transform="translate(-321.761 -328.559)" fill="#455a64"/>
    <path id="Контур_9912" data-name="Контур 9912" d="M314.221,147.783a2.338,2.338,0,0,1-.755-4.585,2.428,2.428,0,0,1,2.321-3.984,2.909,2.909,0,0,1,4.5-2.157,3.266,3.266,0,0,1,4.024.124,2.338,2.338,0,0,1,1.85,4.044" transform="translate(-294.779 -136.423)" fill="#263238"/>
    <path id="Контур_9913" data-name="Контур 9913" d="M315.349,154.163a9.908,9.908,0,0,1,10.329-8.609l.514.027c5.51.594,8.081,5.61,7.33,11.1l-1.713,18.367-.094.892-12.877,1.923.25-4.675s-5.286-1.112-5.1-6.425C314.1,164.195,314.725,158.925,315.349,154.163Z" transform="translate(-296.261 -142.496)" fill="#937263"/>
    <path id="Контур_9914" data-name="Контур 9914" d="M329.013,224.87a12.887,12.887,0,0,0,7.06-1.69s-1.827,3.74-7.1,3.005Z" transform="translate(-306.242 -194.208)" fill="#5e483f"/>
    <path id="Контур_9915" data-name="Контур 9915" d="M320.708,182.557a.761.761,0,0,0,.691.8.728.728,0,0,0,.818-.645.765.765,0,0,0-.695-.8.731.731,0,0,0-.815.648Z" transform="translate(-300.738 -166.716)" fill="#263238"/>
    <path id="Контур_9916" data-name="Контур 9916" d="M321.086,177.871c.09.1.668-.294,1.5-.25s1.393.478,1.486.384c.047-.043-.04-.227-.294-.427a2.067,2.067,0,0,0-1.182-.431,2,2,0,0,0-1.2.334C321.136,177.647,321.053,177.824,321.086,177.871Z" transform="translate(-300.986 -163.545)" fill="#263238"/>
    <path id="Контур_9917" data-name="Контур 9917" d="M343.787,184.762a.755.755,0,0,0,.691.8.731.731,0,0,0,.818-.645.758.758,0,0,0-.695-.8.725.725,0,0,0-.815.645Z" transform="translate(-316.11 -168.186)" fill="#263238"/>
    <path id="Контур_9918" data-name="Контур 9918" d="M345.086,179.558c.09.1.688-.291,1.5-.247s1.392.478,1.486.384c.047-.043-.04-.227-.29-.427a2.077,2.077,0,0,0-1.185-.431,2.024,2.024,0,0,0-1.2.334C345.14,179.324,345.053,179.5,345.086,179.558Z" transform="translate(-316.972 -164.672)" fill="#263238"/>
    <path id="Контур_9919" data-name="Контур 9919" d="M331.271,185.121a5.4,5.4,0,0,0-1.312-.3c-.207-.033-.4-.083-.431-.227a1.046,1.046,0,0,1,.17-.611c.22-.494.451-1,.695-1.556a28.389,28.389,0,0,0,1.59-4.084,28.805,28.805,0,0,0-1.913,3.944l-.668,1.57a1.192,1.192,0,0,0-.147.811.5.5,0,0,0,.334.334,1.233,1.233,0,0,0,.351.067A5.494,5.494,0,0,0,331.271,185.121Z" transform="translate(-306.419 -164.341)" fill="#263238"/>
    <path id="Контур_9920" data-name="Контур 9920" d="M337.038,200.7c-.13,0-.177.872-.968,1.463s-1.726.447-1.74.571c0,.053.2.18.6.21a2.2,2.2,0,0,0,1.449-.424,1.927,1.927,0,0,0,.755-1.229C337.189,200.92,337.1,200.7,337.038,200.7Z" transform="translate(-309.812 -179.235)" fill="#263238"/>
    <path id="Контур_9921" data-name="Контур 9921" d="M344.986,170.305c.07.224.888.16,1.84.334s1.713.461,1.85.267c.063-.09-.06-.307-.364-.538a3.236,3.236,0,0,0-2.812-.451C345.126,170.032,344.939,170.185,344.986,170.305Z" transform="translate(-316.905 -158.639)" fill="#263238"/>
    <path id="Контур_9922" data-name="Контур 9922" d="M322.317,170.737c.134.19.708.027,1.383.05s1.242.187,1.386,0c.06-.09-.02-.281-.26-.468a2,2,0,0,0-2.231-.043C322.347,170.456,322.26,170.64,322.317,170.737Z" transform="translate(-301.799 -158.759)" fill="#263238"/>
    <path id="Контур_9923" data-name="Контур 9923" d="M320,150.4s1.566-3.259,3.209-3.954c1.987-.845,2.718,1.336,4.6.9s3.773-1.236,5.594.287c2,1.67.968,2.718.978,5.083.043,9.581,1.653,12.356,2.374,7.894.08-.491,1.466-.815,1.773-2.889.4-2.688.668-5.964.157-7.911A7.577,7.577,0,0,0,335.8,145.7c-2.511-2.074-6.091-2.294-8.536-2.167S319.973,146.221,320,150.4Z" transform="translate(-300.267 -141.139)" fill="#263238"/>
    <path id="Контур_9924" data-name="Контур 9924" d="M368.424,191.608a1.443,1.443,0,0,1,1.626-1.312c.985.144,2.06.761,1.893,2.805-.3,3.627-3.877,2.581-3.874,2.478S368.287,193.124,368.424,191.608Z" transform="translate(-332.285 -172.297)" fill="#937263"/>
    <path id="Контур_9925" data-name="Контур 9925" d="M370.751,196.643c.017,0,.06.05.164.107a.638.638,0,0,0,.471.05,1.566,1.566,0,0,0,.838-1.336,2.059,2.059,0,0,0-.1-.918.728.728,0,0,0-.434-.524.334.334,0,0,0-.387.144c-.057.1-.04.17-.06.174s-.073-.067-.03-.214a.39.39,0,0,1,.16-.214.474.474,0,0,1,.357-.063.888.888,0,0,1,.614.614,2.117,2.117,0,0,1,.134,1.029,1.636,1.636,0,0,1-1.049,1.489.668.668,0,0,1-.568-.144C370.751,196.733,370.738,196.65,370.751,196.643Z" transform="translate(-334.068 -174.664)" fill="#5e483f"/>
    <path id="Контур_9926" data-name="Контур 9926" d="M342.061,150.931a3.447,3.447,0,0,1-1.573.631,1.186,1.186,0,0,1-1.272-.9c-.03-.254.047-.544-.11-.748s-.558-.187-.862-.17a2.338,2.338,0,0,1-2.338-1.783.984.984,0,0,1-1.312.06,5.176,5.176,0,0,1-.935-1.109,1.5,1.5,0,0,0-1.216-.685,3.508,3.508,0,0,1-.8.137c-.474-.067-.668-.638-.728-1.115s-.077-1.032-.468-1.309a1.808,1.808,0,0,0-1.3-.1c-.444.043-1-.087-1.092-.524a.851.851,0,0,1,.194-.648,2.358,2.358,0,0,1,2.822-.755,3.189,3.189,0,0,1,5.884-.334,3.243,3.243,0,0,1,5.1,1.446,2.338,2.338,0,0,1,2.475,3.54,2.236,2.236,0,0,1,1.139,1.837,1.274,1.274,0,0,1-1.509,1.229,1.3,1.3,0,0,1-2.311,1.186" transform="translate(-305.631 -138.656)" fill="#263238"/>
    <path id="Контур_9927" data-name="Контур 9927" d="M336.125,149.34a.213.213,0,0,0,0,.067v.2a2.3,2.3,0,0,0,.23.711,2.592,2.592,0,0,0,.761.9,2.431,2.431,0,0,0,1.466.5l-.057-.083a1.336,1.336,0,0,0,.023,1,3.733,3.733,0,0,0,.578.922,2.693,2.693,0,0,0,.384.437,1.3,1.3,0,0,0,.578.247,1.336,1.336,0,0,0,1.189-.361l-.134-.047a2.722,2.722,0,0,0,1.062,1.94,2,2,0,0,0,1.175.451,3.564,3.564,0,0,0,1.186-.2l-.094-.047a2.892,2.892,0,0,0,.8,1.165,1.526,1.526,0,0,0,1.246.407,2,2,0,0,0,1.62-1.489l-.083.033a1.853,1.853,0,0,0,1.236.244,2,2,0,0,0,.892-.334,1.692,1.692,0,0,0,.427-.424.772.772,0,0,0,.1-.184,2.13,2.13,0,0,1-.561.558,2,2,0,0,1-.868.307,1.8,1.8,0,0,1-1.169-.25l-.063-.043-.02.077a1.886,1.886,0,0,1-1.529,1.379,1.389,1.389,0,0,1-1.132-.384,2.735,2.735,0,0,1-.755-1.1l-.023-.07-.07.02a3.451,3.451,0,0,1-1.135.19,1.823,1.823,0,0,1-1.085-.417,2.581,2.581,0,0,1-1-1.83l-.017-.174-.12.127a1.212,1.212,0,0,1-1.55.11,2.711,2.711,0,0,1-.364-.411,3.674,3.674,0,0,1-.564-.885,1.173,1.173,0,0,1-.033-.912l.033-.083h-.094a2.338,2.338,0,0,1-1.406-.454,2.585,2.585,0,0,1-.758-.852A2.837,2.837,0,0,1,336.125,149.34Z" transform="translate(-311.005 -145.026)" fill="#455a64"/>
    <path id="Контур_9928" data-name="Контур 9928" d="M377.89,298.457l4.822,4.652-1.56-8.886,9.785-3.092s2.6,12.192,3.052,15.078c.808,5.176-.187,12.533-5.009,13.05-5.216.558-9.157-4.588-11.665-7.965-1.927-2.595-5.036-7.133-5.036-7.133l5.61-5.7" transform="translate(-335.089 -239.467)" fill="#dcdee9"/>
    <path id="Контур_9929" data-name="Контур 9929" d="M268.2,289.41c-1.569,4.942-3.763,5.677-4.632,19.853a8.913,8.913,0,0,0,4.371,7.55c2.468,1.249,6.772-.284,8.168-2.672l1.386-10.476Z" transform="translate(-262.675 -238.321)" fill="#e0e0e0"/>
    <path id="Контур_9930" data-name="Контур 9930" d="M292.3,343.47a12.279,12.279,0,0,0-2.3-3.95,2.187,2.187,0,0,1,.5.457,7.633,7.633,0,0,1,1.643,2.828A2.144,2.144,0,0,1,292.3,343.47Z" transform="translate(-280.286 -271.697)" fill="#263238"/>
    <path id="Контур_9931" data-name="Контур 9931" d="M270.38,263.72c.083-.29,4.912-13.434,6.452-16.313a10.44,10.44,0,0,1,8.121-5.113c2.4-.15,28.145,1.9,28.145,1.9s7.21,1.81,8.666,8.349c1.83,8.178,3.3,16.246,3.3,16.246l-12.9,2.788-1.506-3.837-24.241,5.41-5.917-8.756Z" transform="translate(-267.217 -206.934)" fill="#dcdee9"/>
    <path id="Контур_9932" data-name="Контур 9932" d="M333.766,282.142l-.614-21.91.478-27.467-10.065-4.425L322.436,224,310.7,229.547l-2.458-2.715-1.029,3.059-2.571.842-5.059,9.965-.22,17.5s-1.225,20.624-.5,26.118c0,0,1.9,3.146,7.727,3.286,11.821.284,27.176-5.47,27.176-5.47" transform="translate(-286.036 -194.754)" fill="#dcdee9"/>
    <path id="Контур_9933" data-name="Контур 9933" d="M352.372,306.532a8.652,8.652,0,0,1-1.543-.067l-3.7-.311-3.7-.274a7.639,7.639,0,0,1-1.533-.177,6.967,6.967,0,0,1,1.543-.06c.952,0,2.267.063,3.717.18s2.755.267,3.7.4A6.5,6.5,0,0,1,352.372,306.532Z" transform="translate(-314.854 -249.122)" fill="#fff"/>
    <path id="Контур_9934" data-name="Контур 9934" d="M351.882,311.922a8.651,8.651,0,0,1-1.543-.067l-3.7-.307-3.7-.277a7.339,7.339,0,0,1-1.533-.177,6.971,6.971,0,0,1,1.543-.06c.952,0,2.267.067,3.717.18s2.755.267,3.7.4A6.961,6.961,0,0,1,351.882,311.922Z" transform="translate(-314.528 -252.712)" fill="#fff"/>
    <path id="Контур_9935" data-name="Контур 9935" d="M351.392,317.344a8.649,8.649,0,0,1-1.543-.067l-3.7-.307-3.7-.277a7.513,7.513,0,0,1-1.533-.174,6.555,6.555,0,0,1,1.543-.064c.952.01,2.268.067,3.717.18s2.755.267,3.7.407A6.8,6.8,0,0,1,351.392,317.344Z" transform="translate(-314.201 -256.334)" fill="#fff"/>
    <path id="Контур_9936" data-name="Контур 9936" d="M350.889,322.738a8.654,8.654,0,0,1-1.543-.067l-3.7-.307-3.707-.277a7.523,7.523,0,0,1-1.533-.174,6.466,6.466,0,0,1,1.543-.06c.952.013,2.267.063,3.717.177s2.755.267,3.7.407A6.8,6.8,0,0,1,350.889,322.738Z" transform="translate(-313.861 -259.928)" fill="#fff"/>
    <path id="Контур_9937" data-name="Контур 9937" d="M320.918,306.59a.518.518,0,0,1-.02-.14c0-.114-.02-.25-.033-.417-.02-.4-.05-.932-.09-1.61-.063-1.426-.15-3.44-.261-5.914-.187-5.009-.424-11.9-.334-19.542.047-3.82.174-7.464.541-10.763s.945-6.221,1.456-8.682,1-4.411,1.336-5.771c.164-.668.3-1.175.391-1.56.047-.164.08-.294.11-.4a.458.458,0,0,1,.05-.137.881.881,0,0,1,0,.144c-.023.114-.05.247-.08.411-.083.387-.2.912-.334,1.576-.294,1.366-.735,3.339-1.225,5.787s-1.025,5.38-1.386,8.659-.467,6.919-.514,10.73c-.08,7.627.124,14.533.254,19.532.067,2.478.124,4.491.16,5.917.017.668.027,1.216.033,1.613v.417A.405.405,0,0,1,320.918,306.59Z" transform="translate(-300.374 -213.171)" fill="#263238"/>
    <path id="Контур_9938" data-name="Контур 9938" d="M341.767,287.493a4.974,4.974,0,0,1,.668.02l1.984.12,7.237.494h.137v.137c-.251,3.316-.548,7.283-.872,11.571v.077l-.06.043c-.334.247-.7.494-1.082.738a21.5,21.5,0,0,1-2.034,1.179,5.974,5.974,0,0,1-2.207.711,4.412,4.412,0,0,1-2.187-.508,9.617,9.617,0,0,1-1.77-1.182c-.264-.22-.521-.444-.765-.668a1.4,1.4,0,0,1-.334-.414,2.146,2.146,0,0,1-.194-.488,7.558,7.558,0,0,1-.177-1.907,27.873,27.873,0,0,1,.3-3.379c.3-2.05.668-3.673.912-4.812.127-.564.237-1,.314-1.292a2.421,2.421,0,0,1,.14-.444,2.834,2.834,0,0,1-.074.457c-.064.334-.15.765-.254,1.306-.217,1.132-.534,2.775-.8,4.819a27.962,27.962,0,0,0-.264,3.339,7.241,7.241,0,0,0,.184,1.827,1.4,1.4,0,0,0,.457.758c.24.224.494.441.758.668A9.247,9.247,0,0,0,343.5,301.8a4.072,4.072,0,0,0,2.027.468,5.715,5.715,0,0,0,2.077-.668,20.54,20.54,0,0,0,2-1.162c.371-.24.738-.488,1.069-.728l-.07.124c.334-4.284.668-8.252.932-11.564l.127.147-7.146-.628-2-.19-.534-.06a.849.849,0,0,1-.214-.043Z" transform="translate(-313.659 -237.042)" fill="#263238"/>
    <path id="Контур_9939" data-name="Контур 9939" d="M346.518,224a29.505,29.505,0,0,0-4.675,2.177c-3.3,1.76-7.053,3.37-7.053,3.37l.287,5.3,12.473-6.268" transform="translate(-310.118 -194.754)" fill="#dcdee9"/>
    <path id="Контур_9940" data-name="Контур 9940" d="M325.325,232.48l2.458,2.715-1.312,5.68-2.191-5.133" transform="translate(-303.118 -200.403)" fill="#dcdee9"/>
    <path id="Контур_9941" data-name="Контур 9941" d="M353.6,297.1a82.327,82.327,0,0,1-10.462-.815,38.446,38.446,0,0,1,5.243.24A45.583,45.583,0,0,1,353.6,297.1Z" transform="translate(-315.68 -242.875)" fill="#263238"/>
    <g id="Сгруппировать_10917" data-name="Сгруппировать 10917" transform="translate(26.959 62.743)" opacity="0.3">
      <path id="Контур_9942" data-name="Контур 9942" d="M341.64,324.31a15.705,15.705,0,0,0,1.863,2.975,4.575,4.575,0,0,0,2.859,1.426,4.675,4.675,0,0,0,2.712-.808,7.162,7.162,0,0,0,2.7-3.546c.083-.107-1.877,1.2-2.942,1.77a4.789,4.789,0,0,1-3.005.645c-1.576-.127-2.989-1.426-4.184-2.461" transform="translate(-341.64 -324.31)"/>
    </g>
    <g id="Сгруппировать_10918" data-name="Сгруппировать 10918" transform="translate(23.83 34.372)" opacity="0.3">
      <path id="Контур_9943" data-name="Контур 9943" d="M333.061,240.358c-.11.08-.791,6.555-.791,6.555l12.516-7.564-11.394,5.72Z" transform="translate(-332.27 -239.35)"/>
    </g>
    <path id="Контур_9944" data-name="Контур 9944" d="M318.2,261.28a184.338,184.338,0,0,0-4.188,27.326c-.481,6.385-.842,14.847-.842,14.847l2.849,3.526,4.365-3.864s-.187-17.973.04-23.99c.187-4.952-.594-17.585-.594-17.585Z" transform="translate(-295.718 -219.585)" fill="#19a49c"/>
    <path id="Контур_9945" data-name="Контур 9945" d="M394.49,285.21a3.271,3.271,0,0,1,.117.511c.063.364.15.838.254,1.406.21,1.219.488,2.845.8,4.642s.584,3.46.761,4.652c.09.594.157,1.079.2,1.413a3.3,3.3,0,0,1,.05.524,2.858,2.858,0,0,1-.117-.514c-.067-.361-.15-.835-.254-1.4-.214-1.219-.5-2.845-.815-4.642s-.568-3.46-.745-4.652c-.084-.574-.15-1.049-.2-1.412A2.874,2.874,0,0,1,394.49,285.21Z" transform="translate(-349.882 -235.524)" fill="#263238"/>
    <path id="Контур_9946" data-name="Контур 9946" d="M398.15,252.55c.02.023-.334.3-.845.825a10.3,10.3,0,0,0-2.672,4.936c-.154.711-.19,1.162-.22,1.162a1.051,1.051,0,0,1,0-.334,6.488,6.488,0,0,1,.1-.865,9.3,9.3,0,0,1,.952-2.712,9.144,9.144,0,0,1,1.737-2.287,6.347,6.347,0,0,1,.668-.564A1.11,1.11,0,0,1,398.15,252.55Z" transform="translate(-349.822 -213.77)" fill="#263238"/>
    <path id="Контур_9947" data-name="Контур 9947" d="M330.168,247.327l-1.119-.437-1.059,1.82-.19,2.985,1.493.24,1.122-1.843Z" transform="translate(-305.462 -210)" fill="#b0bec5"/>
    <path id="Контур_9948" data-name="Контур 9948" d="M298.517,274.8c.047,0,.087,7.347.087,16.43s-.04,16.433-.087,16.433-.087-7.347-.087-16.433S298.467,274.8,298.517,274.8Z" transform="translate(-285.9 -228.59)" fill="#263238"/>
    <path id="Контур_9949" data-name="Контур 9949" d="M327.81,240.47c.02.017-.244.417-.638,1.082a29.846,29.846,0,0,0-1.423,2.672l-.117.254-.08.17-.08-.167a20.557,20.557,0,0,1-1.042-2.648c-.11-.334-.187-.624-.234-.818a.922.922,0,0,1-.057-.307c.023,0,.157.414.4,1.089s.608,1.6,1.089,2.608h-.157l.12-.257a22.451,22.451,0,0,1,1.473-2.672c.214-.334.394-.581.524-.755A1.228,1.228,0,0,1,327.81,240.47Z" transform="translate(-303.025 -205.724)" fill="#263238"/>
    <path id="Контур_9950" data-name="Контур 9950" d="M347.676,237a.944.944,0,0,1-.174.1l-.5.264-1.867.968c-1.573.818-3.73,1.984-6.118,3.259-1.456.775-2.832,1.493-4.031,2.094l-.11.057v-.124c0-1.556-.027-2.865-.037-3.814v-1.072a2.18,2.18,0,0,1,.017-.384,2.336,2.336,0,0,1,.03.381c0,.27.023.631.04,1.075.027.948.06,2.257.1,3.81l-.11-.067c1.192-.611,2.565-1.336,4.007-2.111,2.388-1.276,4.555-2.424,6.144-3.216.795-.4,1.443-.708,1.894-.918l.521-.234A1.028,1.028,0,0,1,347.676,237Z" transform="translate(-310.147 -203.413)" fill="#263238"/>
    <path id="Контур_9951" data-name="Контур 9951" d="M300.3,249.209c.023,0-.17.334-.424.915a10.382,10.382,0,0,0-.718,2.3,10.652,10.652,0,0,0-.15,2.408c.037.618.1,1,.073,1a.838.838,0,0,1-.08-.264,6.383,6.383,0,0,1-.114-.735,8.644,8.644,0,0,1,.1-2.448,8.758,8.758,0,0,1,.778-2.338,5.456,5.456,0,0,1,.367-.644C300.234,249.279,300.294,249.2,300.3,249.209Z" transform="translate(-286.178 -211.545)" fill="#263238"/>
    <path id="Контур_9952" data-name="Контур 9952" d="M329.1,261.077c-.027.043-.311-.09-.634-.3s-.568-.4-.541-.444.311.094.635.3S329.128,261.037,329.1,261.077Z" transform="translate(-305.545 -218.951)" fill="#263238"/>
    <path id="Контур_9953" data-name="Контур 9953" d="M330.349,254.222a8.11,8.11,0,0,1-.761-1.513,8.25,8.25,0,0,1-.6-1.579,8.241,8.241,0,0,1,.758,1.513,8.41,8.41,0,0,1,.6,1.58Z" transform="translate(-306.255 -212.825)" fill="#263238"/>
    <path id="Контур_9954" data-name="Контур 9954" d="M390.154,325.35a.263.263,0,0,1-.047-.077c-.03-.057-.067-.134-.117-.227s-.114-.227-.187-.371a5.32,5.32,0,0,0-.317-.478,17.255,17.255,0,0,0-2.5-2.722c-1.169-1.072-2.648-2.281-4.315-3.673-.828-.7-1.71-1.426-2.591-2.241a24.554,24.554,0,0,1-2.6-2.7h.127l-5.026,5.28c-.23.24-.461.478-.668.7v-.11c1.9,2.778,3.63,5.467,5.447,7.721a36.32,36.32,0,0,0,2.735,3.056,22.385,22.385,0,0,0,2.671,2.368,8.045,8.045,0,0,0,4.692,1.843h.431l.371-.04.334-.034.26-.06.354-.077.12-.02a.6.6,0,0,1-.117.037l-.351.094-.261.067-.334.043-.374.047h-.434a8.042,8.042,0,0,1-4.765-1.813,22.5,22.5,0,0,1-2.672-2.364,36.469,36.469,0,0,1-2.755-3.056c-1.83-2.257-3.567-4.949-5.467-7.724l-.04-.057.05-.05.668-.7,5.009-5.246.067-.07.06.077a24.8,24.8,0,0,0,2.578,2.7c.878.811,1.757,1.546,2.581,2.244,1.67,1.386,3.132,2.608,4.291,3.693a16.393,16.393,0,0,1,2.481,2.768c.117.18.217.334.307.484l.177.384.1.234Q390.14,325.311,390.154,325.35Z" transform="translate(-334.736 -253.827)" fill="#263238"/>
    <g id="Сгруппировать_10919" data-name="Сгруппировать 10919" transform="translate(3.774 60.573)" opacity="0.3">
      <path id="Контур_9955" data-name="Контур 9955" d="M299.6,325.073a1.142,1.142,0,0,0-.387-.731c-.414-.27-.935.087-1.359.334a6.772,6.772,0,0,1-3.8.588,95.566,95.566,0,0,1-11.715-1.112,17.723,17.723,0,0,1-5.5-1.64,7.382,7.382,0,0,1-3.717-4.211l-.908-.491c.7,1.5.631,5.74.882,7.373a3.68,3.68,0,0,0,2.551,3.309,5.528,5.528,0,0,0,1.977.14c6.455-.334,12.967-.03,19.422-.334a2.231,2.231,0,0,0,2.558-3.226Z" transform="translate(-272.21 -317.81)"/>
    </g>
    <path id="Контур_9956" data-name="Контур 9956" d="M357.46,274.193s-3.059-3.5-3.607-3.112-1.336.6-.578,2,2.037,2.214,2.278,3.42-.03,4.111,1.316,5.1a21.474,21.474,0,0,1,3.219,3.543l4.675-4.876-1.85-1.393a16.113,16.113,0,0,0,1.109-4.251,8.643,8.643,0,0,0-1-3.283,3.42,3.42,0,0,0-1-1.9,15.089,15.089,0,0,0-.371-1.86c-.25-.925-3.6-4.158-3.6-4.158a1.433,1.433,0,0,0-.377,1.954A18.429,18.429,0,0,0,359.2,267.5l-3.062-.367a1.606,1.606,0,0,0,1.292,1.97c1.686.431,2.084,1.049,2.084,1.049l-2.087.691s.1,1.232,1,1.262l.912.027Z" transform="translate(-322.222 -221.01)" fill="#937263"/>
    <path id="Контур_9957" data-name="Контур 9957" d="M367.47,289.277l2.024-.067h.043l.02.023a3.546,3.546,0,0,1,.8,1.613,3.226,3.226,0,0,1-.414,2.117,7.573,7.573,0,0,1-1.6,1.693,5.01,5.01,0,0,0-1.2,1.413,2.339,2.339,0,0,0-.267,1.2c.02.3.094.451.077.457s-.023-.037-.057-.11a1.363,1.363,0,0,1-.087-.334,2.267,2.267,0,0,1,.224-1.262,4.91,4.91,0,0,1,1.2-1.476,7.849,7.849,0,0,0,1.556-1.67,3.116,3.116,0,0,0,.4-2,3.473,3.473,0,0,0-.741-1.556l.053.023A11.363,11.363,0,0,1,367.47,289.277Z" transform="translate(-331.438 -238.188)" fill="#5e483f"/>
    <path id="Контур_9958" data-name="Контур 9958" d="M375.562,284.425c-.027,0-.114-.164-.311-.4a2,2,0,0,0-1-.621,4.008,4.008,0,0,0-1.2-.114,1.925,1.925,0,0,1-.514,0,1.338,1.338,0,0,1,.5-.124,3.2,3.2,0,0,1,1.252.07,2.134,2.134,0,0,1,.638.3,1.707,1.707,0,0,1,.4.411A.972.972,0,0,1,375.562,284.425Z" transform="translate(-335.262 -234.141)" fill="#5e483f"/>
    <path id="Контур_9959" data-name="Контур 9959" d="M374.207,277.259c-.037.037-.491-.421-1.165-.815s-1.3-.574-1.282-.624A3.673,3.673,0,0,1,374.207,277.259Z" transform="translate(-334.742 -229.27)" fill="#5e483f"/>
    <path id="Контур_9960" data-name="Контур 9960" d="M267.018,289.73l4.024,15.2a1.89,1.89,0,0,0,1.863,1.406l20.835-.411a1.89,1.89,0,0,0,1.813-2.278l-3.069-14.56a1.89,1.89,0,0,0-1.85-1.5H268.668a1.706,1.706,0,0,0-1.65,2.141Z" transform="translate(-264.941 -237.109)" fill="#263238"/>
    <path id="Контур_9961" data-name="Контур 9961" d="M261.237,298.822a1.523,1.523,0,0,1,0-1.887,2.337,2.337,0,0,1,1.787-.845,5.146,5.146,0,0,1,2,.414,13.008,13.008,0,0,1,2.254,1.125,2.145,2.145,0,0,1,1.122,1.312c.1.584-.538,1.256-1.055.962a2.488,2.488,0,0,1,1.456,1.733c.11.745-.287,1.142-1,1.356a1.119,1.119,0,0,1,.618,1.416,1.282,1.282,0,0,1-1.606.491,3.739,3.739,0,0,1-1.4-1.175,3.427,3.427,0,0,1,.4,2.354,4.6,4.6,0,0,1-3.005-3.7,2.131,2.131,0,0,1-.581-2.618,2.2,2.2,0,0,1-1.312-1.843" transform="translate(-260.91 -242.771)" fill="#937263"/>
    <path id="Контур_9962" data-name="Контур 9962" d="M271.612,313.445a5.592,5.592,0,0,1-.688-.524,4.6,4.6,0,0,0-1.807-.925,2.552,2.552,0,0,0-1.1,0,2.033,2.033,0,0,0-.8.4,2.56,2.56,0,0,0-.524.668.548.548,0,0,1,.063-.23,1.558,1.558,0,0,1,.381-.521,2.031,2.031,0,0,1,.842-.464,2.5,2.5,0,0,1,1.179-.017,4.217,4.217,0,0,1,1.847,1A3.343,3.343,0,0,1,271.612,313.445Z" transform="translate(-264.76 -253.216)" fill="#5e483f"/>
    <path id="Контур_9963" data-name="Контур 9963" d="M270.056,305.261a3.86,3.86,0,0,1-.831-.334,8.663,8.663,0,0,0-.888-.387,7.276,7.276,0,0,0-1.142-.3,3.206,3.206,0,0,0-1.155,0,2.1,2.1,0,0,0-.858.371,2.175,2.175,0,0,0-.561.668.625.625,0,0,1,.067-.237,1.489,1.489,0,0,1,.417-.531,2.089,2.089,0,0,1,.9-.431,3.182,3.182,0,0,1,1.219,0,6.612,6.612,0,0,1,1.169.317,7.112,7.112,0,0,1,.885.427A5.888,5.888,0,0,1,270.056,305.261Z" transform="translate(-263.381 -248.055)" fill="#5e483f"/>
    <g id="Сгруппировать_10920" data-name="Сгруппировать 10920" transform="translate(37.796 66.357)" opacity="0.3">
      <path id="Контур_9964" data-name="Контур 9964" d="M383.687,347c-.167-.6.05-.6-.427-1a37.7,37.7,0,0,1-4.825-5.079c-1.483-1.857-3.8-5.624-3.8-5.624l-.548-.167a24.616,24.616,0,0,0,3.186,7.584,20.965,20.965,0,0,0,2.461,3.757,6.989,6.989,0,0,0,3.767,2.338A2.355,2.355,0,0,0,383.687,347Z" transform="translate(-374.09 -335.13)"/>
    </g>
  </g>
  <g id="freepik--character-1--inject-31" transform="translate(14.68 38.824)">
    <path id="Контур_9965" data-name="Контур 9965" d="M93.483,264.81a1.914,1.914,0,0,1,.023.334q0,.367.02.962v.695c0,.25.04.528.06.825.05.588.077,1.262.19,2,.05.371.1.758.154,1.162s.14.818.214,1.249c.14.868.354,1.78.561,2.745.447,1.92,1,4.007,1.606,6.221s1.139,4.308,1.556,6.241c.19.975.391,1.893.508,2.768.063.434.137.855.184,1.259s.08.8.117,1.172c.09.741.09,1.423.114,2,0,.3.023.574.02.828s-.02.484-.03.7q-.03.6-.05.962a2.384,2.384,0,0,1-.033.334,1.671,1.671,0,0,1,0-.334v-1.656c0-.254-.027-.528-.04-.825-.037-.591-.047-1.266-.15-2q-.06-.558-.13-1.162c-.05-.4-.13-.818-.2-1.252-.124-.868-.334-1.783-.524-2.752-.431-1.924-.975-4.027-1.573-6.228s-1.132-4.3-1.583-6.228c-.2-.968-.411-1.887-.541-2.758-.07-.434-.15-.852-.2-1.256s-.093-.795-.137-1.169c-.107-.741-.12-1.419-.157-2,0-.3-.037-.574-.04-.828v-.7c0-.4.017-.718.023-.962A1.669,1.669,0,0,1,93.483,264.81Z" transform="translate(-86.431 -223.633)" fill="#263238"/>
    <path id="Контур_9966" data-name="Контур 9966" d="M231.12,279.207l4.725-16.807,5.814,1.059a5.751,5.751,0,0,0-1.393,3.046c0,1.459-.968,15.214-.968,15.214s-5.781,1.7-8.118-2.217" transform="translate(-178.147 -222.027)" fill="#ffbe9d"/>
    <path id="Контур_9967" data-name="Контур 9967" d="M244.605,242.846a5.626,5.626,0,0,1-.137-3.269c.511-1.516,2.258-2.692,2.147-3.6s.818-3.092,1.67-2.922,1.449,1,.745,2.4a18.007,18.007,0,0,0-1.115,2.852s8.683-4.525,9.394-4.622,1.419-.2,1.6.371-1.55,1.289-1.55,1.289l-2.338,3.036a13.327,13.327,0,0,1-1.62,3.266,8.937,8.937,0,0,1-2.975,2.264L247.9,246.95S244.048,245.641,244.605,242.846Z" transform="translate(-186.907 -202.473)" fill="#ffbe9d"/>
    <path id="Контур_9968" data-name="Контур 9968" d="M274.614,239.552a2.167,2.167,0,0,0-.214-.117,1.039,1.039,0,0,0-.618-.073,3.449,3.449,0,0,0-1.747,1.186,9.04,9.04,0,0,0-1.172,1.85,3.807,3.807,0,0,1-.454.8,3.391,3.391,0,0,1,.3-.878,7.272,7.272,0,0,1,1.145-1.934,3.284,3.284,0,0,1,1.907-1.2,1.018,1.018,0,0,1,.685.16A.453.453,0,0,1,274.614,239.552Z" transform="translate(-204.317 -206.566)" fill="#eb996e"/>
    <path id="Контур_9969" data-name="Контур 9969" d="M268.225,243.674a9.679,9.679,0,0,1-2.618,1.5,9.452,9.452,0,0,1,2.618-1.5Z" transform="translate(-201.117 -209.55)" fill="#eb996e"/>
    <path id="Контур_9970" data-name="Контур 9970" d="M259.668,249.248a1.787,1.787,0,0,1,1.459,0,1.944,1.944,0,0,1,1.155.892,6.337,6.337,0,0,0-1.232-.668A10.524,10.524,0,0,0,259.668,249.248Z" transform="translate(-197.161 -213.174)" fill="#eb996e"/>
    <path id="Контур_9971" data-name="Контур 9971" d="M203.3,271.54c-.043.25,6.579,9.187,8.726,10.863,5.27,4.111,9.143-1.449,8.756-6.154S206.7,249.43,206.7,249.43l-4.431,10.442Z" transform="translate(-158.931 -213.389)" fill="#19a49c"/>
    <path id="Контур_9972" data-name="Контур 9972" d="M101.56,232.869,113.6,230.04l1.135-1.92,12.079.194,2.805,3,8.048,3.954-6.756,28.362L108.246,264.8Z" transform="translate(-91.853 -199.195)" fill="#263238"/>
    <path id="Контур_9973" data-name="Контур 9973" d="M100.552,227l-4.5,2.8-9.461,2.06,3.005,38.009s-8.876,17.275-10.232,32.272h23.89s2.261-19.078,2.024-26.715-.09-21.038-.09-21.038l-6.165-23.042Z" transform="translate(-77.066 -198.449)" fill="#19a49c"/>
    <path id="Контур_9974" data-name="Контур 9974" d="M160.521,230.255l-.842-2.595,3.146,3.166s1.863.648,2.264.795c3.129,1.169,7.4,3.309,7.4,3.309l-5.343,33.785s7.166,19.075,6.582,33.862c0,0-16.363.27-22.825,0l1.747-48.505s5.677-6.7,6.622-13.448S160.521,230.255,160.521,230.255Z" transform="translate(-124.716 -198.889)" fill="#19a49c"/>
    <path id="Контур_9975" data-name="Контур 9975" d="M129,264.563a1.665,1.665,0,0,1-.21-.207l-.571-.618-2.107-2.338-7.116-8.015-.047-.05.02-.064c.361-1.306.741-2.672,1.132-4.077q.25-.912.5-1.8l.114.157-4.722-.18h-.16l.057-.15c1.279-3.45,2.378-6.4,3.162-8.519.391-1.029.7-1.85.932-2.441.1-.267.19-.481.254-.648a1.083,1.083,0,0,1,.1-.22,1.378,1.378,0,0,1-.067.234l-.22.668-.865,2.465c-.768,2.127-1.837,5.093-3.082,8.552l-.1-.157,4.722.167h.157l-.043.15c-.164.591-.334,1.2-.5,1.8-.391,1.4-.771,2.772-1.135,4.074l-.027-.11,7.066,8.071c.858,1,1.553,1.807,2.05,2.381l.541.648A1.336,1.336,0,0,1,129,264.563Z" transform="translate(-101.357 -204.037)" fill="#263238"/>
    <path id="Контур_9976" data-name="Контур 9976" d="M150.982,354.489c-.067,0,.247-10.95.7-24.448s.882-24.445.948-24.441-.247,10.947-.7,24.448S151.052,354.489,150.982,354.489Z" transform="translate(-124.765 -250.801)" fill="#263238"/>
    <path id="Контур_9977" data-name="Контур 9977" d="M165.7,236.76a1.719,1.719,0,0,1,.053.271c.03.2.067.461.114.788.094.711.224,1.7.387,2.932.311,2.525.741,6.011,1.236,10.018l.02.16-.16-.027-2.618-.451.137-.174.5,1.115.982,2.2.03.07-.05.06-7.257,8.415-2.174,2.478c-.244.274-.441.494-.594.668a12.034,12.034,0,0,1-1.042.821c-.007,0,.882-.691,1-.852l.581-.695,2.117-2.528,7.193-8.469-.02.13-.982-2.194-.5-1.119-.1-.21.23.04,2.618.454-.144.134c-.461-4.007-.862-7.507-1.152-10.018-.13-1.236-.237-2.231-.314-2.945-.03-.334-.053-.588-.073-.788A1.163,1.163,0,0,1,165.7,236.76Z" transform="translate(-127.62 -204.95)" fill="#263238"/>
    <path id="Контур_9978" data-name="Контур 9978" d="M141.468,404.31c-.481-.638-1.453-1.032-1.95-.407h.017a1.53,1.53,0,0,0-.518,1.67,1.479,1.479,0,0,0,1.964.8,1.423,1.423,0,0,0,.488-2.06Z" transform="translate(-116.753 -316.067)" fill="#263238"/>
    <path id="Контур_9979" data-name="Контур 9979" d="M143.7,365.846c-.481-.634-1.456-1.029-1.954-.4h.02a1.523,1.523,0,0,0-.518,1.67,1.476,1.476,0,0,0,1.96.8,1.426,1.426,0,0,0,.491-2.064Z" transform="translate(-118.236 -290.45)" fill="#263238"/>
    <g id="Сгруппировать_10921" data-name="Сгруппировать 10921" transform="translate(14.636 43.192)" opacity="0.3">
      <path id="Контур_9980" data-name="Контур 9980" d="M116.32,270.87c.08.257,1.777.518,2.074,1.232a3.52,3.52,0,0,1-.06,2.281,6.789,6.789,0,0,0-.431,2.271c.093,1.386,1.185,2.468,2.211,3.409,2.859,2.628,6.345,5.483,9.21,8.115-2.535-3.232-5.837-6.579-8.639-9.581a3,3,0,0,1-.788-3.73l.862-2.9c.073-.25.234-.668.271-.8a6.155,6.155,0,0,0-1.062-.13,26.841,26.841,0,0,0-3.63-.16" transform="translate(-116.32 -270.844)"/>
    </g>
    <path id="Контур_9981" data-name="Контур 9981" d="M204.442,266.56a1.1,1.1,0,0,1-.027.287c-.033.214-.077.484-.127.821-.127.741-.3,1.763-.5,3.005-.431,2.571-1,6.068-1.67,9.935s-1.266,7.387-1.736,9.921c-.237,1.269-.434,2.291-.581,3.005q-.1.5-.17.812a1.127,1.127,0,0,1-.077.281,1.555,1.555,0,0,1,.03-.291c.033-.211.073-.484.127-.818.124-.741.294-1.763.5-3.005l1.67-9.931c.651-3.88,1.266-7.387,1.736-9.921.237-1.269.434-2.294.578-3.005.07-.334.127-.6.174-.811A1.335,1.335,0,0,1,204.442,266.56Z" transform="translate(-157.12 -224.798)" fill="#263238"/>
    <path id="Контур_9982" data-name="Контур 9982" d="M82.178,241.43a8.442,8.442,0,0,0-4.341,3.339c-2,2.959-5.463,31.661-5.343,33.651s1.87,7.039,6.512,6.375S96,275.505,96,275.505l-4.248-8.228-9.016,4.248,1.226-14.209Z" transform="translate(-72.491 -208.06)" fill="#19a49c"/>
    <g id="Сгруппировать_10922" data-name="Сгруппировать 10922" transform="translate(10.589 69.362)" opacity="0.3">
      <path id="Контур_9983" data-name="Контур 9983" d="M130.668,353.815c-.294-1.292-1.893-1.706-3.206-1.873l-21.406-2.732-1.857,6.011a14.038,14.038,0,0,0,.972,4.047,4.739,4.739,0,0,0,2.985,2.718,7.056,7.056,0,0,0,3.623-.411l15.742-4.675a6.5,6.5,0,0,0,2.231-.978A2.142,2.142,0,0,0,130.668,353.815Z" transform="translate(-104.2 -349.21)"/>
    </g>
    <g id="Сгруппировать_10923" data-name="Сгруппировать 10923" transform="translate(6.024 46.475)" opacity="0.3">
      <path id="Контур_9984" data-name="Контур 9984" d="M95.209,283.341c-.257-1-.648-2.171-1.626-2.555a2.3,2.3,0,0,0-2.715,1.369,5.893,5.893,0,0,0-.2,3.3,70.421,70.421,0,0,0,3.179,11.795l4.391-1.613C97.657,291.566,96.221,287.331,95.209,283.341Z" transform="translate(-90.53 -280.674)"/>
    </g>
    <path id="Контур_9985" data-name="Контур 9985" d="M231.751,278.17l-4.321,13.024,5.61,4.074,4.522,1.817c0-.023.845-6.505.631-4.241l1-13.374Z" transform="translate(-175.689 -232.531)" fill="#19a49c"/>
    <path id="Контур_9986" data-name="Контур 9986" d="M231.751,278.17a3.244,3.244,0,0,1-.1.578c-.074.371-.2.9-.371,1.553-.334,1.309-.908,3.086-1.6,5.009s-1.282,3.7-1.65,5.009c-.184.648-.334,1.172-.424,1.539a3.29,3.29,0,0,1-.17.561,4.261,4.261,0,0,1,.1-.578c.077-.371.2-.9.374-1.556.334-1.306.908-3.082,1.6-5.009s1.279-3.7,1.65-5.009c.184-.648.334-1.175.424-1.54A4.063,4.063,0,0,1,231.751,278.17Z" transform="translate(-175.689 -232.531)" fill="#263238"/>
    <path id="Контур_9987" data-name="Контур 9987" d="M230.6,326.453a3.741,3.741,0,0,1-.538-.691,18.817,18.817,0,0,1-1.092-1.807,19.666,19.666,0,0,1-.885-1.913,4.079,4.079,0,0,1-.271-.831,5.026,5.026,0,0,1,.384.781c.224.488.541,1.159.925,1.884s.761,1.362,1.042,1.82A5.419,5.419,0,0,1,230.6,326.453Z" transform="translate(-175.942 -261.198)" fill="#263238"/>
    <path id="Контур_9988" data-name="Контур 9988" d="M96.112,327.082a8.248,8.248,0,0,1-1.366-.448,8.006,8.006,0,0,1-1.336-.514,7.407,7.407,0,0,1,2.7.962Z" transform="translate(-86.424 -264.469)" fill="#263238"/>
    <path id="Контур_9989" data-name="Контур 9989" d="M103.012,257.908a1,1,0,0,1-.134-.287c-.077-.19-.177-.467-.287-.818a18.854,18.854,0,0,1-.862-5.634,7.685,7.685,0,0,1,.027-.865,1.055,1.055,0,0,1,.043-.314c.027,0,.023.451.053,1.179a24.562,24.562,0,0,0,.858,5.6C102.9,257.47,103.039,257.9,103.012,257.908Z" transform="translate(-91.966 -213.762)" fill="#263238"/>
    <g id="Сгруппировать_10924" data-name="Сгруппировать 10924" transform="translate(34.566 45.728)" opacity="0.3">
      <path id="Контур_9990" data-name="Контур 9990" d="M180.064,279.507l1.58.107a2.982,2.982,0,0,0-2.972-1.115c.037.952,1.029,1.693.968,2.645a2.531,2.531,0,0,1-.691,1.336L176,286.109l.207,1.817c1.206-1.72,2.421-3.339,3.627-5.043a4.638,4.638,0,0,0,.865-1.7A1.544,1.544,0,0,0,180.064,279.507Z" transform="translate(-176 -278.438)"/>
    </g>
    <g id="Сгруппировать_10925" data-name="Сгруппировать 10925" transform="translate(49.975 50.217)" opacity="0.3">
      <path id="Контур_9991" data-name="Контур 9991" d="M226.474,293.286l.477-1.406c-.8,2.414-3.536,4.268-4.435,6.649a6.272,6.272,0,0,0,1,6.048c.311.381.845.748,1.252.471a.832.832,0,0,0,.387-.908c-.127-.334-1.065-2.281-1.232-2.588-.124-.234.157-.9.531-2.161C225.1,297.173,225.813,295.5,226.474,293.286Z" transform="translate(-222.144 -291.88)"/>
    </g>
    <path id="Контур_9992" data-name="Контур 9992" d="M130.992,181.75a15.171,15.171,0,0,0,4.846,11.464L138,186.939" transform="translate(-111.454 -168.31)" fill="#263238"/>
    <path id="Контур_9993" data-name="Контур 9993" d="M144.656,142.464a9.294,9.294,0,0,0-6.181-.748,19.577,19.577,0,0,0-5.847,2.418,9.574,9.574,0,0,0-2.8,2.181,13.68,13.68,0,0,0-2.815,6.655,23.863,23.863,0,0,0,1.306,7.724c.668,1.459,3.857,2.571,5.427,2.932l14.4-16.744A7.3,7.3,0,0,0,144.656,142.464Z" transform="translate(-108.801 -141.503)" fill="#263238"/>
    <path id="Контур_9994" data-name="Контур 9994" d="M180.436,149.908,177,149.29c1.887,4.495,2.4,14.77,3.476,19.522,1.272-1.847,4.228-7.47,4.071-9.7S184.537,149.527,180.436,149.908Z" transform="translate(-142.1 -146.69)" fill="#263238"/>
    <path id="Контур_9995" data-name="Контур 9995" d="M156.586,158.466c-.224-3.45-2.518-7.681-5.954-7.3l-7.948,2.027a5.9,5.9,0,0,0-4.435,5.43c0,.13-.023-.03-.02.07L140,179.271l5.968,11.842h0l5.266-12.419v-3.005s4.4-.741,5.3-6.492A53.028,53.028,0,0,0,156.586,158.466Z" transform="translate(-116.276 -147.921)" fill="#ffbe9d"/>
    <path id="Контур_9996" data-name="Контур 9996" d="M186.112,184.743a.735.735,0,0,1-.711.745.708.708,0,0,1-.761-.668.735.735,0,0,1,.708-.745.708.708,0,0,1,.765.668Z" transform="translate(-147.189 -169.857)" fill="#263238"/>
    <path id="Контур_9997" data-name="Контур 9997" d="M184.807,178.281c-.09.1-.668-.314-1.443-.311s-1.376.4-1.463.3c-.04-.043.05-.217.3-.4a2.041,2.041,0,0,1,1.169-.364,1.937,1.937,0,0,1,1.149.367C184.767,178.064,184.85,178.238,184.807,178.281Z" transform="translate(-145.359 -165.486)" fill="#263238"/>
    <path id="Контур_9998" data-name="Контур 9998" d="M165.5,184.743a.735.735,0,0,1-.711.745.708.708,0,0,1-.761-.668.735.735,0,0,1,.708-.745.708.708,0,0,1,.765.668Z" transform="translate(-133.461 -169.857)" fill="#263238"/>
    <path id="Контур_9999" data-name="Контур 9999" d="M162.247,178.281c-.09.1-.651-.314-1.443-.311s-1.376.4-1.463.3c-.04-.043.05-.217.3-.4a2.041,2.041,0,0,1,1.169-.364,1.96,1.96,0,0,1,1.149.367C162.207,178.064,162.29,178.238,162.247,178.281Z" transform="translate(-130.333 -165.486)" fill="#263238"/>
    <path id="Контур_10000" data-name="Контур 10000" d="M174.746,185.3a5.1,5.1,0,0,1,1.286-.237c.2-.02.394-.06.427-.2a1,1,0,0,0-.134-.6q-.29-.735-.6-1.543a23.586,23.586,0,0,1-1.336-4.031,24.728,24.728,0,0,1,1.67,3.914c.2.541.394,1.055.578,1.549a1.169,1.169,0,0,1,.107.795.511.511,0,0,1-.334.3,1.382,1.382,0,0,1-.334.047A5.224,5.224,0,0,1,174.746,185.3Z" transform="translate(-140.351 -166.271)" fill="#263238"/>
    <path id="Контур_10001" data-name="Контур 10001" d="M154.36,218.53s1.87,3.947,7.621,3.4V220.59a14.47,14.47,0,0,1-7.62-2.06Z" transform="translate(-127.02 -192.807)" fill="#eb996e"/>
    <path id="Контур_10002" data-name="Контур 10002" d="M160.093,170.06c-.077.214-.868.114-1.8.23s-1.67.367-1.807.174c-.053-.09.077-.294.381-.5a3.166,3.166,0,0,1,2.748-.311C159.956,169.786,160.127,169.957,160.093,170.06Z" transform="translate(-128.429 -160.13)" fill="#263238"/>
    <path id="Контур_10003" data-name="Контур 10003" d="M184.481,170.954c-.137.18-.685,0-1.336,0s-1.212.124-1.336-.067c-.053-.09.033-.271.274-.441a1.954,1.954,0,0,1,2.164.06C184.468,170.68,184.535,170.863,184.481,170.954Z" transform="translate(-145.294 -160.582)" fill="#263238"/>
    <path id="Контур_10004" data-name="Контур 10004" d="M152.192,148.785a2.535,2.535,0,0,0-2.234-1.433,4.912,4.912,0,0,0-2.651.775c-3.423,1.977-5.183,6.756-8.566,8.8-.832.5-1.914.043-2.621.711a2.438,2.438,0,0,0-.775,2.621,8.064,8.064,0,0,1-1.172-1.984,2.7,2.7,0,0,1,.094-2.241c.294-.508.808-.895.952-1.463a7.918,7.918,0,0,0-.05-1.536,3.32,3.32,0,0,1,.524-1.466,15.025,15.025,0,0,1,5.5-5.781,9.715,9.715,0,0,1,5.043-1.306,7.434,7.434,0,0,1,4.8,1.9c.758.708,1.553,1.436,1.162,2.394" transform="translate(-113.442 -143.489)" fill="#263238"/>
    <path id="Контур_10005" data-name="Контур 10005" d="M134.468,185.385c-.06-.164-3.059-1.246-3.1,1.94-.04,3.1,3.086,2.485,3.092,2.4S134.468,185.385,134.468,185.385Z" transform="translate(-111.707 -170.526)" fill="#ffbe9d"/>
    <path id="Контур_10006" data-name="Контур 10006" d="M135.1,190.551a.927.927,0,0,1-.147.077.538.538,0,0,1-.4,0,1.321,1.321,0,0,1-.608-1.206,1.774,1.774,0,0,1,.157-.768.624.624,0,0,1,.411-.411.274.274,0,0,1,.334.15c.04.087.02.147.037.154s.067-.05.043-.18a.334.334,0,0,0-.12-.194.4.4,0,0,0-.3-.08.748.748,0,0,0-.568.474,1.84,1.84,0,0,0-.2.862,1.4,1.4,0,0,0,.775,1.336.568.568,0,0,0,.494-.077C135.089,190.625,135.105,190.558,135.1,190.551Z" transform="translate(-113.286 -172.533)" fill="#eb996e"/>
    <path id="Контур_10007" data-name="Контур 10007" d="M137,160.424a.857.857,0,0,0,.187-.1c.117-.074.3-.174.518-.334a10.486,10.486,0,0,0,1.67-1.519,29.883,29.883,0,0,0,2.044-2.655,24.518,24.518,0,0,1,2.555-3.182,9.683,9.683,0,0,1,1.65-1.3,7.89,7.89,0,0,1,1.78-.808,8.836,8.836,0,0,1,3.279-.4,8.475,8.475,0,0,1,2.2.431c.254.077.444.164.574.214a1.071,1.071,0,0,0,.2.07,1.349,1.349,0,0,0-.19-.1,4.971,4.971,0,0,0-.564-.237,8.074,8.074,0,0,0-2.211-.481,8.764,8.764,0,0,0-3.339.381,8.052,8.052,0,0,0-1.813.811,9.857,9.857,0,0,0-1.67,1.336,23.55,23.55,0,0,0-2.561,3.206,31.217,31.217,0,0,1-2,2.672,11.481,11.481,0,0,1-1.63,1.543c-.214.16-.391.267-.5.351A1.388,1.388,0,0,0,137,160.424Z" transform="translate(-115.458 -147.154)" fill="#455a64"/>
    <path id="Контур_10008" data-name="Контур 10008" d="M135.291,197.077a.614.614,0,1,0,.144.047" transform="translate(-113.832 -178.511)" fill="#fff"/>
    <path id="Контур_10009" data-name="Контур 10009" d="M135.332,197.08a.818.818,0,0,1,.277.414.528.528,0,0,1-.12.488.541.541,0,0,1-.952-.3.521.521,0,0,1,.184-.467.811.811,0,0,1,.468-.177.281.281,0,0,0-.147-.033.645.645,0,0,0-.635.691.668.668,0,0,0,1.179.377.618.618,0,0,0,.12-.6.645.645,0,0,0-.237-.334C135.388,197.08,135.335,197.07,135.332,197.08Z" transform="translate(-113.729 -178.467)" fill="#263238"/>
    <path id="Контур_10010" data-name="Контур 10010" d="M139.232,175.1a4.782,4.782,0,0,0,.3,2.488,1.643,1.643,0,0,0,2.111.845,2.321,2.321,0,0,0,.882-1.8c.294-1.97.427-3.964.738-5.934Z" transform="translate(-116.925 -160.95)" fill="#263238"/>
    <path id="Контур_10011" data-name="Контур 10011" d="M169.018,202.767a1.529,1.529,0,0,0,.765,2.394.9.9,0,0,0,.578,0,1.286,1.286,0,0,0,.614-.8l.334-.8a.271.271,0,0,0-.23-.434l-1.987-.478" transform="translate(-136.573 -182.23)" fill="#eb996e"/>
    <path id="Контур_10012" data-name="Контур 10012" d="M169.906,204.771a1.774,1.774,0,0,1-.9-.114,1.412,1.412,0,0,1-.791-.645,1.068,1.068,0,0,1-.124-.614,1.832,1.832,0,0,1,.16-.634,1.626,1.626,0,0,1,.371-.518l.053-.047.067.023c1.316.464,2.338.7,2.338.755a8.255,8.255,0,0,1-2.411-.534l.117-.027a1.5,1.5,0,0,0-.317.447,1.279,1.279,0,0,0-.057,1.049,1.3,1.3,0,0,0,.668.588C169.559,204.7,169.916,204.728,169.906,204.771Z" transform="translate(-136.162 -181.931)" fill="#263238"/>
    <path id="Контур_10013" data-name="Контур 10013" d="M155.062,152.654c0,.017-.27-.053-.768-.067a5.272,5.272,0,0,0-2.05.374,6.615,6.615,0,0,0-1.282.668,13.4,13.4,0,0,0-1.336,1,16.151,16.151,0,0,0-2.591,2.8c-.394.554-.741,1.122-1.119,1.646a7.738,7.738,0,0,1-1.242,1.4,13.815,13.815,0,0,1-2.615,1.75c-.791.421-1.456.711-1.91.915l-.528.207a.9.9,0,0,1-.19.067.972.972,0,0,1,.177-.1l.514-.254c.447-.224,1.1-.531,1.88-.962a14.2,14.2,0,0,0,2.571-1.763,7.841,7.841,0,0,0,1.209-1.376c.371-.518.718-1.089,1.115-1.646a15.615,15.615,0,0,1,2.628-2.815,13.808,13.808,0,0,1,1.336-1,6.716,6.716,0,0,1,1.336-.668,5.126,5.126,0,0,1,2.094-.334,3.565,3.565,0,0,1,.571.08A.669.669,0,0,1,155.062,152.654Z" transform="translate(-117.076 -148.815)" fill="#455a64"/>
    <path id="Контур_10014" data-name="Контур 10014" d="M132.119,170.207a1.476,1.476,0,0,1-.274.184l-.785.461-.264.154a.838.838,0,0,1-.334.11.334.334,0,0,1-.21-.05.257.257,0,0,1-.114-.2.688.688,0,0,1,.147-.391l.908-1.456.124.113a3.271,3.271,0,0,1-1,.5,3.338,3.338,0,0,1-1.109.13.959.959,0,0,1-.28-.05.37.37,0,0,1-.24-.21.334.334,0,0,1,.053-.311,1.258,1.258,0,0,1,.174-.194,6.457,6.457,0,0,0,1.055-1.336,11.4,11.4,0,0,0,.668-1.426,1.67,1.67,0,0,1-.1.414,5.816,5.816,0,0,1-.468,1.072,6.24,6.24,0,0,1-1.049,1.383c-.117.11-.23.237-.184.334s.21.144.374.147a3.129,3.129,0,0,0,2-.594l.367-.27-.247.384-.928,1.446a.6.6,0,0,0-.13.3c0,.09.077.14.177.134a1.569,1.569,0,0,0,.558-.23l.808-.414A1.371,1.371,0,0,1,132.119,170.207Z" transform="translate(-109.909 -157.973)" fill="#455a64"/>
    <path id="Контур_10015" data-name="Контур 10015" d="M92.731,271.5l5.63,29.6a2.177,2.177,0,0,0,2.555,1.733l21.623-4.161a2.184,2.184,0,0,0,1.73-2.565l-5.958-30.122a2.187,2.187,0,0,0-2.608-1.71l-21.3,4.675A2.184,2.184,0,0,0,92.731,271.5Z" transform="translate(-85.946 -223.247)" fill="#e0e0e0"/>
    <path id="Контур_10016" data-name="Контур 10016" d="M136,298.334l1.8-.892s.584-3.086,1.533-4.174,2.338-2.338,2.338-2.635.441-2.338.441-2.338.838-.731,1,.731a10.709,10.709,0,0,1,0,2.558l5.63-1.4c.584-.147,1.316-.09,1.242.494a1.823,1.823,0,0,1-.835,1.252,1.884,1.884,0,0,1-.538.314,2.956,2.956,0,0,1,.938,1.713c0,.848.962,2.818.087,3.767s-4.9,3.8-7.013,4.164a4.705,4.705,0,0,0-3.62,2.251Z" transform="translate(-114.792 -239.153)" fill="#ffbe9d"/>
    <path id="Контур_10017" data-name="Контур 10017" d="M153.235,298.21c.023.047-.644.438-1.4,1.018s-1.309,1.115-1.336,1.082a7.072,7.072,0,0,1,2.748-2.1Z" transform="translate(-124.449 -245.879)" fill="#eb996e"/>
    <path id="Контур_10018" data-name="Контур 10018" d="M169.255,300a4.8,4.8,0,0,1-1.352.554,8.428,8.428,0,0,1-1.4.384,4.849,4.849,0,0,1,1.352-.551A9.075,9.075,0,0,1,169.255,300Z" transform="translate(-135.106 -247.071)" fill="#eb996e"/>
    <path id="Контур_10019" data-name="Контур 10019" d="M98.41,320.886l12.4-5.256,4.652,9.273L98.41,333.6Z" transform="translate(-89.755 -257.482)" fill="#19a49c"/>
    <path id="Контур_10020" data-name="Контур 10020" d="M104.851,316.488c.02.047-3.339,1.426-7.484,3.086s-7.53,2.965-7.547,2.922,3.339-1.426,7.484-3.086S104.834,316.444,104.851,316.488Z" transform="translate(-84.033 -258.052)" fill="#263238"/>
    <g id="Сгруппировать_10926" data-name="Сгруппировать 10926" transform="translate(2.558 62.833)" opacity="0.3">
      <path id="Контур_10021" data-name="Контур 10021" d="M87.066,329.66a23.822,23.822,0,0,0-4.4,1.336,5.832,5.832,0,0,0-1.633.908,2.374,2.374,0,0,0-.878,1.6,5.345,5.345,0,0,0,1.142-.668c1.409-1.413,3.837-2.234,5.894-3.005Z" transform="translate(-80.15 -329.66)"/>
    </g>
  </g>
  <g id="freepik--Desk--inject-31" transform="translate(1.606 142.559)">
    <path id="Контур_10022" data-name="Контур 10022" d="M178.044,452.227c0,.047-32.392.087-72.348.087s-72.355-.04-72.355-.087,32.392-.087,72.355-.087S178.044,452.177,178.044,452.227Z" transform="translate(-33.34 -452.14)" fill="#263238"/>
  </g>
</svg>
