<svg xmlns="http://www.w3.org/2000/svg" width="25.5" height="25.5" viewBox="0 0 25.5 25.5">
  <g id="_3_User" data-name="3 User" transform="translate(0.75 0.75)">
    <path id="Stroke_1" data-name="Stroke 1" d="M0,5.823C0,2.71,3.157,0,6.9,0c3.719,0,6.9,2.684,6.9,5.8S10.636,9.713,6.9,9.713C3.177,9.713,0,8.935,0,5.823Z" transform="translate(5.104 14.287)" fill="none" stroke="#989cae" stroke-linecap="round" stroke-linejoin="round" stroke-width="1.5" stroke-dasharray="0 0"/>
    <path id="Stroke_3" data-name="Stroke 3" d="M11.411,6.108A5.918,5.918,0,0,0,5.706,0,5.918,5.918,0,0,0,0,6.108a5.9,5.9,0,0,0,5.665,6.107h.04A5.916,5.916,0,0,0,11.411,6.108Z" transform="translate(6.295 0)" fill="none" stroke="#989cae" stroke-linecap="round" stroke-linejoin="round" stroke-width="1.5" stroke-dasharray="0 0"/>
    <path id="Stroke_5" data-name="Stroke 5" d="M.263,8.953A4.6,4.6,0,0,0,3.673,4.507,4.6,4.6,0,0,0,0,0" transform="translate(18.897 1.583)" fill="none" stroke="#989cae" stroke-linecap="round" stroke-linejoin="round" stroke-width="1.5" stroke-dasharray="0 0"/>
    <path id="Stroke_7" data-name="Stroke 7" d="M0,0C2.783,0,5.159,1.886,5.159,3.571A2.6,2.6,0,0,1,3.1,5.935" transform="translate(18.841 13.741)" fill="none" stroke="#989cae" stroke-linecap="round" stroke-linejoin="round" stroke-width="1.5" stroke-dasharray="0 0"/>
    <path id="Stroke_9" data-name="Stroke 9" d="M3.411,8.953A4.6,4.6,0,0,1,3.673,0" transform="translate(1.43 1.583)" fill="none" stroke="#989cae" stroke-linecap="round" stroke-linejoin="round" stroke-width="1.5" stroke-dasharray="0 0"/>
    <path id="Stroke_11" data-name="Stroke 11" d="M5.159,0C2.377,0,0,1.886,0,3.571A2.6,2.6,0,0,0,2.066,5.935" transform="translate(0 13.741)" fill="none" stroke="#989cae" stroke-linecap="round" stroke-linejoin="round" stroke-width="1.5" stroke-dasharray="0 0"/>
  </g>
</svg>
