<svg id="Сгруппировать_10928" data-name="Сгруппировать 10928" xmlns="http://www.w3.org/2000/svg" width="131.916" height="140.829" viewBox="0 0 131.916 140.829">
  <circle id="Эллипс_49" data-name="Эллипс 49" cx="65.958" cy="65.958" r="65.958" fill="#fff"/>
  <g id="Контур_12798" data-name="Контур 12798" transform="translate(73.98 90.915)" fill="#fff">
    <path d="M 24.95706748962402 48.41413879394531 C 21.78971672058105 48.41413879394531 18.71791839599609 47.79414749145508 15.82697772979736 46.57137680053711 C 13.03390789031982 45.39000701904297 10.5251579284668 43.69845581054688 8.370417594909668 41.54371643066406 C 6.215677261352539 39.38897705078125 4.52412748336792 36.88022613525391 3.3427574634552 34.087158203125 C 2.119987487792969 31.19621658325195 1.499997496604919 28.1244068145752 1.499997496604919 24.95706748962402 C 1.499997496604919 21.78971672058105 2.119987487792969 18.71791839599609 3.3427574634552 15.82697772979736 C 4.52412748336792 13.03390789031982 6.215677261352539 10.5251579284668 8.370417594909668 8.370417594909668 C 10.5251579284668 6.215677261352539 13.03390789031982 4.52412748336792 15.82697772979736 3.3427574634552 C 18.71791839599609 2.119987487792969 21.78971672058105 1.499997496604919 24.95706748962402 1.499997496604919 C 28.1244068145752 1.499997496604919 31.19621658325195 2.119987487792969 34.087158203125 3.3427574634552 C 36.88022613525391 4.52412748336792 39.38897705078125 6.215677261352539 41.54371643066406 8.370417594909668 C 43.69845581054688 10.5251579284668 45.39000701904297 13.03390789031982 46.57137680053711 15.82697772979736 C 47.79414749145508 18.71791839599609 48.41413879394531 21.78971672058105 48.41413879394531 24.95706748962402 C 48.41413879394531 28.1244068145752 47.79414749145508 31.19621658325195 46.57137680053711 34.087158203125 C 45.39000701904297 36.88022613525391 43.69845581054688 39.38897705078125 41.54371643066406 41.54371643066406 C 39.38897705078125 43.69845581054688 36.88022613525391 45.39000701904297 34.087158203125 46.57137680053711 C 31.19621658325195 47.79414749145508 28.1244068145752 48.41413879394531 24.95706748962402 48.41413879394531 Z" stroke="none"/>
    <path d="M 24.95706748962402 2.999996185302734 C 21.99155807495117 2.999996185302734 19.11634826660156 3.580127716064453 16.41130828857422 4.724258422851562 C 13.79702758789062 5.830005645751953 11.44853591918945 7.413608551025391 9.431076049804688 9.431076049804688 C 7.413608551025391 11.44853591918945 5.830005645751953 13.79702758789062 4.724258422851562 16.41130828857422 C 3.580127716064453 19.11634826660156 2.999996185302734 21.99155807495117 2.999996185302734 24.95706748962402 C 2.999996185302734 27.92257690429688 3.580127716064453 30.79777717590332 4.724258422851562 33.50282669067383 C 5.830005645751953 36.11709594726562 7.413608551025391 38.4655876159668 9.431076049804688 40.48305511474609 C 11.44853591918945 42.50052642822266 13.79702758789062 44.08412933349609 16.41130828857422 45.18987655639648 C 19.11634826660156 46.33400726318359 21.99155807495117 46.91413879394531 24.95706748962402 46.91413879394531 C 27.92256736755371 46.91413879394531 30.79777717590332 46.33400726318359 33.50282669067383 45.18987655639648 C 36.11709594726562 44.08412933349609 38.4655876159668 42.50052642822266 40.48305511474609 40.48305511474609 C 42.50052642822266 38.4655876159668 44.08412933349609 36.11709594726562 45.18987655639648 33.50282669067383 C 46.33400726318359 30.79777717590332 46.91413879394531 27.92256736755371 46.91413879394531 24.95706748962402 C 46.91413879394531 21.99155807495117 46.33400726318359 19.11634826660156 45.18987655639648 16.41130828857422 C 44.08412933349609 13.79702758789062 42.50052642822266 11.44853591918945 40.48305511474609 9.431076049804688 C 38.4655876159668 7.413608551025391 36.11709594726562 5.830005645751953 33.50282669067383 4.724258422851562 C 30.79777717590332 3.580127716064453 27.92257690429688 2.999996185302734 24.95706748962402 2.999996185302734 M 24.95706748962402 -3.814697265625e-06 C 38.7404670715332 -3.814697265625e-06 49.91413879394531 11.17365646362305 49.91413879394531 24.95706748962402 C 49.91413879394531 38.7404670715332 38.7404670715332 49.91413879394531 24.95706748962402 49.91413879394531 C 11.17365646362305 49.91413879394531 -3.814697265625e-06 38.7404670715332 -3.814697265625e-06 24.95706748962402 C -3.814697265625e-06 11.17365646362305 11.17365646362305 -3.814697265625e-06 24.95706748962402 -3.814697265625e-06 Z" stroke="none" fill="#19a49c"/>
  </g>
  <g id="_1695790271595759953" data-name="1695790271595759953" transform="translate(17.826 20.946)">
    <circle id="Эллипс_47" data-name="Эллипс 47" cx="10.348" cy="10.348" r="10.348" transform="translate(52.316 0)" fill="none" stroke="#e2e2e2" stroke-linecap="round" stroke-linejoin="round" stroke-miterlimit="10" stroke-width="3"/>
    <path id="Контур_10023" data-name="Контур 10023" d="M8,19.137l9.715-9.715a10.89,10.89,0,0,1,15.266,0L60.389,36.832a10.616,10.616,0,0,0,14.225.694l9.715-7.98" transform="translate(2.408 1.68)" fill="none" stroke="#e2e2e2" stroke-linecap="round" stroke-linejoin="round" stroke-miterlimit="10" stroke-width="3"/>
    <path id="Контур_10024" data-name="Контур 10024" d="M30.76,10,14.454,26.307c-5.2,5.2-3.469,14.572,3.469,17.347l13.531,5.2a10.154,10.154,0,0,1,6.592,9.368V79.043" transform="translate(10.873 10.817)" fill="none" stroke="#e2e2e2" stroke-linecap="round" stroke-linejoin="round" stroke-miterlimit="10" stroke-width="3"/>
    <path id="Контур_10025" data-name="Контур 10025" d="M36.225,22.469,27.2,31.49a6.7,6.7,0,0,1-9.715,0L5,19" transform="translate(-5 33.042)" fill="none" stroke="#e2e2e2" stroke-linecap="round" stroke-linejoin="round" stroke-miterlimit="10" stroke-width="3"/>
    <line id="Линия_119" data-name="Линия 119" y1="17.247" x2="17.822" transform="translate(37.943 31.044)" fill="none" stroke="#e2e2e2" stroke-linecap="round" stroke-linejoin="round" stroke-miterlimit="10" stroke-width="3"/>
  </g>
</svg>
