<svg id="_3764501721605810024" data-name="3764501721605810024" xmlns="http://www.w3.org/2000/svg" width="22.756" height="21.523" viewBox="0 0 22.756 21.523">
  <path id="Контур_13379" data-name="Контур 13379" d="M7.717,14.062a3.225,3.225,0,0,0,5.841.015,6.592,6.592,0,0,1-.757-.97c-.037-.054-.074-.107-.111-.163a3.165,3.165,0,0,1-2.054.7,3.129,3.129,0,0,1-2.187-.876l-.1-.094c-.081.226-.185.5-.3.752a4.435,4.435,0,0,1-.333.635Zm7.973,3.276.841-.882,1.213,1.167,1.889-2.517.939.757c-.443.548-2.021,2.713-2.365,2.995a.716.716,0,0,1-.954-.022l-1.563-1.5ZM18.142,12.3a4.613,4.613,0,1,1-3.876,2.111,4.393,4.393,0,0,1-.407-.2c-.567,2.626-5.043,3.259-6.425.15a10.288,10.288,0,0,1-3.1,1.039l.659,4.758H1.065c-1.948-.148-.746-2.963-.159-3.739a3.213,3.213,0,0,1,1.019-.863c1.163-.648,4.191-.863,5.447-1.739a3.774,3.774,0,0,0,.287-.559c.144-.33.276-.689.359-.933a11.306,11.306,0,0,1-.941-1.341L6.124,9.468a2.767,2.767,0,0,1-.541-1.383,1.106,1.106,0,0,1,.093-.5A.9.9,0,0,1,6,7.208a1.181,1.181,0,0,1,.231-.119,24.1,24.1,0,0,1-.044-2.722,3.615,3.615,0,0,1,.117-.617A3.649,3.649,0,0,1,7.915,1.7a5.12,5.12,0,0,1,1.348-.6c.3-.085-.257-1.052.056-1.083,1.511-.156,3.958,1.224,5.013,2.365a3.7,3.7,0,0,1,.932,2.333L15.2,7.186h0a.686.686,0,0,1,.5.519A2.156,2.156,0,0,1,15.445,9h0a.13.13,0,0,1-.017.031l-1.085,1.787a9.264,9.264,0,0,1-1.332,1.833c.048.069.094.137.143.207a6.347,6.347,0,0,0,.709.911.187.187,0,0,1,.024.03,3.311,3.311,0,0,0,.583.319,4.692,4.692,0,0,1,.409-.469A4.594,4.594,0,0,1,18.142,12.3ZM6.783,7.527a.911.911,0,0,0-.48.126.377.377,0,0,0-.137.159.545.545,0,0,0-.044.256,2.25,2.25,0,0,0,.454,1.1l0,.006.952,1.513a8.025,8.025,0,0,0,1.28,1.68,2.617,2.617,0,0,0,1.826.735,2.69,2.69,0,0,0,1.932-.767,8.493,8.493,0,0,0,1.317-1.795l1.072-1.767a1.73,1.73,0,0,0,.228-.941c-.028-.107-.144-.159-.344-.169-.043,0-.087,0-.13,0s-.1.006-.15.009a.316.316,0,0,1-.083-.006,1.444,1.444,0,0,1-.294-.017l.367-1.626c-2.724.43-4.763-1.595-7.643-.406l.207,1.915a1.3,1.3,0,0,1-.332-.009Zm11.358,5.489a3.9,3.9,0,1,0,3.9,3.9,3.89,3.89,0,0,0-3.9-3.9Z" transform="translate(0.003 -0.005)" fill="#19a49c"/>
</svg>
